%TF.GenerationSoftware,KiCad,Pcbnew,(7.0.0)*%
%TF.CreationDate,2023-02-28T10:18:41+08:00*%
%TF.ProjectId,ESP32_DK,45535033-325f-4444-9b2e-6b696361645f,rev?*%
%TF.SameCoordinates,Original*%
%TF.FileFunction,Copper,L2,Bot*%
%TF.FilePolarity,Positive*%
%FSLAX46Y46*%
G04 Gerber Fmt 4.6, Leading zero omitted, Abs format (unit mm)*
G04 Created by KiCad (PCBNEW (7.0.0)) date 2023-02-28 10:18:41*
%MOMM*%
%LPD*%
G01*
G04 APERTURE LIST*
%TA.AperFunction,ComponentPad*%
%ADD10O,1.000000X2.100000*%
%TD*%
%TA.AperFunction,ComponentPad*%
%ADD11O,1.000000X1.600000*%
%TD*%
%TA.AperFunction,ViaPad*%
%ADD12C,0.500000*%
%TD*%
%TA.AperFunction,ViaPad*%
%ADD13C,1.200000*%
%TD*%
%TA.AperFunction,ViaPad*%
%ADD14C,0.800000*%
%TD*%
%TA.AperFunction,Conductor*%
%ADD15C,0.250000*%
%TD*%
%TA.AperFunction,Conductor*%
%ADD16C,0.600000*%
%TD*%
%TA.AperFunction,Conductor*%
%ADD17C,0.300000*%
%TD*%
%TA.AperFunction,Conductor*%
%ADD18C,0.200000*%
%TD*%
G04 APERTURE END LIST*
D10*
%TO.P,USB1,1,SHELL*%
%TO.N,GND*%
X65910999Y-176755999D03*
D11*
%TO.P,USB1,2,SHELL*%
X65910999Y-180935999D03*
D10*
%TO.P,USB1,3,SHELL*%
X74550999Y-176755999D03*
D11*
%TO.P,USB1,4,SHELL*%
X74550999Y-180935999D03*
%TD*%
D12*
%TO.N,/ESP_EN*%
X51585500Y-137541000D03*
X67437000Y-162052000D03*
%TO.N,GND*%
X70739000Y-169672000D03*
X79121000Y-143764000D03*
X49149000Y-139827000D03*
X85598000Y-159131000D03*
X74422000Y-145923000D03*
X65405000Y-171577000D03*
X70739000Y-170942000D03*
X60071000Y-152781000D03*
X77851000Y-152527000D03*
X52451000Y-148336000D03*
X63881000Y-163703000D03*
X76581000Y-158877000D03*
X80391000Y-143764000D03*
X67437000Y-169799000D03*
X74930000Y-138557000D03*
X75438000Y-157988000D03*
X62611000Y-163449000D03*
X74676000Y-167640000D03*
X67310000Y-165354000D03*
X68072000Y-165354000D03*
X62992000Y-143002000D03*
X83058000Y-139319000D03*
X56769000Y-149352000D03*
X67437000Y-169037000D03*
X75946000Y-151003000D03*
X83820000Y-153289000D03*
X85852000Y-140081000D03*
X84836000Y-140081000D03*
X60960000Y-136271000D03*
X83820000Y-154940000D03*
X83820000Y-152527000D03*
X75692000Y-139065000D03*
X80899000Y-137414000D03*
X80391000Y-142494000D03*
X61722000Y-163576000D03*
X59944000Y-149479000D03*
X70485000Y-158242000D03*
X85852000Y-136271000D03*
X50419000Y-130429000D03*
X60960000Y-137033000D03*
X66548000Y-165354000D03*
X78740000Y-147320000D03*
X69469000Y-170307000D03*
X62230000Y-170942000D03*
X76835000Y-160020000D03*
X74930000Y-166497000D03*
X78994000Y-140970000D03*
X78105000Y-142494000D03*
X70104000Y-169672000D03*
X86868000Y-140208000D03*
X83820000Y-151765000D03*
X57404000Y-145288000D03*
X78867000Y-142113000D03*
X60960000Y-137795000D03*
X64643000Y-170434000D03*
X75946000Y-147320000D03*
X56642000Y-146050000D03*
X60198000Y-136271000D03*
X57531000Y-153035000D03*
X84963000Y-145796000D03*
X57531000Y-149987000D03*
X71247000Y-158242000D03*
X61087000Y-164973000D03*
X64262000Y-149352000D03*
X62484000Y-137795000D03*
X56642000Y-152781000D03*
X79629000Y-142240000D03*
X75565000Y-168529000D03*
X56515000Y-151765000D03*
X83185000Y-159131000D03*
X83820000Y-151003000D03*
X82931000Y-136398000D03*
X62484000Y-136271000D03*
X84836000Y-141224000D03*
X74803000Y-168656000D03*
X85852000Y-141224000D03*
X78359000Y-155575000D03*
X70485000Y-155575000D03*
X55626000Y-144907000D03*
X58928000Y-154559000D03*
X86106000Y-144653000D03*
X84074000Y-136271000D03*
X78232000Y-157607000D03*
X75565000Y-167513000D03*
X76962000Y-156591000D03*
X84963000Y-144653000D03*
X78867000Y-145923000D03*
X56007000Y-144145000D03*
X59944000Y-143637000D03*
X64008000Y-172466000D03*
X62484000Y-137033000D03*
X84328000Y-145542000D03*
X70358000Y-129159000D03*
X79121000Y-160020000D03*
X78994000Y-143002000D03*
X49149000Y-140843000D03*
X70104000Y-170307000D03*
X60198000Y-137795000D03*
X49530000Y-130429000D03*
X59436000Y-145415000D03*
X61214000Y-144653000D03*
X76962000Y-152019000D03*
X75946000Y-150241000D03*
X69596000Y-129921000D03*
X64643000Y-145288000D03*
X60071000Y-170815000D03*
X62611000Y-144145000D03*
X77470000Y-147320000D03*
X67437000Y-170561000D03*
X72009000Y-129159000D03*
X69596000Y-130556000D03*
X80264000Y-138557000D03*
X78359000Y-156464000D03*
X73787000Y-145542000D03*
X49149000Y-141859000D03*
X72771000Y-129794000D03*
X61722000Y-137033000D03*
X63754000Y-165735000D03*
X57785000Y-166497000D03*
X58420000Y-151257000D03*
X76454000Y-153924000D03*
X82931000Y-137287000D03*
X61214000Y-165989000D03*
X61722000Y-154305000D03*
X59182000Y-152019000D03*
X75438000Y-153543000D03*
X83820000Y-150241000D03*
X61087000Y-142494000D03*
X66548000Y-170307000D03*
X72771000Y-130683000D03*
X62103000Y-166243000D03*
X55372000Y-143256000D03*
X86868000Y-159131000D03*
X61722000Y-145542000D03*
X70739000Y-170307000D03*
X74930000Y-139319000D03*
X74422000Y-133985000D03*
X64008000Y-171704000D03*
X68834000Y-170307000D03*
X49149000Y-137795000D03*
X73152000Y-145923000D03*
X77724000Y-156845000D03*
X59436000Y-137795000D03*
X87249000Y-144653000D03*
X58293000Y-167259000D03*
X75565000Y-154432000D03*
X65659000Y-170053000D03*
X77597000Y-155956000D03*
X60960000Y-153670000D03*
X57912000Y-154051000D03*
X63881000Y-171069000D03*
X56515000Y-142367000D03*
X83947000Y-144653000D03*
X83693000Y-140335000D03*
X60198000Y-137033000D03*
X83820000Y-154178000D03*
X65405000Y-170815000D03*
X60960000Y-149352000D03*
X86614000Y-136271000D03*
X74422000Y-147320000D03*
X61722000Y-136271000D03*
X83820000Y-141224000D03*
X58547000Y-170688000D03*
X58166000Y-169799000D03*
X75311000Y-160020000D03*
X80899000Y-138176000D03*
X86995000Y-141224000D03*
X71247000Y-155575000D03*
X77470000Y-146304000D03*
X61087000Y-164084000D03*
X62992000Y-166243000D03*
X84201000Y-159131000D03*
X59436000Y-137033000D03*
X68834000Y-169672000D03*
X53213000Y-148844000D03*
X59436000Y-136271000D03*
X76708000Y-153035000D03*
X75565000Y-169545000D03*
X77470000Y-134112000D03*
X56769000Y-166370000D03*
X63881000Y-164719000D03*
X75692000Y-138303000D03*
X49022000Y-143129000D03*
X73660000Y-133985000D03*
X58801000Y-142494000D03*
X76708000Y-151257000D03*
X75946000Y-146304000D03*
X69469000Y-170942000D03*
X61722000Y-137795000D03*
X69469000Y-169672000D03*
X64135000Y-150241000D03*
X58293000Y-168148000D03*
X57912000Y-143637000D03*
X75184000Y-159004000D03*
X73787000Y-160020000D03*
X58420000Y-144653000D03*
X51816000Y-147701000D03*
X80772000Y-136525000D03*
X82931000Y-138303000D03*
X59436000Y-170815000D03*
X64008000Y-173228000D03*
X74549000Y-159639000D03*
X77470000Y-153162000D03*
X73279000Y-144907000D03*
X58420000Y-169164000D03*
X57404000Y-142240000D03*
X54102000Y-149352000D03*
X78359000Y-134112000D03*
X70104000Y-170942000D03*
X84963000Y-136271000D03*
X83693000Y-145923000D03*
X68834000Y-170942000D03*
X49149000Y-144272000D03*
D13*
%TO.N,+3.3V*%
X59690000Y-166243000D03*
X82677000Y-144907000D03*
D12*
X78867000Y-144780000D03*
D13*
X59690000Y-157734000D03*
X73914000Y-158242000D03*
D12*
X75565000Y-145415000D03*
D14*
X50419000Y-134366000D03*
D12*
%TO.N,Net-(U4-C2P)*%
X87376000Y-145796000D03*
X87376000Y-154686000D03*
%TO.N,Net-(U4-C1P)*%
X85852000Y-145669000D03*
X86051500Y-154686000D03*
D14*
%TO.N,+5V*%
X61341000Y-174625000D03*
X73533000Y-174498000D03*
D12*
%TO.N,/IO16*%
X72390000Y-144272000D03*
X72390000Y-158115000D03*
%TO.N,Net-(Q2-B)*%
X74930000Y-161036000D03*
X71475600Y-161671000D03*
%TO.N,/IO0*%
X71247000Y-153670000D03*
X73065600Y-161036000D03*
%TO.N,/DTR*%
X65151000Y-162941000D03*
X74041000Y-165100000D03*
X71628000Y-171704000D03*
%TO.N,/DATA0*%
X65640250Y-152889250D03*
X68072000Y-148844000D03*
%TO.N,/CMD*%
X66421000Y-149098000D03*
X64941750Y-155111750D03*
%TO.N,/DATA3*%
X65449750Y-156127750D03*
X57912000Y-149098000D03*
%TO.N,/IO22*%
X81661000Y-149352000D03*
X72263000Y-132773000D03*
%TO.N,/IO21*%
X72263000Y-136583000D03*
X80518000Y-149225000D03*
%TO.N,/CAN_RX*%
X77978000Y-139319000D03*
X54991000Y-139065000D03*
%TO.N,/CAN_TX*%
X74168000Y-137922000D03*
X55118000Y-140335000D03*
%TO.N,/IO18*%
X73320500Y-140393000D03*
X77216000Y-144018000D03*
%TO.N,/IO19*%
X74561000Y-143268000D03*
X72898000Y-139123000D03*
%TO.N,/ESP_RX*%
X69850000Y-143764000D03*
X69850000Y-165608000D03*
%TO.N,/ESP_TX*%
X68834000Y-165608000D03*
X68834000Y-143891000D03*
%TO.N,/IO23*%
X72882182Y-138303000D03*
X76446444Y-144025556D03*
%TO.N,/D+*%
X70866000Y-174498000D03*
X67818000Y-172085000D03*
%TD*%
D15*
%TO.N,/ESP_EN*%
X67437000Y-162052000D02*
X67437000Y-161544000D01*
X51585500Y-145692500D02*
X51585500Y-137541000D01*
X67437000Y-161544000D02*
X51585500Y-145692500D01*
D16*
%TO.N,+3.3V*%
X73914000Y-158242000D02*
X82677000Y-149479000D01*
D15*
X75565000Y-145415000D02*
X78232000Y-145415000D01*
D16*
X59690000Y-157734000D02*
X59690000Y-166243000D01*
D15*
X78232000Y-145415000D02*
X78867000Y-144780000D01*
D16*
X59690000Y-157734000D02*
X50419000Y-148463000D01*
X50419000Y-148463000D02*
X50419000Y-134366000D01*
X82677000Y-149479000D02*
X82677000Y-144907000D01*
D17*
%TO.N,Net-(U4-C2P)*%
X87376000Y-154686000D02*
X87376000Y-145796000D01*
%TO.N,Net-(U4-C1P)*%
X86051500Y-154686000D02*
X86051500Y-145868500D01*
X86051500Y-145868500D02*
X85852000Y-145669000D01*
D16*
%TO.N,+5V*%
X67945000Y-175514000D02*
X67056000Y-174625000D01*
X67056000Y-174625000D02*
X61341000Y-174625000D01*
X72517000Y-175514000D02*
X67945000Y-175514000D01*
X73533000Y-174498000D02*
X72517000Y-175514000D01*
D18*
%TO.N,/IO16*%
X72390000Y-158115000D02*
X72390000Y-144272000D01*
%TO.N,Net-(Q2-B)*%
X74295000Y-161671000D02*
X71475600Y-161671000D01*
X74930000Y-161036000D02*
X74295000Y-161671000D01*
%TO.N,/IO0*%
X71840000Y-159739818D02*
X71840000Y-154263000D01*
X73065600Y-161036000D02*
X73065600Y-160965418D01*
X73065600Y-160965418D02*
X71840000Y-159739818D01*
X71840000Y-154263000D02*
X71247000Y-153670000D01*
D15*
%TO.N,/DTR*%
X72831000Y-166310000D02*
X74041000Y-165100000D01*
X66361000Y-166310000D02*
X72831000Y-166310000D01*
X65151000Y-162941000D02*
X65151000Y-165100000D01*
D18*
X74041000Y-165100000D02*
X74041000Y-169291000D01*
X74041000Y-169291000D02*
X71628000Y-171704000D01*
D15*
X65151000Y-165100000D02*
X66361000Y-166310000D01*
D18*
%TO.N,/DATA0*%
X68072000Y-150457500D02*
X65640250Y-152889250D01*
X68072000Y-148844000D02*
X68072000Y-150457500D01*
%TO.N,/CMD*%
X64941750Y-150577250D02*
X64941750Y-155111750D01*
X66421000Y-149098000D02*
X64941750Y-150577250D01*
%TO.N,/DATA3*%
X57912000Y-149098000D02*
X64941750Y-156127750D01*
X64941750Y-156127750D02*
X65449750Y-156127750D01*
%TO.N,/IO22*%
X72263000Y-132773000D02*
X78290000Y-132773000D01*
X78290000Y-132773000D02*
X81661000Y-136144000D01*
X81661000Y-136144000D02*
X81661000Y-149352000D01*
%TO.N,/IO21*%
X81153000Y-148590000D02*
X80518000Y-149225000D01*
X72263000Y-136583000D02*
X76019818Y-136583000D01*
X76019818Y-136583000D02*
X81153000Y-141716182D01*
X81153000Y-141716182D02*
X81153000Y-148590000D01*
%TO.N,/CAN_RX*%
X76012000Y-137353000D02*
X68514000Y-137353000D01*
X66802000Y-139065000D02*
X54991000Y-139065000D01*
X68514000Y-137353000D02*
X66802000Y-139065000D01*
X77978000Y-139319000D02*
X76012000Y-137353000D01*
%TO.N,/CAN_TX*%
X73999000Y-137753000D02*
X69130000Y-137753000D01*
X66548000Y-140335000D02*
X55118000Y-140335000D01*
X74168000Y-137922000D02*
X73999000Y-137753000D01*
X69130000Y-137753000D02*
X66548000Y-140335000D01*
%TO.N,/IO18*%
X73320500Y-140393000D02*
X73591000Y-140393000D01*
X73591000Y-140393000D02*
X77216000Y-144018000D01*
%TO.N,/IO19*%
X72771000Y-141478000D02*
X74561000Y-143268000D01*
X72898000Y-139123000D02*
X72771000Y-139250000D01*
X72771000Y-139250000D02*
X72771000Y-141478000D01*
D15*
%TO.N,/ESP_RX*%
X69850000Y-143764000D02*
X69850000Y-165608000D01*
%TO.N,/ESP_TX*%
X68834000Y-143891000D02*
X68834000Y-165608000D01*
D18*
%TO.N,/IO23*%
X72263000Y-138922182D02*
X72263000Y-141859000D01*
X72882182Y-138303000D02*
X72263000Y-138922182D01*
X74429556Y-144025556D02*
X76446444Y-144025556D01*
X72263000Y-141859000D02*
X74429556Y-144025556D01*
%TO.N,/D+*%
X70866000Y-174498000D02*
X68453000Y-172085000D01*
X68453000Y-172085000D02*
X67818000Y-172085000D01*
%TD*%
%TA.AperFunction,Conductor*%
%TO.N,GND*%
G36*
X88088000Y-128283763D02*
G01*
X88124237Y-128320000D01*
X88137500Y-128369500D01*
X88137500Y-181891500D01*
X88124237Y-181941000D01*
X88088000Y-181977237D01*
X88038500Y-181990500D01*
X48359500Y-181990500D01*
X48310000Y-181977237D01*
X48273763Y-181941000D01*
X48260500Y-181891500D01*
X48260500Y-177927000D01*
X49243654Y-177927000D01*
X49243810Y-177929778D01*
X49262866Y-178269103D01*
X49262867Y-178269112D01*
X49263023Y-178271889D01*
X49320885Y-178612441D01*
X49321650Y-178615098D01*
X49321653Y-178615109D01*
X49415743Y-178941702D01*
X49416513Y-178944374D01*
X49417574Y-178946935D01*
X49417577Y-178946944D01*
X49507551Y-179164160D01*
X49548704Y-179263512D01*
X49550044Y-179265936D01*
X49550050Y-179265949D01*
X49700773Y-179538661D01*
X49715796Y-179565843D01*
X49717400Y-179568104D01*
X49717406Y-179568113D01*
X49856257Y-179763803D01*
X49915689Y-179847564D01*
X50145866Y-180105134D01*
X50403436Y-180335311D01*
X50573148Y-180455729D01*
X50682886Y-180533593D01*
X50682890Y-180533595D01*
X50685157Y-180535204D01*
X50815636Y-180607317D01*
X50985050Y-180700949D01*
X50985056Y-180700951D01*
X50987488Y-180702296D01*
X51306626Y-180834487D01*
X51638559Y-180930115D01*
X51979111Y-180987977D01*
X52324000Y-181007346D01*
X52668889Y-180987977D01*
X53009441Y-180930115D01*
X53341374Y-180834487D01*
X53660512Y-180702296D01*
X53962843Y-180535204D01*
X54244564Y-180335311D01*
X54502134Y-180105134D01*
X54732311Y-179847564D01*
X54932204Y-179565843D01*
X55099296Y-179263512D01*
X55231487Y-178944374D01*
X55327115Y-178612441D01*
X55384977Y-178271889D01*
X55404346Y-177927000D01*
X55384977Y-177582111D01*
X55329569Y-177256000D01*
X66760534Y-177256000D01*
X66761381Y-177262434D01*
X66779465Y-177399800D01*
X66779466Y-177399805D01*
X66780313Y-177406236D01*
X66838302Y-177546233D01*
X66930549Y-177666451D01*
X67050767Y-177758698D01*
X67190764Y-177816687D01*
X67303280Y-177831500D01*
X67375479Y-177831500D01*
X67378720Y-177831500D01*
X67491236Y-177816687D01*
X67631233Y-177758698D01*
X67751451Y-177666451D01*
X67843698Y-177546233D01*
X67901687Y-177406236D01*
X67921466Y-177256000D01*
X72540534Y-177256000D01*
X72541381Y-177262434D01*
X72559465Y-177399800D01*
X72559466Y-177399805D01*
X72560313Y-177406236D01*
X72618302Y-177546233D01*
X72710549Y-177666451D01*
X72830767Y-177758698D01*
X72970764Y-177816687D01*
X73083280Y-177831500D01*
X73155479Y-177831500D01*
X73158720Y-177831500D01*
X73271236Y-177816687D01*
X73411233Y-177758698D01*
X73531451Y-177666451D01*
X73623698Y-177546233D01*
X73681687Y-177406236D01*
X73701466Y-177256000D01*
X73681687Y-177105764D01*
X73623698Y-176965767D01*
X73531451Y-176845549D01*
X73411233Y-176753302D01*
X73271236Y-176695313D01*
X73264805Y-176694466D01*
X73264800Y-176694465D01*
X73161933Y-176680923D01*
X73158720Y-176680500D01*
X73083280Y-176680500D01*
X73080067Y-176680922D01*
X73080066Y-176680923D01*
X72977199Y-176694465D01*
X72977193Y-176694466D01*
X72970764Y-176695313D01*
X72964767Y-176697796D01*
X72964767Y-176697797D01*
X72836760Y-176750819D01*
X72836756Y-176750821D01*
X72830767Y-176753302D01*
X72825624Y-176757247D01*
X72825621Y-176757250D01*
X72715697Y-176841598D01*
X72715693Y-176841601D01*
X72710549Y-176845549D01*
X72706601Y-176850693D01*
X72706598Y-176850697D01*
X72622250Y-176960621D01*
X72622247Y-176960624D01*
X72618302Y-176965767D01*
X72615821Y-176971756D01*
X72615819Y-176971760D01*
X72562797Y-177099767D01*
X72560313Y-177105764D01*
X72559466Y-177112193D01*
X72559465Y-177112199D01*
X72542435Y-177241559D01*
X72540534Y-177256000D01*
X67921466Y-177256000D01*
X67901687Y-177105764D01*
X67843698Y-176965767D01*
X67751451Y-176845549D01*
X67631233Y-176753302D01*
X67491236Y-176695313D01*
X67484805Y-176694466D01*
X67484800Y-176694465D01*
X67381933Y-176680923D01*
X67378720Y-176680500D01*
X67303280Y-176680500D01*
X67300067Y-176680922D01*
X67300066Y-176680923D01*
X67197199Y-176694465D01*
X67197193Y-176694466D01*
X67190764Y-176695313D01*
X67184767Y-176697796D01*
X67184767Y-176697797D01*
X67056760Y-176750819D01*
X67056756Y-176750821D01*
X67050767Y-176753302D01*
X67045624Y-176757247D01*
X67045621Y-176757250D01*
X66935697Y-176841598D01*
X66935693Y-176841601D01*
X66930549Y-176845549D01*
X66926601Y-176850693D01*
X66926598Y-176850697D01*
X66842250Y-176960621D01*
X66842247Y-176960624D01*
X66838302Y-176965767D01*
X66835821Y-176971756D01*
X66835819Y-176971760D01*
X66782797Y-177099767D01*
X66780313Y-177105764D01*
X66779466Y-177112193D01*
X66779465Y-177112199D01*
X66762435Y-177241559D01*
X66760534Y-177256000D01*
X55329569Y-177256000D01*
X55327115Y-177241559D01*
X55231487Y-176909626D01*
X55099296Y-176590488D01*
X55084086Y-176562968D01*
X54992794Y-176397786D01*
X54932204Y-176288157D01*
X54732311Y-176006436D01*
X54502134Y-175748866D01*
X54244564Y-175518689D01*
X54121947Y-175431687D01*
X53965113Y-175320406D01*
X53965104Y-175320400D01*
X53962843Y-175318796D01*
X53960406Y-175317449D01*
X53662949Y-175153050D01*
X53662936Y-175153044D01*
X53660512Y-175151704D01*
X53655278Y-175149536D01*
X53343944Y-175020577D01*
X53343935Y-175020574D01*
X53341374Y-175019513D01*
X53338705Y-175018744D01*
X53338702Y-175018743D01*
X53012109Y-174924653D01*
X53012098Y-174924650D01*
X53009441Y-174923885D01*
X52939514Y-174912004D01*
X52671639Y-174866490D01*
X52671634Y-174866489D01*
X52668889Y-174866023D01*
X52666112Y-174865867D01*
X52666103Y-174865866D01*
X52326778Y-174846810D01*
X52324000Y-174846654D01*
X52321222Y-174846810D01*
X51981896Y-174865866D01*
X51981885Y-174865867D01*
X51979111Y-174866023D01*
X51976367Y-174866489D01*
X51976360Y-174866490D01*
X51641301Y-174923419D01*
X51641298Y-174923419D01*
X51638559Y-174923885D01*
X51635905Y-174924649D01*
X51635890Y-174924653D01*
X51309297Y-175018743D01*
X51309288Y-175018745D01*
X51306626Y-175019513D01*
X51304069Y-175020571D01*
X51304055Y-175020577D01*
X50990058Y-175150639D01*
X50990050Y-175150642D01*
X50987488Y-175151704D01*
X50985070Y-175153040D01*
X50985050Y-175153050D01*
X50687593Y-175317449D01*
X50687584Y-175317454D01*
X50685157Y-175318796D01*
X50682902Y-175320395D01*
X50682886Y-175320406D01*
X50405696Y-175517085D01*
X50405691Y-175517088D01*
X50403436Y-175518689D01*
X50401374Y-175520530D01*
X50401371Y-175520534D01*
X50147944Y-175747008D01*
X50147934Y-175747017D01*
X50145866Y-175748866D01*
X50144017Y-175750934D01*
X50144008Y-175750944D01*
X49921233Y-176000232D01*
X49915689Y-176006436D01*
X49914088Y-176008691D01*
X49914085Y-176008696D01*
X49717406Y-176285886D01*
X49717395Y-176285902D01*
X49715796Y-176288157D01*
X49714454Y-176290584D01*
X49714449Y-176290593D01*
X49550050Y-176588050D01*
X49550040Y-176588070D01*
X49548704Y-176590488D01*
X49547642Y-176593050D01*
X49547639Y-176593058D01*
X49417577Y-176907055D01*
X49417571Y-176907069D01*
X49416513Y-176909626D01*
X49415745Y-176912288D01*
X49415743Y-176912297D01*
X49321653Y-177238890D01*
X49321649Y-177238905D01*
X49320885Y-177241559D01*
X49320419Y-177244298D01*
X49320419Y-177244301D01*
X49268245Y-177551378D01*
X49263023Y-177582111D01*
X49262867Y-177584885D01*
X49262866Y-177584896D01*
X49249041Y-177831076D01*
X49243654Y-177927000D01*
X48260500Y-177927000D01*
X48260500Y-174625000D01*
X60735318Y-174625000D01*
X60736165Y-174631434D01*
X60755108Y-174775326D01*
X60755109Y-174775331D01*
X60755956Y-174781762D01*
X60758439Y-174787758D01*
X60758440Y-174787759D01*
X60791051Y-174866490D01*
X60816464Y-174927841D01*
X60820413Y-174932988D01*
X60820414Y-174932989D01*
X60907330Y-175046261D01*
X60912718Y-175053282D01*
X61038159Y-175149536D01*
X61184238Y-175210044D01*
X61341000Y-175230682D01*
X61347433Y-175229835D01*
X61347435Y-175229835D01*
X61352613Y-175229152D01*
X61361069Y-175228039D01*
X61375653Y-175227206D01*
X61379606Y-175227273D01*
X62156240Y-175130194D01*
X62160514Y-175128847D01*
X62164885Y-175127894D01*
X62165076Y-175128771D01*
X62186365Y-175125500D01*
X66807678Y-175125500D01*
X66845564Y-175133036D01*
X66877682Y-175154496D01*
X67545518Y-175822332D01*
X67558796Y-175838810D01*
X67559025Y-175839167D01*
X67559028Y-175839170D01*
X67562857Y-175845128D01*
X67568206Y-175849763D01*
X67568208Y-175849765D01*
X67601057Y-175878228D01*
X67606229Y-175883043D01*
X67616407Y-175893221D01*
X67627939Y-175901854D01*
X67633407Y-175906259D01*
X67671627Y-175939377D01*
X67678454Y-175942494D01*
X67696650Y-175953291D01*
X67696997Y-175953551D01*
X67697001Y-175953553D01*
X67702669Y-175957796D01*
X67742804Y-175972765D01*
X67750029Y-175975460D01*
X67756560Y-175978165D01*
X67796099Y-175996222D01*
X67802543Y-175999165D01*
X67809749Y-176000200D01*
X67809970Y-176000233D01*
X67830487Y-176005469D01*
X67830568Y-176005499D01*
X67837517Y-176008091D01*
X67887957Y-176011698D01*
X67894950Y-176012450D01*
X67909201Y-176014500D01*
X67923581Y-176014500D01*
X67930644Y-176014752D01*
X67981073Y-176018359D01*
X67988410Y-176016762D01*
X68009454Y-176014500D01*
X72452546Y-176014500D01*
X72473589Y-176016762D01*
X72480927Y-176018359D01*
X72531355Y-176014752D01*
X72538419Y-176014500D01*
X72549259Y-176014500D01*
X72552799Y-176014500D01*
X72567049Y-176012450D01*
X72574043Y-176011698D01*
X72624483Y-176008091D01*
X72631511Y-176005469D01*
X72652024Y-176000233D01*
X72659457Y-175999165D01*
X72705437Y-175978165D01*
X72711962Y-175975462D01*
X72759331Y-175957796D01*
X72765342Y-175953295D01*
X72783546Y-175942494D01*
X72790373Y-175939377D01*
X72828599Y-175906252D01*
X72834042Y-175901866D01*
X72845593Y-175893221D01*
X72855769Y-175883044D01*
X72860923Y-175878243D01*
X72899143Y-175845128D01*
X72903198Y-175838817D01*
X72916481Y-175822332D01*
X73289147Y-175449665D01*
X73306517Y-175436949D01*
X73306021Y-175436176D01*
X73309788Y-175433757D01*
X73313764Y-175431687D01*
X73931572Y-174951171D01*
X73934318Y-174948330D01*
X73945224Y-174938602D01*
X73961282Y-174926282D01*
X74057536Y-174800841D01*
X74118044Y-174654762D01*
X74138682Y-174498000D01*
X74118044Y-174341238D01*
X74057536Y-174195159D01*
X73961282Y-174069718D01*
X73922495Y-174039956D01*
X73840989Y-173977414D01*
X73840988Y-173977413D01*
X73835841Y-173973464D01*
X73829847Y-173970981D01*
X73829845Y-173970980D01*
X73695759Y-173915440D01*
X73695758Y-173915439D01*
X73689762Y-173912956D01*
X73683331Y-173912109D01*
X73683326Y-173912108D01*
X73539434Y-173893165D01*
X73533000Y-173892318D01*
X73526566Y-173893165D01*
X73382673Y-173912108D01*
X73382666Y-173912109D01*
X73376238Y-173912956D01*
X73370243Y-173915439D01*
X73370240Y-173915440D01*
X73236154Y-173970980D01*
X73236149Y-173970982D01*
X73230159Y-173973464D01*
X73225015Y-173977411D01*
X73225010Y-173977414D01*
X73109865Y-174065768D01*
X73109862Y-174065770D01*
X73104718Y-174069718D01*
X73100769Y-174074863D01*
X73100767Y-174074866D01*
X73092392Y-174085779D01*
X73082702Y-174096647D01*
X73082339Y-174096997D01*
X73082330Y-174097006D01*
X73079830Y-174099425D01*
X73077693Y-174102171D01*
X73077688Y-174102178D01*
X72602059Y-174713702D01*
X72602054Y-174713708D01*
X72599312Y-174717235D01*
X72597246Y-174721199D01*
X72594824Y-174724974D01*
X72594086Y-174724500D01*
X72581328Y-174741856D01*
X72338683Y-174984503D01*
X72306565Y-175005964D01*
X72268679Y-175013500D01*
X71229980Y-175013500D01*
X71173518Y-174995820D01*
X71137222Y-174949096D01*
X71134056Y-174890015D01*
X71163532Y-174842298D01*
X71164049Y-174841967D01*
X71248882Y-174744063D01*
X71302697Y-174626226D01*
X71321133Y-174498000D01*
X71302697Y-174369774D01*
X71248882Y-174251937D01*
X71191266Y-174185444D01*
X71168684Y-174159382D01*
X71168683Y-174159381D01*
X71164049Y-174154033D01*
X71127281Y-174130404D01*
X71061024Y-174087823D01*
X71061023Y-174087822D01*
X71055069Y-174083996D01*
X71051645Y-174082990D01*
X71047997Y-174081012D01*
X71045545Y-174079117D01*
X71037230Y-174074871D01*
X70704995Y-173905209D01*
X70680016Y-173887044D01*
X68703102Y-171910131D01*
X68699632Y-171906143D01*
X68696958Y-171900772D01*
X68662274Y-171869153D01*
X68658966Y-171865995D01*
X68649029Y-171856058D01*
X68649028Y-171856057D01*
X68645797Y-171852826D01*
X68642023Y-171850240D01*
X68638505Y-171847319D01*
X68638633Y-171847164D01*
X68634961Y-171844253D01*
X68613933Y-171825084D01*
X68605380Y-171821770D01*
X68605378Y-171821769D01*
X68604765Y-171821532D01*
X68584586Y-171810895D01*
X68584052Y-171810529D01*
X68584047Y-171810527D01*
X68576481Y-171805344D01*
X68567553Y-171803244D01*
X68567551Y-171803243D01*
X68548796Y-171798832D01*
X68535703Y-171794777D01*
X68517726Y-171787813D01*
X68517723Y-171787812D01*
X68509173Y-171784500D01*
X68500002Y-171784500D01*
X68499348Y-171784500D01*
X68476682Y-171781870D01*
X68476049Y-171781721D01*
X68476046Y-171781720D01*
X68467119Y-171779621D01*
X68458036Y-171780888D01*
X68438947Y-171783551D01*
X68425269Y-171784500D01*
X68381521Y-171784500D01*
X68351013Y-171779682D01*
X68245766Y-171745590D01*
X68245765Y-171745590D01*
X68245765Y-171745589D01*
X68245762Y-171745588D01*
X68245758Y-171745586D01*
X67991618Y-171663266D01*
X67991617Y-171663265D01*
X67987237Y-171661847D01*
X67982674Y-171661263D01*
X67982669Y-171661262D01*
X67976080Y-171660419D01*
X67974949Y-171660274D01*
X67959627Y-171657066D01*
X67889563Y-171636494D01*
X67882772Y-171634500D01*
X67753228Y-171634500D01*
X67746437Y-171636493D01*
X67746436Y-171636494D01*
X67635724Y-171669001D01*
X67635721Y-171669002D01*
X67628931Y-171670996D01*
X67622978Y-171674821D01*
X67622973Y-171674824D01*
X67525908Y-171737204D01*
X67525904Y-171737206D01*
X67519951Y-171741033D01*
X67515319Y-171746378D01*
X67515315Y-171746382D01*
X67439752Y-171833588D01*
X67439749Y-171833591D01*
X67435118Y-171838937D01*
X67432179Y-171845372D01*
X67432176Y-171845377D01*
X67384246Y-171950328D01*
X67384244Y-171950333D01*
X67381303Y-171956774D01*
X67380295Y-171963782D01*
X67380294Y-171963787D01*
X67367641Y-172051795D01*
X67362867Y-172085000D01*
X67363875Y-172092011D01*
X67380294Y-172206212D01*
X67380295Y-172206215D01*
X67381303Y-172213226D01*
X67435118Y-172331063D01*
X67439752Y-172336411D01*
X67506389Y-172413316D01*
X67519951Y-172428967D01*
X67628931Y-172499004D01*
X67753228Y-172535500D01*
X67875695Y-172535500D01*
X67882772Y-172535500D01*
X67959631Y-172512932D01*
X67974958Y-172509723D01*
X67987238Y-172508152D01*
X68280013Y-172413315D01*
X68333673Y-172411244D01*
X68380523Y-172437494D01*
X70255043Y-174312014D01*
X70273208Y-174336993D01*
X70423569Y-174631434D01*
X70447117Y-174677545D01*
X70453873Y-174686284D01*
X70465599Y-174705703D01*
X70483118Y-174744063D01*
X70567951Y-174841967D01*
X70568467Y-174842298D01*
X70597944Y-174890015D01*
X70594778Y-174949096D01*
X70558482Y-174995820D01*
X70502020Y-175013500D01*
X68193322Y-175013500D01*
X68155436Y-175005964D01*
X68123318Y-174984504D01*
X67455480Y-174316666D01*
X67442199Y-174300184D01*
X67441969Y-174299826D01*
X67438143Y-174293872D01*
X67399948Y-174260776D01*
X67394775Y-174255961D01*
X67387088Y-174248274D01*
X67384593Y-174245779D01*
X67373062Y-174237147D01*
X67367578Y-174232728D01*
X67329373Y-174199623D01*
X67322933Y-174196681D01*
X67322932Y-174196681D01*
X67322544Y-174196504D01*
X67304345Y-174185706D01*
X67303996Y-174185444D01*
X67303992Y-174185442D01*
X67298331Y-174181204D01*
X67291704Y-174178732D01*
X67291700Y-174178730D01*
X67250970Y-174163539D01*
X67244441Y-174160835D01*
X67204897Y-174142776D01*
X67204896Y-174142775D01*
X67198457Y-174139835D01*
X67191452Y-174138827D01*
X67191443Y-174138825D01*
X67191014Y-174138764D01*
X67170520Y-174133533D01*
X67170116Y-174133382D01*
X67170111Y-174133380D01*
X67163483Y-174130909D01*
X67156425Y-174130404D01*
X67113063Y-174127302D01*
X67106042Y-174126547D01*
X67095299Y-174125002D01*
X67095283Y-174125000D01*
X67091799Y-174124500D01*
X67088265Y-174124500D01*
X67077419Y-174124500D01*
X67070356Y-174124248D01*
X67026991Y-174121146D01*
X67026989Y-174121146D01*
X67019927Y-174120641D01*
X67013010Y-174122145D01*
X67013005Y-174122146D01*
X67012706Y-174122211D01*
X67012589Y-174122237D01*
X66991546Y-174124500D01*
X62186365Y-174124500D01*
X62165080Y-174121228D01*
X62164889Y-174122107D01*
X62160514Y-174121152D01*
X62156240Y-174119806D01*
X62151795Y-174119250D01*
X62151789Y-174119249D01*
X62026801Y-174103626D01*
X61383065Y-174023158D01*
X61383054Y-174023157D01*
X61379603Y-174022726D01*
X61376112Y-174022784D01*
X61376103Y-174022784D01*
X61375635Y-174022792D01*
X61361065Y-174021959D01*
X61347436Y-174020165D01*
X61347434Y-174020165D01*
X61341000Y-174019318D01*
X61334566Y-174020165D01*
X61190673Y-174039108D01*
X61190666Y-174039109D01*
X61184238Y-174039956D01*
X61178243Y-174042439D01*
X61178240Y-174042440D01*
X61044154Y-174097980D01*
X61044149Y-174097982D01*
X61038159Y-174100464D01*
X61033015Y-174104411D01*
X61033010Y-174104414D01*
X60917871Y-174192763D01*
X60917866Y-174192767D01*
X60912718Y-174196718D01*
X60908767Y-174201866D01*
X60908763Y-174201871D01*
X60820414Y-174317010D01*
X60820411Y-174317015D01*
X60816464Y-174322159D01*
X60813982Y-174328149D01*
X60813980Y-174328154D01*
X60799411Y-174363328D01*
X60755956Y-174468238D01*
X60755109Y-174474666D01*
X60755108Y-174474673D01*
X60736165Y-174618566D01*
X60735318Y-174625000D01*
X48260500Y-174625000D01*
X48260500Y-169404048D01*
X50530376Y-169404048D01*
X50531880Y-169412578D01*
X50533781Y-169423365D01*
X50533782Y-169423368D01*
X50534000Y-169424602D01*
X50534000Y-169431312D01*
X50536294Y-169437616D01*
X50536515Y-169438869D01*
X50536515Y-169438870D01*
X50537680Y-169445480D01*
X50539919Y-169458172D01*
X50543961Y-169461563D01*
X50546146Y-169464684D01*
X50547952Y-169469645D01*
X50555452Y-169473975D01*
X50558525Y-169475749D01*
X50572658Y-169485644D01*
X50582020Y-169493500D01*
X50587306Y-169493500D01*
X50590973Y-169494482D01*
X50595548Y-169497124D01*
X50604078Y-169495620D01*
X50607572Y-169495004D01*
X50624762Y-169493500D01*
X57049531Y-169493500D01*
X57061554Y-169495620D01*
X57069943Y-169495620D01*
X57072548Y-169497124D01*
X57093102Y-169493500D01*
X57099812Y-169493500D01*
X57106116Y-169491205D01*
X57126672Y-169487581D01*
X57130065Y-169483536D01*
X57133181Y-169481353D01*
X57138145Y-169479548D01*
X57144251Y-169468970D01*
X57154148Y-169454836D01*
X57162000Y-169445480D01*
X57162000Y-169440192D01*
X57162981Y-169436528D01*
X57165624Y-169431952D01*
X57163504Y-169419928D01*
X57162000Y-169402738D01*
X57162000Y-167295969D01*
X57164120Y-167283946D01*
X57164120Y-167275557D01*
X57165624Y-167272952D01*
X57162000Y-167252398D01*
X57162000Y-167245688D01*
X57159705Y-167239383D01*
X57156081Y-167218828D01*
X57152035Y-167215433D01*
X57149853Y-167212316D01*
X57148048Y-167207355D01*
X57137469Y-167201247D01*
X57123334Y-167191349D01*
X57120614Y-167189066D01*
X57120611Y-167189064D01*
X57113980Y-167183500D01*
X57108701Y-167183500D01*
X57105022Y-167182514D01*
X57100452Y-167179876D01*
X57091922Y-167181380D01*
X57088428Y-167181996D01*
X57071238Y-167183500D01*
X50646469Y-167183500D01*
X50634446Y-167181380D01*
X50626057Y-167181380D01*
X50623452Y-167179876D01*
X50614922Y-167181380D01*
X50604136Y-167183281D01*
X50604133Y-167183282D01*
X50602898Y-167183500D01*
X50596188Y-167183500D01*
X50589883Y-167185794D01*
X50588635Y-167186014D01*
X50577861Y-167187914D01*
X50577860Y-167187914D01*
X50569328Y-167189419D01*
X50565932Y-167193465D01*
X50562819Y-167195645D01*
X50557855Y-167197452D01*
X50553525Y-167204950D01*
X50553520Y-167204957D01*
X50551743Y-167208035D01*
X50541855Y-167222158D01*
X50539566Y-167224885D01*
X50539563Y-167224889D01*
X50534000Y-167231520D01*
X50534000Y-167236803D01*
X50533016Y-167240475D01*
X50530376Y-167245048D01*
X50532188Y-167255325D01*
X50532496Y-167257072D01*
X50534000Y-167274262D01*
X50534000Y-169381031D01*
X50531880Y-169393054D01*
X50531880Y-169401443D01*
X50530376Y-169404048D01*
X48260500Y-169404048D01*
X48260500Y-161115000D01*
X51955318Y-161115000D01*
X51956165Y-161121434D01*
X51975108Y-161265326D01*
X51975109Y-161265331D01*
X51975956Y-161271762D01*
X51978439Y-161277758D01*
X51978440Y-161277759D01*
X52030861Y-161404316D01*
X52036464Y-161417841D01*
X52040413Y-161422988D01*
X52040414Y-161422989D01*
X52111164Y-161515193D01*
X52132718Y-161543282D01*
X52258159Y-161639536D01*
X52404238Y-161700044D01*
X52561000Y-161720682D01*
X52717762Y-161700044D01*
X52863841Y-161639536D01*
X52989282Y-161543282D01*
X53085536Y-161417841D01*
X53146044Y-161271762D01*
X53166682Y-161115000D01*
X53146044Y-160958238D01*
X53085536Y-160812159D01*
X52989282Y-160686718D01*
X52918442Y-160632361D01*
X52868989Y-160594414D01*
X52868988Y-160594413D01*
X52863841Y-160590464D01*
X52857847Y-160587981D01*
X52857845Y-160587980D01*
X52723759Y-160532440D01*
X52723758Y-160532439D01*
X52717762Y-160529956D01*
X52711331Y-160529109D01*
X52711326Y-160529108D01*
X52567434Y-160510165D01*
X52561000Y-160509318D01*
X52554566Y-160510165D01*
X52410673Y-160529108D01*
X52410666Y-160529109D01*
X52404238Y-160529956D01*
X52398243Y-160532439D01*
X52398240Y-160532440D01*
X52264154Y-160587980D01*
X52264149Y-160587982D01*
X52258159Y-160590464D01*
X52253015Y-160594411D01*
X52253010Y-160594414D01*
X52137871Y-160682763D01*
X52137866Y-160682767D01*
X52132718Y-160686718D01*
X52128767Y-160691866D01*
X52128763Y-160691871D01*
X52040414Y-160807010D01*
X52040411Y-160807015D01*
X52036464Y-160812159D01*
X52033982Y-160818149D01*
X52033980Y-160818154D01*
X51978440Y-160952240D01*
X51975956Y-160958238D01*
X51975109Y-160964666D01*
X51975108Y-160964673D01*
X51965718Y-161036000D01*
X51955318Y-161115000D01*
X48260500Y-161115000D01*
X48260500Y-153115000D01*
X51955318Y-153115000D01*
X51956165Y-153121434D01*
X51975108Y-153265326D01*
X51975109Y-153265331D01*
X51975956Y-153271762D01*
X51978439Y-153277758D01*
X51978440Y-153277759D01*
X52004117Y-153339750D01*
X52036464Y-153417841D01*
X52040413Y-153422988D01*
X52040414Y-153422989D01*
X52126614Y-153535328D01*
X52132718Y-153543282D01*
X52258159Y-153639536D01*
X52404238Y-153700044D01*
X52561000Y-153720682D01*
X52717762Y-153700044D01*
X52863841Y-153639536D01*
X52989282Y-153543282D01*
X53085536Y-153417841D01*
X53146044Y-153271762D01*
X53166682Y-153115000D01*
X53146044Y-152958238D01*
X53085536Y-152812159D01*
X52989282Y-152686718D01*
X52870818Y-152595818D01*
X52868989Y-152594414D01*
X52868988Y-152594413D01*
X52863841Y-152590464D01*
X52857847Y-152587981D01*
X52857845Y-152587980D01*
X52723759Y-152532440D01*
X52723758Y-152532439D01*
X52717762Y-152529956D01*
X52711331Y-152529109D01*
X52711326Y-152529108D01*
X52567434Y-152510165D01*
X52561000Y-152509318D01*
X52554566Y-152510165D01*
X52410673Y-152529108D01*
X52410666Y-152529109D01*
X52404238Y-152529956D01*
X52398243Y-152532439D01*
X52398240Y-152532440D01*
X52264154Y-152587980D01*
X52264149Y-152587982D01*
X52258159Y-152590464D01*
X52253015Y-152594411D01*
X52253010Y-152594414D01*
X52137871Y-152682763D01*
X52137866Y-152682767D01*
X52132718Y-152686718D01*
X52128767Y-152691866D01*
X52128763Y-152691871D01*
X52040414Y-152807010D01*
X52040411Y-152807015D01*
X52036464Y-152812159D01*
X52033982Y-152818149D01*
X52033980Y-152818154D01*
X51978440Y-152952240D01*
X51975956Y-152958238D01*
X51975109Y-152964666D01*
X51975108Y-152964673D01*
X51959062Y-153086563D01*
X51955318Y-153115000D01*
X48260500Y-153115000D01*
X48260500Y-134366000D01*
X49813318Y-134366000D01*
X49814165Y-134372434D01*
X49814165Y-134372436D01*
X49815959Y-134386065D01*
X49816792Y-134400635D01*
X49816784Y-134401103D01*
X49816784Y-134401112D01*
X49816726Y-134404603D01*
X49817157Y-134408054D01*
X49817158Y-134408065D01*
X49913250Y-135176797D01*
X49913251Y-135176803D01*
X49913806Y-135181240D01*
X49915151Y-135185511D01*
X49916106Y-135189885D01*
X49915228Y-135190076D01*
X49918500Y-135211365D01*
X49918500Y-148398546D01*
X49916237Y-148419592D01*
X49916146Y-148420005D01*
X49916145Y-148420010D01*
X49914641Y-148426927D01*
X49915146Y-148433988D01*
X49915146Y-148433990D01*
X49918248Y-148477356D01*
X49918500Y-148484419D01*
X49918500Y-148498799D01*
X49919000Y-148502283D01*
X49919002Y-148502299D01*
X49920547Y-148513042D01*
X49921302Y-148520063D01*
X49924909Y-148570483D01*
X49927380Y-148577111D01*
X49927382Y-148577116D01*
X49927533Y-148577520D01*
X49932764Y-148598014D01*
X49932825Y-148598443D01*
X49932827Y-148598452D01*
X49933835Y-148605457D01*
X49936775Y-148611896D01*
X49936776Y-148611897D01*
X49954835Y-148651441D01*
X49957539Y-148657970D01*
X49972730Y-148698700D01*
X49972732Y-148698704D01*
X49975204Y-148705331D01*
X49979442Y-148710992D01*
X49979444Y-148710996D01*
X49979706Y-148711345D01*
X49990504Y-148729544D01*
X49993623Y-148736373D01*
X50026728Y-148774578D01*
X50031147Y-148780062D01*
X50039779Y-148791593D01*
X50042273Y-148794087D01*
X50042274Y-148794088D01*
X50049961Y-148801775D01*
X50054776Y-148806948D01*
X50087872Y-148845143D01*
X50094186Y-148849201D01*
X50110666Y-148862480D01*
X58446329Y-157198143D01*
X58461789Y-157218178D01*
X58937176Y-158031258D01*
X58947478Y-158056128D01*
X59186266Y-158967221D01*
X59189500Y-158992320D01*
X59189500Y-164984678D01*
X59186266Y-165009777D01*
X58954899Y-165892562D01*
X58939468Y-165951438D01*
X58939126Y-165955858D01*
X58938390Y-165960233D01*
X58938097Y-165960183D01*
X58933937Y-165979991D01*
X58906467Y-166058496D01*
X58906463Y-166058509D01*
X58904632Y-166063745D01*
X58904010Y-166069257D01*
X58904009Y-166069266D01*
X58886036Y-166228784D01*
X58884435Y-166243000D01*
X58885057Y-166248520D01*
X58904009Y-166416732D01*
X58904010Y-166416738D01*
X58904632Y-166422255D01*
X58964211Y-166592522D01*
X59060184Y-166745262D01*
X59187738Y-166872816D01*
X59340478Y-166968789D01*
X59510745Y-167028368D01*
X59690000Y-167048565D01*
X59869255Y-167028368D01*
X60039522Y-166968789D01*
X60192262Y-166872816D01*
X60319816Y-166745262D01*
X60415789Y-166592522D01*
X60475368Y-166422255D01*
X60495565Y-166243000D01*
X60475368Y-166063745D01*
X60446060Y-165979991D01*
X60441906Y-165960186D01*
X60441610Y-165960236D01*
X60440872Y-165955855D01*
X60440531Y-165951435D01*
X60204192Y-165049681D01*
X60193734Y-165009779D01*
X60190500Y-164984680D01*
X60190500Y-158992319D01*
X60193734Y-158967220D01*
X60220405Y-158865454D01*
X60440531Y-158025563D01*
X60440872Y-158021141D01*
X60441610Y-158016762D01*
X60441906Y-158016811D01*
X60446059Y-157997009D01*
X60475368Y-157913255D01*
X60495565Y-157734000D01*
X60475368Y-157554745D01*
X60415789Y-157384478D01*
X60319816Y-157231738D01*
X60192262Y-157104184D01*
X60048401Y-157013790D01*
X60044227Y-157011167D01*
X60044224Y-157011165D01*
X60039522Y-157008211D01*
X60032920Y-157005900D01*
X60014868Y-156996558D01*
X60014537Y-156997126D01*
X59174178Y-156505789D01*
X59154143Y-156490329D01*
X50948496Y-148284682D01*
X50927036Y-148252564D01*
X50919500Y-148214678D01*
X50919500Y-137541000D01*
X51130367Y-137541000D01*
X51131375Y-137548011D01*
X51147794Y-137662213D01*
X51147795Y-137662217D01*
X51148803Y-137669226D01*
X51151744Y-137675666D01*
X51153740Y-137682463D01*
X51153678Y-137682480D01*
X51158217Y-137697276D01*
X51158321Y-137698604D01*
X51159439Y-137702872D01*
X51159441Y-137702880D01*
X51256766Y-138074221D01*
X51260000Y-138099320D01*
X51260000Y-145673966D01*
X51259623Y-145682594D01*
X51256236Y-145721307D01*
X51262185Y-145743509D01*
X51266295Y-145758849D01*
X51268164Y-145767278D01*
X51273407Y-145797015D01*
X51273408Y-145797019D01*
X51274912Y-145805545D01*
X51279241Y-145813044D01*
X51281239Y-145818531D01*
X51283704Y-145823817D01*
X51285946Y-145832184D01*
X51290914Y-145839279D01*
X51290915Y-145839281D01*
X51308232Y-145864012D01*
X51312871Y-145871293D01*
X51332306Y-145904955D01*
X51350729Y-145920414D01*
X51362070Y-145929930D01*
X51368438Y-145935764D01*
X67035539Y-161602866D01*
X67061091Y-161646985D01*
X67061301Y-161697969D01*
X67010940Y-161890123D01*
X67010938Y-161890129D01*
X67009821Y-161894395D01*
X67009717Y-161895724D01*
X67005178Y-161910523D01*
X67005239Y-161910541D01*
X67003244Y-161917333D01*
X67000303Y-161923774D01*
X66999296Y-161930776D01*
X66999294Y-161930784D01*
X66986641Y-162018795D01*
X66981867Y-162052000D01*
X66982875Y-162059011D01*
X66999294Y-162173212D01*
X66999295Y-162173215D01*
X67000303Y-162180226D01*
X67054118Y-162298063D01*
X67138951Y-162395967D01*
X67247931Y-162466004D01*
X67372228Y-162502500D01*
X67494694Y-162502500D01*
X67501772Y-162502500D01*
X67626069Y-162466004D01*
X67735049Y-162395967D01*
X67819882Y-162298063D01*
X67873697Y-162180226D01*
X67892133Y-162052000D01*
X67886808Y-162014967D01*
X67874705Y-161930785D01*
X67874705Y-161930784D01*
X67873697Y-161923774D01*
X67870754Y-161917331D01*
X67868760Y-161910538D01*
X67868821Y-161910520D01*
X67864280Y-161895718D01*
X67864178Y-161894396D01*
X67766855Y-161523060D01*
X67766004Y-161518150D01*
X67766263Y-161515193D01*
X67756201Y-161477642D01*
X67754335Y-161469224D01*
X67750946Y-161450004D01*
X67747588Y-161430955D01*
X67743255Y-161423450D01*
X67741259Y-161417967D01*
X67738796Y-161412685D01*
X67736554Y-161404316D01*
X67714264Y-161372483D01*
X67709626Y-161365202D01*
X67694524Y-161339044D01*
X67694522Y-161339042D01*
X67690194Y-161331545D01*
X67660424Y-161306564D01*
X67654066Y-161300739D01*
X55451326Y-149098000D01*
X57456867Y-149098000D01*
X57457875Y-149105011D01*
X57474294Y-149219212D01*
X57474295Y-149219215D01*
X57475303Y-149226226D01*
X57478245Y-149232668D01*
X57478246Y-149232671D01*
X57501679Y-149283982D01*
X57529118Y-149344063D01*
X57533752Y-149349411D01*
X57608786Y-149436007D01*
X57613951Y-149441967D01*
X57722931Y-149512004D01*
X57726351Y-149513008D01*
X57730004Y-149514988D01*
X57732454Y-149516882D01*
X57736547Y-149518972D01*
X57736550Y-149518974D01*
X57854912Y-149579417D01*
X58073005Y-149690789D01*
X58097982Y-149708953D01*
X64691646Y-156302617D01*
X64695117Y-156306606D01*
X64697792Y-156311978D01*
X64704568Y-156318155D01*
X64732474Y-156343595D01*
X64735781Y-156346752D01*
X64748953Y-156359924D01*
X64752723Y-156362507D01*
X64756246Y-156365432D01*
X64756112Y-156365593D01*
X64759789Y-156368496D01*
X64780817Y-156387666D01*
X64789979Y-156391215D01*
X64810165Y-156401855D01*
X64818270Y-156407407D01*
X64845969Y-156413922D01*
X64859046Y-156417972D01*
X64885577Y-156428250D01*
X64894750Y-156428250D01*
X64903768Y-156429936D01*
X64903571Y-156430989D01*
X64916734Y-156433068D01*
X65280511Y-156550902D01*
X65292792Y-156552473D01*
X65308121Y-156555682D01*
X65384978Y-156578250D01*
X65507444Y-156578250D01*
X65514522Y-156578250D01*
X65638819Y-156541754D01*
X65747799Y-156471717D01*
X65832632Y-156373813D01*
X65886447Y-156255976D01*
X65904883Y-156127750D01*
X65886447Y-155999524D01*
X65832632Y-155881687D01*
X65747799Y-155783783D01*
X65741841Y-155779954D01*
X65644776Y-155717574D01*
X65644774Y-155717573D01*
X65638819Y-155713746D01*
X65632025Y-155711751D01*
X65521313Y-155679244D01*
X65514522Y-155677250D01*
X65384978Y-155677250D01*
X65378188Y-155679243D01*
X65378185Y-155679244D01*
X65308120Y-155699816D01*
X65292803Y-155703024D01*
X65285089Y-155704011D01*
X65285076Y-155704013D01*
X65280512Y-155704598D01*
X65276129Y-155706017D01*
X65276123Y-155706019D01*
X65083664Y-155768360D01*
X65030002Y-155770432D01*
X64983153Y-155744182D01*
X64965805Y-155726834D01*
X64940336Y-155683021D01*
X64939884Y-155632346D01*
X64964567Y-155588087D01*
X65007918Y-155561840D01*
X65130819Y-155525754D01*
X65239799Y-155455717D01*
X65324632Y-155357813D01*
X65378447Y-155239976D01*
X65396883Y-155111750D01*
X65378447Y-154983524D01*
X65373160Y-154971947D01*
X65367299Y-154951399D01*
X65366495Y-154951580D01*
X65365485Y-154947074D01*
X65364902Y-154942511D01*
X65247068Y-154578734D01*
X65242250Y-154548227D01*
X65242250Y-153350287D01*
X65256109Y-153299770D01*
X65293804Y-153263397D01*
X65344783Y-153251350D01*
X65394773Y-153267003D01*
X65451181Y-153303254D01*
X65575478Y-153339750D01*
X65697944Y-153339750D01*
X65705022Y-153339750D01*
X65829319Y-153303254D01*
X65938299Y-153233217D01*
X66023132Y-153135313D01*
X66040651Y-153096949D01*
X66052384Y-153077522D01*
X66059133Y-153068793D01*
X66233038Y-152728243D01*
X66251199Y-152703270D01*
X68246874Y-150707595D01*
X68250853Y-150704133D01*
X68256228Y-150701458D01*
X68287878Y-150666738D01*
X68290996Y-150663473D01*
X68304174Y-150650297D01*
X68306762Y-150646517D01*
X68309688Y-150642995D01*
X68309858Y-150643136D01*
X68312749Y-150639457D01*
X68331916Y-150618433D01*
X68331915Y-150618433D01*
X68331918Y-150618431D01*
X68332566Y-150619022D01*
X68362125Y-150591057D01*
X68411327Y-150579003D01*
X68460051Y-150592865D01*
X68495539Y-150629014D01*
X68508500Y-150677986D01*
X68508500Y-165049680D01*
X68505266Y-165074779D01*
X68407940Y-165446123D01*
X68407938Y-165446129D01*
X68406821Y-165450395D01*
X68406717Y-165451724D01*
X68402178Y-165466523D01*
X68402239Y-165466541D01*
X68400244Y-165473333D01*
X68397303Y-165479774D01*
X68396296Y-165486776D01*
X68396294Y-165486784D01*
X68379875Y-165600989D01*
X68378867Y-165608000D01*
X68379875Y-165615011D01*
X68396294Y-165729212D01*
X68396295Y-165729215D01*
X68397303Y-165736226D01*
X68400245Y-165742668D01*
X68400246Y-165742671D01*
X68446693Y-165844374D01*
X68455388Y-165892562D01*
X68439924Y-165939023D01*
X68404086Y-165972390D01*
X68356640Y-165984500D01*
X66536835Y-165984500D01*
X66498949Y-165976964D01*
X66466831Y-165955504D01*
X65505496Y-164994170D01*
X65484036Y-164962052D01*
X65476500Y-164924166D01*
X65476500Y-163499318D01*
X65479734Y-163474219D01*
X65578178Y-163098603D01*
X65578280Y-163097282D01*
X65582821Y-163082478D01*
X65582760Y-163082460D01*
X65584753Y-163075670D01*
X65587697Y-163069226D01*
X65606133Y-162941000D01*
X65587697Y-162812774D01*
X65533882Y-162694937D01*
X65449049Y-162597033D01*
X65340069Y-162526996D01*
X65333275Y-162525001D01*
X65222563Y-162492494D01*
X65215772Y-162490500D01*
X65086228Y-162490500D01*
X65079437Y-162492493D01*
X65079436Y-162492494D01*
X64968724Y-162525001D01*
X64968721Y-162525002D01*
X64961931Y-162526996D01*
X64955978Y-162530821D01*
X64955973Y-162530824D01*
X64858908Y-162593204D01*
X64858904Y-162593206D01*
X64852951Y-162597033D01*
X64848319Y-162602378D01*
X64848315Y-162602382D01*
X64772752Y-162689588D01*
X64772749Y-162689591D01*
X64768118Y-162694937D01*
X64765179Y-162701372D01*
X64765176Y-162701377D01*
X64717246Y-162806328D01*
X64717244Y-162806333D01*
X64714303Y-162812774D01*
X64713295Y-162819782D01*
X64713294Y-162819787D01*
X64696875Y-162933989D01*
X64695867Y-162941000D01*
X64696875Y-162948011D01*
X64713294Y-163062213D01*
X64713295Y-163062217D01*
X64714303Y-163069226D01*
X64717244Y-163075666D01*
X64719240Y-163082463D01*
X64719178Y-163082480D01*
X64723717Y-163097276D01*
X64723821Y-163098604D01*
X64724939Y-163102872D01*
X64724941Y-163102880D01*
X64822266Y-163474221D01*
X64825500Y-163499320D01*
X64825500Y-165081466D01*
X64825123Y-165090094D01*
X64821736Y-165128807D01*
X64823977Y-165137170D01*
X64831795Y-165166349D01*
X64833664Y-165174778D01*
X64838907Y-165204515D01*
X64838908Y-165204519D01*
X64840412Y-165213045D01*
X64844741Y-165220544D01*
X64846739Y-165226031D01*
X64849204Y-165231317D01*
X64851446Y-165239684D01*
X64856414Y-165246779D01*
X64856415Y-165246781D01*
X64873732Y-165271512D01*
X64878371Y-165278793D01*
X64897806Y-165312455D01*
X64904443Y-165318024D01*
X64927570Y-165337430D01*
X64933938Y-165343264D01*
X66117741Y-166527068D01*
X66123575Y-166533436D01*
X66142977Y-166556559D01*
X66142978Y-166556560D01*
X66148545Y-166563194D01*
X66156047Y-166567525D01*
X66182201Y-166582625D01*
X66189480Y-166587261D01*
X66221316Y-166609553D01*
X66229687Y-166611796D01*
X66234984Y-166614266D01*
X66240451Y-166616255D01*
X66247955Y-166620588D01*
X66286234Y-166627337D01*
X66294663Y-166629206D01*
X66332193Y-166639263D01*
X66370896Y-166635877D01*
X66379525Y-166635500D01*
X72812466Y-166635500D01*
X72821095Y-166635877D01*
X72851177Y-166638509D01*
X72851177Y-166638508D01*
X72859807Y-166639264D01*
X72897354Y-166629202D01*
X72905777Y-166627335D01*
X72944045Y-166620588D01*
X72951548Y-166616255D01*
X72957027Y-166614261D01*
X72962311Y-166611796D01*
X72970684Y-166609554D01*
X73002533Y-166587251D01*
X73009779Y-166582635D01*
X73043455Y-166563194D01*
X73068437Y-166533420D01*
X73074259Y-166527065D01*
X73571498Y-166029828D01*
X73622186Y-166002735D01*
X73679386Y-166008369D01*
X73723816Y-166044832D01*
X73740500Y-166099833D01*
X73740500Y-169125520D01*
X73732964Y-169163406D01*
X73711504Y-169195524D01*
X71813984Y-171093043D01*
X71789005Y-171111208D01*
X71452545Y-171283027D01*
X71452538Y-171283031D01*
X71448452Y-171285118D01*
X71446002Y-171287011D01*
X71442349Y-171288991D01*
X71438931Y-171289996D01*
X71432984Y-171293817D01*
X71432979Y-171293820D01*
X71335908Y-171356204D01*
X71335904Y-171356206D01*
X71329951Y-171360033D01*
X71325319Y-171365378D01*
X71325315Y-171365382D01*
X71249752Y-171452588D01*
X71249749Y-171452591D01*
X71245118Y-171457937D01*
X71242179Y-171464372D01*
X71242176Y-171464377D01*
X71194246Y-171569328D01*
X71194244Y-171569333D01*
X71191303Y-171575774D01*
X71190295Y-171582782D01*
X71190294Y-171582787D01*
X71177899Y-171669001D01*
X71172867Y-171704000D01*
X71173875Y-171711011D01*
X71190294Y-171825212D01*
X71190295Y-171825215D01*
X71191303Y-171832226D01*
X71194245Y-171838668D01*
X71194246Y-171838671D01*
X71242175Y-171943620D01*
X71245118Y-171950063D01*
X71329951Y-172047967D01*
X71438931Y-172118004D01*
X71563228Y-172154500D01*
X71685694Y-172154500D01*
X71692772Y-172154500D01*
X71817069Y-172118004D01*
X71926049Y-172047967D01*
X72010882Y-171950063D01*
X72028401Y-171911699D01*
X72040134Y-171892272D01*
X72046883Y-171883543D01*
X72220788Y-171542993D01*
X72238949Y-171518020D01*
X74215874Y-169541095D01*
X74219853Y-169537633D01*
X74225228Y-169534958D01*
X74256878Y-169500238D01*
X74259996Y-169496973D01*
X74273174Y-169483797D01*
X74275762Y-169480017D01*
X74278688Y-169476495D01*
X74278858Y-169476636D01*
X74281749Y-169472957D01*
X74300916Y-169451933D01*
X74304465Y-169442770D01*
X74315108Y-169422580D01*
X74315472Y-169422048D01*
X74320656Y-169414481D01*
X74327166Y-169386798D01*
X74331222Y-169373701D01*
X74341500Y-169347173D01*
X74341500Y-169337348D01*
X74344130Y-169314682D01*
X74344185Y-169314446D01*
X74346379Y-169305119D01*
X74342448Y-169276946D01*
X74341500Y-169263269D01*
X74341500Y-165663523D01*
X74346318Y-165633016D01*
X74356692Y-165600989D01*
X74464152Y-165269238D01*
X74464738Y-165264656D01*
X74465742Y-165260174D01*
X74466554Y-165260355D01*
X74472409Y-165239804D01*
X74477697Y-165228226D01*
X74496133Y-165100000D01*
X74477697Y-164971774D01*
X74423882Y-164853937D01*
X74339049Y-164756033D01*
X74230069Y-164685996D01*
X74223275Y-164684001D01*
X74112563Y-164651494D01*
X74105772Y-164649500D01*
X73976228Y-164649500D01*
X73969437Y-164651493D01*
X73969436Y-164651494D01*
X73858724Y-164684001D01*
X73858721Y-164684002D01*
X73851931Y-164685996D01*
X73845978Y-164689821D01*
X73845973Y-164689824D01*
X73748908Y-164752204D01*
X73748904Y-164752206D01*
X73742951Y-164756033D01*
X73738319Y-164761378D01*
X73738315Y-164761382D01*
X73662750Y-164848590D01*
X73662746Y-164848595D01*
X73658118Y-164853937D01*
X73655181Y-164860367D01*
X73655177Y-164860374D01*
X73644645Y-164883435D01*
X73632665Y-164902203D01*
X73632946Y-164902403D01*
X73630372Y-164906019D01*
X73627496Y-164909380D01*
X73625263Y-164913199D01*
X73625261Y-164913202D01*
X73431507Y-165244590D01*
X73416047Y-165264624D01*
X72725170Y-165955503D01*
X72693052Y-165976964D01*
X72655166Y-165984500D01*
X70327360Y-165984500D01*
X70279914Y-165972390D01*
X70244076Y-165939023D01*
X70228612Y-165892562D01*
X70237307Y-165844374D01*
X70245177Y-165827140D01*
X70286697Y-165736226D01*
X70305133Y-165608000D01*
X70286697Y-165479774D01*
X70283754Y-165473331D01*
X70281760Y-165466538D01*
X70281821Y-165466520D01*
X70277280Y-165451718D01*
X70277178Y-165450396D01*
X70202733Y-165166349D01*
X70178734Y-165074780D01*
X70175500Y-165049681D01*
X70175500Y-153670000D01*
X70791867Y-153670000D01*
X70792875Y-153677011D01*
X70809294Y-153791212D01*
X70809295Y-153791215D01*
X70810303Y-153798226D01*
X70813245Y-153804668D01*
X70813246Y-153804671D01*
X70858390Y-153903522D01*
X70864118Y-153916063D01*
X70948951Y-154013967D01*
X71057931Y-154084004D01*
X71061351Y-154085008D01*
X71065004Y-154086988D01*
X71067454Y-154088882D01*
X71071547Y-154090972D01*
X71071550Y-154090974D01*
X71197030Y-154155052D01*
X71408006Y-154262789D01*
X71432983Y-154280954D01*
X71510504Y-154358476D01*
X71531964Y-154390594D01*
X71539500Y-154428479D01*
X71539500Y-159686620D01*
X71539134Y-159691892D01*
X71537227Y-159697583D01*
X71537650Y-159706745D01*
X71537650Y-159706750D01*
X71539394Y-159744460D01*
X71539500Y-159749032D01*
X71539500Y-159767662D01*
X71540342Y-159772169D01*
X71540764Y-159776717D01*
X71540566Y-159776735D01*
X71541101Y-159781394D01*
X71542415Y-159809810D01*
X71546385Y-159818802D01*
X71553132Y-159840590D01*
X71554939Y-159850251D01*
X71559766Y-159858048D01*
X71559767Y-159858049D01*
X71569911Y-159874433D01*
X71576300Y-159886554D01*
X71587794Y-159912583D01*
X71594278Y-159919067D01*
X71594743Y-159919532D01*
X71608908Y-159937416D01*
X71614081Y-159945770D01*
X71621403Y-159951299D01*
X71636772Y-159962905D01*
X71647116Y-159971905D01*
X72487143Y-160811932D01*
X72509952Y-160847487D01*
X72636608Y-161188728D01*
X72636611Y-161188734D01*
X72637761Y-161191833D01*
X72639312Y-161194747D01*
X72639317Y-161194758D01*
X72655406Y-161224985D01*
X72666981Y-161274060D01*
X72652885Y-161322471D01*
X72616773Y-161357660D01*
X72568014Y-161370500D01*
X72039121Y-161370500D01*
X72008613Y-161365682D01*
X71903366Y-161331590D01*
X71903365Y-161331590D01*
X71903365Y-161331589D01*
X71903362Y-161331588D01*
X71903358Y-161331586D01*
X71649218Y-161249266D01*
X71649217Y-161249265D01*
X71644837Y-161247847D01*
X71640274Y-161247263D01*
X71640269Y-161247262D01*
X71633680Y-161246419D01*
X71632549Y-161246274D01*
X71617227Y-161243066D01*
X71547163Y-161222494D01*
X71540372Y-161220500D01*
X71410828Y-161220500D01*
X71404037Y-161222493D01*
X71404036Y-161222494D01*
X71293324Y-161255001D01*
X71293321Y-161255002D01*
X71286531Y-161256996D01*
X71280578Y-161260821D01*
X71280573Y-161260824D01*
X71183508Y-161323204D01*
X71183504Y-161323206D01*
X71177551Y-161327033D01*
X71172919Y-161332378D01*
X71172915Y-161332382D01*
X71097352Y-161419588D01*
X71097349Y-161419591D01*
X71092718Y-161424937D01*
X71089779Y-161431372D01*
X71089776Y-161431377D01*
X71041846Y-161536328D01*
X71041844Y-161536333D01*
X71038903Y-161542774D01*
X71037895Y-161549782D01*
X71037894Y-161549787D01*
X71025559Y-161635585D01*
X71020467Y-161671000D01*
X71021475Y-161678011D01*
X71037894Y-161792212D01*
X71037895Y-161792215D01*
X71038903Y-161799226D01*
X71041845Y-161805668D01*
X71041846Y-161805671D01*
X71089729Y-161910520D01*
X71092718Y-161917063D01*
X71097352Y-161922411D01*
X71140709Y-161972449D01*
X71177551Y-162014967D01*
X71286531Y-162085004D01*
X71410828Y-162121500D01*
X71533295Y-162121500D01*
X71540372Y-162121500D01*
X71617231Y-162098932D01*
X71632558Y-162095723D01*
X71640265Y-162094737D01*
X71640264Y-162094737D01*
X71644838Y-162094152D01*
X72008615Y-161976318D01*
X72039123Y-161971500D01*
X74241802Y-161971500D01*
X74247074Y-161971865D01*
X74252765Y-161973773D01*
X74299641Y-161971606D01*
X74304214Y-161971500D01*
X74318265Y-161971500D01*
X74322844Y-161971500D01*
X74327344Y-161970658D01*
X74331907Y-161970235D01*
X74331926Y-161970446D01*
X74336572Y-161969898D01*
X74364992Y-161968585D01*
X74373980Y-161964615D01*
X74395778Y-161957865D01*
X74405433Y-161956061D01*
X74429617Y-161941086D01*
X74441738Y-161934698D01*
X74450602Y-161930784D01*
X74467765Y-161923206D01*
X74474713Y-161916257D01*
X74492596Y-161902092D01*
X74500952Y-161896919D01*
X74518096Y-161874215D01*
X74527082Y-161863887D01*
X74744021Y-161646948D01*
X74768998Y-161628786D01*
X75105429Y-161456984D01*
X75105430Y-161456983D01*
X75109543Y-161454883D01*
X75111992Y-161452988D01*
X75115645Y-161451008D01*
X75119069Y-161450004D01*
X75228049Y-161379967D01*
X75312882Y-161282063D01*
X75366697Y-161164226D01*
X75385133Y-161036000D01*
X75366697Y-160907774D01*
X75312882Y-160789937D01*
X75228049Y-160692033D01*
X75140670Y-160635878D01*
X75125026Y-160625824D01*
X75125024Y-160625823D01*
X75119069Y-160621996D01*
X75112275Y-160620001D01*
X75001563Y-160587494D01*
X74994772Y-160585500D01*
X74865228Y-160585500D01*
X74858437Y-160587493D01*
X74858436Y-160587494D01*
X74747724Y-160620001D01*
X74747721Y-160620002D01*
X74740931Y-160621996D01*
X74734978Y-160625821D01*
X74734973Y-160625824D01*
X74637908Y-160688204D01*
X74637904Y-160688206D01*
X74631951Y-160692033D01*
X74627319Y-160697378D01*
X74627315Y-160697382D01*
X74551753Y-160784587D01*
X74551750Y-160784590D01*
X74547118Y-160789937D01*
X74544177Y-160796375D01*
X74544176Y-160796378D01*
X74529600Y-160828293D01*
X74517875Y-160847711D01*
X74513933Y-160852810D01*
X74513930Y-160852814D01*
X74511118Y-160856452D01*
X74509029Y-160860542D01*
X74509025Y-160860549D01*
X74337206Y-161197008D01*
X74319041Y-161221986D01*
X74199526Y-161341503D01*
X74167408Y-161362964D01*
X74129522Y-161370500D01*
X73562141Y-161370500D01*
X73514695Y-161358390D01*
X73478857Y-161325023D01*
X73463393Y-161278562D01*
X73472088Y-161230374D01*
X73480967Y-161210931D01*
X73502297Y-161164226D01*
X73520733Y-161036000D01*
X73502297Y-160907774D01*
X73448482Y-160789937D01*
X73363649Y-160692033D01*
X73357697Y-160688208D01*
X73357695Y-160688206D01*
X73276272Y-160635878D01*
X73269075Y-160630741D01*
X73266312Y-160628142D01*
X73209139Y-160590464D01*
X72946113Y-160417124D01*
X72946394Y-160416697D01*
X72928467Y-160403314D01*
X72169496Y-159644343D01*
X72148036Y-159612225D01*
X72140500Y-159574339D01*
X72140500Y-158643508D01*
X72158857Y-158586083D01*
X72207120Y-158549953D01*
X72267391Y-158548518D01*
X72325228Y-158565500D01*
X72447694Y-158565500D01*
X72454772Y-158565500D01*
X72579069Y-158529004D01*
X72688049Y-158458967D01*
X72772882Y-158361063D01*
X72826697Y-158243226D01*
X72845133Y-158115000D01*
X72826697Y-157986774D01*
X72821410Y-157975197D01*
X72815549Y-157954649D01*
X72814745Y-157954830D01*
X72813735Y-157950324D01*
X72813152Y-157945761D01*
X72695318Y-157581984D01*
X72690500Y-157551477D01*
X72690500Y-145415000D01*
X75109867Y-145415000D01*
X75110875Y-145422011D01*
X75127294Y-145536212D01*
X75127295Y-145536215D01*
X75128303Y-145543226D01*
X75131245Y-145549668D01*
X75131246Y-145549671D01*
X75178590Y-145653339D01*
X75182118Y-145661063D01*
X75186752Y-145666411D01*
X75261883Y-145753119D01*
X75266951Y-145758967D01*
X75375931Y-145829004D01*
X75500228Y-145865500D01*
X75622694Y-145865500D01*
X75629772Y-145865500D01*
X75694472Y-145846502D01*
X75714694Y-145842791D01*
X75722603Y-145842178D01*
X76098219Y-145743733D01*
X76123318Y-145740500D01*
X78213466Y-145740500D01*
X78222095Y-145740877D01*
X78252177Y-145743509D01*
X78252177Y-145743508D01*
X78260807Y-145744264D01*
X78298354Y-145734202D01*
X78306777Y-145732335D01*
X78345045Y-145725588D01*
X78352548Y-145721255D01*
X78358027Y-145719261D01*
X78363311Y-145716796D01*
X78371684Y-145714554D01*
X78403533Y-145692251D01*
X78410779Y-145687635D01*
X78444455Y-145668194D01*
X78469442Y-145638414D01*
X78475254Y-145632070D01*
X78702374Y-145404950D01*
X78722400Y-145389497D01*
X79057617Y-145193504D01*
X79057647Y-145193556D01*
X79060566Y-145192496D01*
X79059937Y-145191517D01*
X79062668Y-145189762D01*
X79165049Y-145123967D01*
X79249882Y-145026063D01*
X79303697Y-144908226D01*
X79322133Y-144780000D01*
X79303697Y-144651774D01*
X79249882Y-144533937D01*
X79191453Y-144466505D01*
X79169684Y-144441382D01*
X79169683Y-144441381D01*
X79165049Y-144436033D01*
X79127351Y-144411806D01*
X79062026Y-144369824D01*
X79062024Y-144369823D01*
X79056069Y-144365996D01*
X79049275Y-144364001D01*
X78938563Y-144331494D01*
X78931772Y-144329500D01*
X78802228Y-144329500D01*
X78795437Y-144331493D01*
X78795436Y-144331494D01*
X78684724Y-144364001D01*
X78684721Y-144364002D01*
X78677931Y-144365996D01*
X78671978Y-144369821D01*
X78671973Y-144369824D01*
X78574908Y-144432204D01*
X78574904Y-144432206D01*
X78568951Y-144436033D01*
X78564319Y-144441378D01*
X78564315Y-144441382D01*
X78488750Y-144528590D01*
X78488746Y-144528595D01*
X78484118Y-144533937D01*
X78481181Y-144540367D01*
X78481177Y-144540374D01*
X78470645Y-144563435D01*
X78458665Y-144582203D01*
X78458946Y-144582403D01*
X78456372Y-144586019D01*
X78453496Y-144589380D01*
X78451263Y-144593199D01*
X78451261Y-144593202D01*
X78257505Y-144924593D01*
X78242045Y-144944627D01*
X78126171Y-145060503D01*
X78094053Y-145081964D01*
X78056167Y-145089500D01*
X76123320Y-145089500D01*
X76098221Y-145086266D01*
X75726887Y-144988943D01*
X75726881Y-144988942D01*
X75722604Y-144987821D01*
X75718189Y-144987478D01*
X75718188Y-144987478D01*
X75714683Y-144987206D01*
X75694460Y-144983493D01*
X75636565Y-144966494D01*
X75636561Y-144966493D01*
X75629772Y-144964500D01*
X75500228Y-144964500D01*
X75493437Y-144966493D01*
X75493436Y-144966494D01*
X75382724Y-144999001D01*
X75382721Y-144999002D01*
X75375931Y-145000996D01*
X75369978Y-145004821D01*
X75369973Y-145004824D01*
X75272908Y-145067204D01*
X75272904Y-145067206D01*
X75266951Y-145071033D01*
X75262319Y-145076378D01*
X75262315Y-145076382D01*
X75186752Y-145163588D01*
X75186749Y-145163591D01*
X75182118Y-145168937D01*
X75179179Y-145175372D01*
X75179176Y-145175377D01*
X75131246Y-145280328D01*
X75131244Y-145280333D01*
X75128303Y-145286774D01*
X75127295Y-145293782D01*
X75127294Y-145293787D01*
X75114899Y-145380001D01*
X75109867Y-145415000D01*
X72690500Y-145415000D01*
X72690500Y-144835523D01*
X72695318Y-144805016D01*
X72720347Y-144727745D01*
X72813152Y-144441238D01*
X72813738Y-144436656D01*
X72814742Y-144432174D01*
X72815554Y-144432355D01*
X72821409Y-144411804D01*
X72826697Y-144400226D01*
X72845133Y-144272000D01*
X72826697Y-144143774D01*
X72772882Y-144025937D01*
X72688049Y-143928033D01*
X72632332Y-143892226D01*
X72585026Y-143861824D01*
X72585024Y-143861823D01*
X72579069Y-143857996D01*
X72572275Y-143856001D01*
X72461563Y-143823494D01*
X72454772Y-143821500D01*
X72325228Y-143821500D01*
X72318437Y-143823493D01*
X72318436Y-143823494D01*
X72207724Y-143856001D01*
X72207721Y-143856002D01*
X72200931Y-143857996D01*
X72194978Y-143861821D01*
X72194973Y-143861824D01*
X72097908Y-143924204D01*
X72097904Y-143924206D01*
X72091951Y-143928033D01*
X72087319Y-143933378D01*
X72087315Y-143933382D01*
X72011752Y-144020588D01*
X72011749Y-144020591D01*
X72007118Y-144025937D01*
X72004179Y-144032372D01*
X72004176Y-144032377D01*
X71956246Y-144137328D01*
X71956244Y-144137333D01*
X71953303Y-144143774D01*
X71952295Y-144150782D01*
X71952294Y-144150787D01*
X71945158Y-144200423D01*
X71934867Y-144272000D01*
X71935875Y-144279011D01*
X71948888Y-144369523D01*
X71953303Y-144400226D01*
X71956243Y-144406663D01*
X71956244Y-144406666D01*
X71958591Y-144411806D01*
X71964457Y-144432352D01*
X71965256Y-144432174D01*
X71966263Y-144436675D01*
X71966848Y-144441238D01*
X71968265Y-144445614D01*
X71968266Y-144445616D01*
X72084682Y-144805013D01*
X72089500Y-144835521D01*
X72089500Y-153848521D01*
X72072815Y-153903522D01*
X72028386Y-153939985D01*
X71971186Y-153945619D01*
X71920496Y-153918525D01*
X71857953Y-153855982D01*
X71839788Y-153831003D01*
X71783451Y-153720682D01*
X71665883Y-153490456D01*
X71659126Y-153481715D01*
X71647400Y-153462295D01*
X71632823Y-153430377D01*
X71629882Y-153423937D01*
X71545049Y-153326033D01*
X71469933Y-153277759D01*
X71442026Y-153259824D01*
X71442024Y-153259823D01*
X71436069Y-153255996D01*
X71429275Y-153254001D01*
X71318563Y-153221494D01*
X71311772Y-153219500D01*
X71182228Y-153219500D01*
X71175437Y-153221493D01*
X71175436Y-153221494D01*
X71064724Y-153254001D01*
X71064721Y-153254002D01*
X71057931Y-153255996D01*
X71051978Y-153259821D01*
X71051973Y-153259824D01*
X70954908Y-153322204D01*
X70954904Y-153322206D01*
X70948951Y-153326033D01*
X70944319Y-153331378D01*
X70944315Y-153331382D01*
X70868752Y-153418588D01*
X70868749Y-153418591D01*
X70864118Y-153423937D01*
X70861179Y-153430372D01*
X70861176Y-153430377D01*
X70813246Y-153535328D01*
X70813244Y-153535333D01*
X70810303Y-153541774D01*
X70809295Y-153548782D01*
X70809294Y-153548787D01*
X70797017Y-153634182D01*
X70791867Y-153670000D01*
X70175500Y-153670000D01*
X70175500Y-144322318D01*
X70178734Y-144297219D01*
X70179795Y-144293170D01*
X70277178Y-143921603D01*
X70277280Y-143920282D01*
X70281821Y-143905478D01*
X70281760Y-143905460D01*
X70283753Y-143898670D01*
X70286697Y-143892226D01*
X70305133Y-143764000D01*
X70286697Y-143635774D01*
X70232882Y-143517937D01*
X70167511Y-143442494D01*
X70152684Y-143425382D01*
X70152683Y-143425381D01*
X70148049Y-143420033D01*
X70121033Y-143402671D01*
X70045026Y-143353824D01*
X70045024Y-143353823D01*
X70039069Y-143349996D01*
X70032275Y-143348001D01*
X69921563Y-143315494D01*
X69914772Y-143313500D01*
X69785228Y-143313500D01*
X69778437Y-143315493D01*
X69778436Y-143315494D01*
X69667724Y-143348001D01*
X69667721Y-143348002D01*
X69660931Y-143349996D01*
X69654978Y-143353821D01*
X69654973Y-143353824D01*
X69557908Y-143416204D01*
X69557904Y-143416206D01*
X69551951Y-143420033D01*
X69547319Y-143425378D01*
X69547315Y-143425382D01*
X69471752Y-143512588D01*
X69471749Y-143512591D01*
X69467118Y-143517937D01*
X69464179Y-143524372D01*
X69464176Y-143524377D01*
X69416246Y-143629328D01*
X69416244Y-143629333D01*
X69413303Y-143635774D01*
X69412294Y-143642785D01*
X69410301Y-143649577D01*
X69407907Y-143648874D01*
X69393509Y-143682685D01*
X69353629Y-143713301D01*
X69303853Y-143720380D01*
X69257018Y-143702095D01*
X69225206Y-143663164D01*
X69216882Y-143644937D01*
X69132049Y-143547033D01*
X69126091Y-143543204D01*
X69029026Y-143480824D01*
X69029024Y-143480823D01*
X69023069Y-143476996D01*
X69016275Y-143475001D01*
X68905563Y-143442494D01*
X68898772Y-143440500D01*
X68769228Y-143440500D01*
X68762437Y-143442493D01*
X68762436Y-143442494D01*
X68651724Y-143475001D01*
X68651721Y-143475002D01*
X68644931Y-143476996D01*
X68638978Y-143480821D01*
X68638973Y-143480824D01*
X68541908Y-143543204D01*
X68541904Y-143543206D01*
X68535951Y-143547033D01*
X68531319Y-143552378D01*
X68531315Y-143552382D01*
X68455752Y-143639588D01*
X68455749Y-143639591D01*
X68451118Y-143644937D01*
X68448179Y-143651372D01*
X68448176Y-143651377D01*
X68400246Y-143756328D01*
X68400244Y-143756333D01*
X68397303Y-143762774D01*
X68396295Y-143769782D01*
X68396294Y-143769787D01*
X68383899Y-143856001D01*
X68378867Y-143891000D01*
X68379875Y-143898011D01*
X68396294Y-144012213D01*
X68396295Y-144012217D01*
X68397303Y-144019226D01*
X68400244Y-144025666D01*
X68402240Y-144032463D01*
X68402178Y-144032480D01*
X68406717Y-144047276D01*
X68406821Y-144048604D01*
X68407939Y-144052872D01*
X68407941Y-144052880D01*
X68505266Y-144424221D01*
X68508500Y-144449320D01*
X68508500Y-148407705D01*
X68494641Y-148458222D01*
X68456946Y-148494595D01*
X68405967Y-148506642D01*
X68355977Y-148490989D01*
X68267026Y-148433824D01*
X68267024Y-148433823D01*
X68261069Y-148429996D01*
X68254275Y-148428001D01*
X68162602Y-148401084D01*
X68136772Y-148393500D01*
X68007228Y-148393500D01*
X68000437Y-148395493D01*
X68000436Y-148395494D01*
X67889724Y-148428001D01*
X67889721Y-148428002D01*
X67882931Y-148429996D01*
X67876978Y-148433821D01*
X67876973Y-148433824D01*
X67779908Y-148496204D01*
X67779904Y-148496206D01*
X67773951Y-148500033D01*
X67769319Y-148505378D01*
X67769315Y-148505382D01*
X67693752Y-148592588D01*
X67693749Y-148592591D01*
X67689118Y-148597937D01*
X67686179Y-148604372D01*
X67686176Y-148604377D01*
X67638246Y-148709328D01*
X67638244Y-148709333D01*
X67635303Y-148715774D01*
X67634295Y-148722782D01*
X67634294Y-148722787D01*
X67618311Y-148833958D01*
X67616867Y-148844000D01*
X67617875Y-148851011D01*
X67634023Y-148963328D01*
X67635303Y-148972226D01*
X67638244Y-148978666D01*
X67640591Y-148983806D01*
X67646457Y-149004352D01*
X67647256Y-149004174D01*
X67648263Y-149008675D01*
X67648848Y-149013238D01*
X67650265Y-149017614D01*
X67650266Y-149017616D01*
X67766682Y-149377013D01*
X67771500Y-149407521D01*
X67771500Y-150292021D01*
X67763964Y-150329907D01*
X67742504Y-150362025D01*
X65826234Y-152278293D01*
X65801255Y-152296458D01*
X65464795Y-152468277D01*
X65464788Y-152468281D01*
X65460702Y-152470368D01*
X65458252Y-152472261D01*
X65454599Y-152474241D01*
X65451181Y-152475246D01*
X65445234Y-152479067D01*
X65445229Y-152479070D01*
X65394773Y-152511497D01*
X65344783Y-152527150D01*
X65293804Y-152515103D01*
X65256109Y-152478730D01*
X65242250Y-152428213D01*
X65242250Y-150742729D01*
X65249786Y-150704843D01*
X65271246Y-150672726D01*
X66235017Y-149708953D01*
X66259993Y-149690788D01*
X66600543Y-149516883D01*
X66602992Y-149514988D01*
X66606645Y-149513008D01*
X66610069Y-149512004D01*
X66719049Y-149441967D01*
X66803882Y-149344063D01*
X66857697Y-149226226D01*
X66876133Y-149098000D01*
X66857697Y-148969774D01*
X66803882Y-148851937D01*
X66719049Y-148754033D01*
X66699890Y-148741720D01*
X66616026Y-148687824D01*
X66616024Y-148687823D01*
X66610069Y-148683996D01*
X66603275Y-148682001D01*
X66492563Y-148649494D01*
X66485772Y-148647500D01*
X66356228Y-148647500D01*
X66349437Y-148649493D01*
X66349436Y-148649494D01*
X66238724Y-148682001D01*
X66238721Y-148682002D01*
X66231931Y-148683996D01*
X66225978Y-148687821D01*
X66225973Y-148687824D01*
X66128908Y-148750204D01*
X66128904Y-148750206D01*
X66122951Y-148754033D01*
X66118319Y-148759378D01*
X66118315Y-148759382D01*
X66042753Y-148846587D01*
X66042750Y-148846590D01*
X66038118Y-148851937D01*
X66035177Y-148858375D01*
X66035176Y-148858378D01*
X66020600Y-148890293D01*
X66008875Y-148909711D01*
X66004933Y-148914810D01*
X66004930Y-148914814D01*
X66002118Y-148918452D01*
X66000029Y-148922542D01*
X66000025Y-148922549D01*
X65828209Y-149259003D01*
X65810044Y-149283982D01*
X64766881Y-150327146D01*
X64762891Y-150330617D01*
X64757522Y-150333292D01*
X64751345Y-150340067D01*
X64751343Y-150340069D01*
X64725891Y-150367987D01*
X64722740Y-150371287D01*
X64712813Y-150381214D01*
X64712804Y-150381224D01*
X64709576Y-150384453D01*
X64706990Y-150388225D01*
X64704071Y-150391742D01*
X64703928Y-150391623D01*
X64701007Y-150395283D01*
X64688011Y-150409540D01*
X64688009Y-150409542D01*
X64681834Y-150416317D01*
X64678522Y-150424863D01*
X64678520Y-150424868D01*
X64678279Y-150425491D01*
X64667648Y-150445659D01*
X64667280Y-150446196D01*
X64667277Y-150446200D01*
X64662094Y-150453769D01*
X64659994Y-150462696D01*
X64659992Y-150462701D01*
X64655580Y-150481457D01*
X64651527Y-150494545D01*
X64644563Y-150512521D01*
X64644561Y-150512528D01*
X64641250Y-150521077D01*
X64641250Y-150530249D01*
X64641250Y-150530902D01*
X64638620Y-150553568D01*
X64638471Y-150554200D01*
X64638470Y-150554203D01*
X64636371Y-150563131D01*
X64637637Y-150572213D01*
X64637638Y-150572213D01*
X64640301Y-150591303D01*
X64641250Y-150604981D01*
X64641250Y-154548224D01*
X64636431Y-154578731D01*
X64518597Y-154942512D01*
X64518012Y-154947076D01*
X64517005Y-154951577D01*
X64516208Y-154951398D01*
X64510343Y-154971937D01*
X64507995Y-154977079D01*
X64507992Y-154977085D01*
X64505053Y-154983524D01*
X64504045Y-154990531D01*
X64504045Y-154990533D01*
X64497680Y-155034800D01*
X64475652Y-155084195D01*
X64430951Y-155114643D01*
X64376920Y-155117055D01*
X64329684Y-155090713D01*
X58522953Y-149283982D01*
X58504788Y-149259003D01*
X58425525Y-149103787D01*
X58330883Y-148918456D01*
X58324126Y-148909715D01*
X58312400Y-148890295D01*
X58299697Y-148862480D01*
X58294882Y-148851937D01*
X58210049Y-148754033D01*
X58190890Y-148741720D01*
X58107026Y-148687824D01*
X58107024Y-148687823D01*
X58101069Y-148683996D01*
X58094275Y-148682001D01*
X57983563Y-148649494D01*
X57976772Y-148647500D01*
X57847228Y-148647500D01*
X57840437Y-148649493D01*
X57840436Y-148649494D01*
X57729724Y-148682001D01*
X57729721Y-148682002D01*
X57722931Y-148683996D01*
X57716978Y-148687821D01*
X57716973Y-148687824D01*
X57619908Y-148750204D01*
X57619904Y-148750206D01*
X57613951Y-148754033D01*
X57609319Y-148759378D01*
X57609315Y-148759382D01*
X57533752Y-148846588D01*
X57533749Y-148846591D01*
X57529118Y-148851937D01*
X57526179Y-148858372D01*
X57526176Y-148858377D01*
X57478246Y-148963328D01*
X57478244Y-148963333D01*
X57475303Y-148969774D01*
X57474295Y-148976782D01*
X57474294Y-148976787D01*
X57468424Y-149017616D01*
X57456867Y-149098000D01*
X55451326Y-149098000D01*
X51939996Y-145586670D01*
X51918536Y-145554552D01*
X51911000Y-145516666D01*
X51911000Y-139065000D01*
X54535867Y-139065000D01*
X54536875Y-139072011D01*
X54553294Y-139186212D01*
X54553295Y-139186215D01*
X54554303Y-139193226D01*
X54557245Y-139199668D01*
X54557246Y-139199671D01*
X54604041Y-139302137D01*
X54608118Y-139311063D01*
X54612752Y-139316411D01*
X54666356Y-139378275D01*
X54692951Y-139408967D01*
X54801931Y-139479004D01*
X54926228Y-139515500D01*
X55048695Y-139515500D01*
X55055772Y-139515500D01*
X55132631Y-139492932D01*
X55147958Y-139489723D01*
X55155665Y-139488737D01*
X55155664Y-139488737D01*
X55160238Y-139488152D01*
X55524015Y-139370318D01*
X55554523Y-139365500D01*
X66748802Y-139365500D01*
X66754074Y-139365865D01*
X66759765Y-139367773D01*
X66806641Y-139365606D01*
X66811214Y-139365500D01*
X66825265Y-139365500D01*
X66829844Y-139365500D01*
X66834344Y-139364658D01*
X66838907Y-139364235D01*
X66838926Y-139364446D01*
X66843574Y-139363897D01*
X66851000Y-139363554D01*
X66907687Y-139378275D01*
X66946136Y-139422458D01*
X66952886Y-139480638D01*
X66925576Y-139532451D01*
X66452525Y-140005503D01*
X66420407Y-140026964D01*
X66382521Y-140034500D01*
X55681521Y-140034500D01*
X55651013Y-140029682D01*
X55545766Y-139995590D01*
X55545765Y-139995590D01*
X55545765Y-139995589D01*
X55545762Y-139995588D01*
X55545758Y-139995586D01*
X55291618Y-139913266D01*
X55291617Y-139913265D01*
X55287237Y-139911847D01*
X55282674Y-139911263D01*
X55282669Y-139911262D01*
X55276080Y-139910419D01*
X55274949Y-139910274D01*
X55259627Y-139907066D01*
X55189563Y-139886494D01*
X55182772Y-139884500D01*
X55053228Y-139884500D01*
X55046437Y-139886493D01*
X55046436Y-139886494D01*
X54935724Y-139919001D01*
X54935721Y-139919002D01*
X54928931Y-139920996D01*
X54922978Y-139924821D01*
X54922973Y-139924824D01*
X54825908Y-139987204D01*
X54825904Y-139987206D01*
X54819951Y-139991033D01*
X54815319Y-139996378D01*
X54815315Y-139996382D01*
X54739752Y-140083588D01*
X54739749Y-140083591D01*
X54735118Y-140088937D01*
X54732179Y-140095372D01*
X54732176Y-140095377D01*
X54684246Y-140200328D01*
X54684244Y-140200333D01*
X54681303Y-140206774D01*
X54680295Y-140213782D01*
X54680294Y-140213787D01*
X54665687Y-140315384D01*
X54662867Y-140335000D01*
X54663875Y-140342011D01*
X54680294Y-140456212D01*
X54680295Y-140456215D01*
X54681303Y-140463226D01*
X54684245Y-140469668D01*
X54684246Y-140469671D01*
X54731041Y-140572137D01*
X54735118Y-140581063D01*
X54739752Y-140586411D01*
X54783109Y-140636449D01*
X54819951Y-140678967D01*
X54928931Y-140749004D01*
X55053228Y-140785500D01*
X55175695Y-140785500D01*
X55182772Y-140785500D01*
X55259631Y-140762932D01*
X55274958Y-140759723D01*
X55282665Y-140758737D01*
X55282664Y-140758737D01*
X55287238Y-140758152D01*
X55651015Y-140640318D01*
X55681523Y-140635500D01*
X66494802Y-140635500D01*
X66500074Y-140635865D01*
X66505765Y-140637773D01*
X66552641Y-140635606D01*
X66557214Y-140635500D01*
X66571265Y-140635500D01*
X66575844Y-140635500D01*
X66580344Y-140634658D01*
X66584907Y-140634235D01*
X66584926Y-140634446D01*
X66589572Y-140633898D01*
X66617992Y-140632585D01*
X66626980Y-140628615D01*
X66648778Y-140621865D01*
X66658433Y-140620061D01*
X66682617Y-140605086D01*
X66694738Y-140598698D01*
X66701824Y-140595568D01*
X66720765Y-140587206D01*
X66727713Y-140580257D01*
X66745596Y-140566092D01*
X66753952Y-140560919D01*
X66771096Y-140538215D01*
X66780082Y-140527887D01*
X69225474Y-138082496D01*
X69257593Y-138061036D01*
X69295479Y-138053500D01*
X72337304Y-138053500D01*
X72385697Y-138066134D01*
X72421739Y-138100811D01*
X72436230Y-138148681D01*
X72425473Y-138197525D01*
X72289390Y-138464005D01*
X72271225Y-138488984D01*
X72088131Y-138672078D01*
X72084141Y-138675549D01*
X72078772Y-138678224D01*
X72072595Y-138684999D01*
X72072593Y-138685001D01*
X72047141Y-138712919D01*
X72043990Y-138716219D01*
X72034063Y-138726146D01*
X72034054Y-138726156D01*
X72030826Y-138729385D01*
X72028240Y-138733157D01*
X72025321Y-138736674D01*
X72025178Y-138736555D01*
X72022257Y-138740215D01*
X72009261Y-138754472D01*
X72009259Y-138754474D01*
X72003084Y-138761249D01*
X71999772Y-138769795D01*
X71999770Y-138769800D01*
X71999529Y-138770423D01*
X71988898Y-138790591D01*
X71988530Y-138791128D01*
X71988527Y-138791132D01*
X71983344Y-138798701D01*
X71981244Y-138807628D01*
X71981242Y-138807633D01*
X71976830Y-138826389D01*
X71972777Y-138839477D01*
X71965813Y-138857453D01*
X71965811Y-138857460D01*
X71962500Y-138866009D01*
X71962500Y-138875181D01*
X71962500Y-138875834D01*
X71959870Y-138898500D01*
X71959721Y-138899132D01*
X71959720Y-138899135D01*
X71957621Y-138908063D01*
X71958887Y-138917145D01*
X71958888Y-138917145D01*
X71961551Y-138936235D01*
X71962500Y-138949913D01*
X71962500Y-141805802D01*
X71962134Y-141811074D01*
X71960227Y-141816765D01*
X71960650Y-141825927D01*
X71960650Y-141825932D01*
X71962394Y-141863642D01*
X71962500Y-141868214D01*
X71962500Y-141886844D01*
X71963342Y-141891351D01*
X71963764Y-141895899D01*
X71963566Y-141895917D01*
X71964101Y-141900576D01*
X71965415Y-141928992D01*
X71969385Y-141937984D01*
X71976132Y-141959772D01*
X71977939Y-141969433D01*
X71982766Y-141977230D01*
X71982767Y-141977231D01*
X71992911Y-141993615D01*
X71999300Y-142005736D01*
X72010794Y-142031765D01*
X72017278Y-142038249D01*
X72017743Y-142038714D01*
X72031908Y-142056598D01*
X72037081Y-142064952D01*
X72044403Y-142070481D01*
X72059772Y-142082087D01*
X72070116Y-142091087D01*
X74179452Y-144200423D01*
X74182923Y-144204412D01*
X74185598Y-144209784D01*
X74192374Y-144215961D01*
X74220280Y-144241401D01*
X74223587Y-144244558D01*
X74236759Y-144257730D01*
X74240529Y-144260313D01*
X74244052Y-144263238D01*
X74243918Y-144263399D01*
X74247595Y-144266302D01*
X74268623Y-144285472D01*
X74277781Y-144289019D01*
X74297968Y-144299659D01*
X74306075Y-144305213D01*
X74333770Y-144311726D01*
X74346851Y-144315777D01*
X74373383Y-144326056D01*
X74383209Y-144326056D01*
X74405874Y-144328685D01*
X74415437Y-144330935D01*
X74443609Y-144327004D01*
X74457287Y-144326056D01*
X75882921Y-144326056D01*
X75913428Y-144330874D01*
X76277205Y-144448708D01*
X76289486Y-144450279D01*
X76304815Y-144453488D01*
X76381672Y-144476056D01*
X76504138Y-144476056D01*
X76511216Y-144476056D01*
X76635513Y-144439560D01*
X76744493Y-144369523D01*
X76759673Y-144352003D01*
X76806601Y-144321843D01*
X76862384Y-144321841D01*
X76909313Y-144351999D01*
X76913313Y-144356615D01*
X76913315Y-144356616D01*
X76917951Y-144361967D01*
X77026931Y-144432004D01*
X77151228Y-144468500D01*
X77273694Y-144468500D01*
X77280772Y-144468500D01*
X77405069Y-144432004D01*
X77514049Y-144361967D01*
X77598882Y-144264063D01*
X77652697Y-144146226D01*
X77671133Y-144018000D01*
X77652697Y-143889774D01*
X77598882Y-143771937D01*
X77544642Y-143709340D01*
X77518684Y-143679382D01*
X77518683Y-143679381D01*
X77514049Y-143674033D01*
X77478795Y-143651377D01*
X77411024Y-143607823D01*
X77411023Y-143607822D01*
X77405069Y-143603996D01*
X77401645Y-143602990D01*
X77397997Y-143601012D01*
X77395545Y-143599117D01*
X77313419Y-143557178D01*
X77054993Y-143425208D01*
X77030014Y-143407043D01*
X73987687Y-140364716D01*
X73983121Y-140359613D01*
X73983031Y-140359482D01*
X73966945Y-140342011D01*
X73946786Y-140320115D01*
X73946785Y-140320114D01*
X73944451Y-140317579D01*
X73941789Y-140315392D01*
X73941780Y-140315384D01*
X73926358Y-140302717D01*
X73919190Y-140296219D01*
X73841102Y-140218131D01*
X73837632Y-140214143D01*
X73834958Y-140208772D01*
X73825695Y-140200328D01*
X73800274Y-140177153D01*
X73796966Y-140173995D01*
X73787029Y-140164058D01*
X73787028Y-140164057D01*
X73783797Y-140160826D01*
X73780023Y-140158240D01*
X73776505Y-140155319D01*
X73776633Y-140155164D01*
X73772961Y-140152253D01*
X73751933Y-140133084D01*
X73743380Y-140129770D01*
X73743378Y-140129769D01*
X73742765Y-140129532D01*
X73722586Y-140118895D01*
X73722049Y-140118527D01*
X73722044Y-140118525D01*
X73714481Y-140113344D01*
X73705555Y-140111244D01*
X73697161Y-140107538D01*
X73697804Y-140106079D01*
X73670518Y-140092583D01*
X73639392Y-140067017D01*
X73639382Y-140067010D01*
X73635873Y-140064128D01*
X73633914Y-140063047D01*
X73627483Y-140058109D01*
X73623188Y-140054387D01*
X73618549Y-140049033D01*
X73612589Y-140045202D01*
X73612587Y-140045201D01*
X73515526Y-139982824D01*
X73515524Y-139982823D01*
X73509569Y-139978996D01*
X73502775Y-139977001D01*
X73392063Y-139944494D01*
X73385272Y-139942500D01*
X73255728Y-139942500D01*
X73248937Y-139944493D01*
X73248936Y-139944494D01*
X73198391Y-139959335D01*
X73138120Y-139957900D01*
X73089857Y-139921770D01*
X73071500Y-139864345D01*
X73071500Y-139688135D01*
X73090135Y-139630321D01*
X73133234Y-139570412D01*
X73235803Y-139427835D01*
X73237689Y-139423907D01*
X73239913Y-139420162D01*
X73240177Y-139420319D01*
X73251759Y-139402672D01*
X73276241Y-139374419D01*
X73276241Y-139374418D01*
X73280882Y-139369063D01*
X73334697Y-139251226D01*
X73353133Y-139123000D01*
X73334697Y-138994774D01*
X73280882Y-138876937D01*
X73196049Y-138779033D01*
X73194280Y-138777896D01*
X73167089Y-138737722D01*
X73163433Y-138686606D01*
X73185825Y-138640511D01*
X73265064Y-138549063D01*
X73318879Y-138431226D01*
X73337315Y-138303000D01*
X73318879Y-138174774D01*
X73319613Y-138174668D01*
X73320914Y-138120118D01*
X73357043Y-138071856D01*
X73414468Y-138053500D01*
X73608047Y-138053500D01*
X73645071Y-138060684D01*
X73676723Y-138081193D01*
X73840423Y-138238851D01*
X73844457Y-138241454D01*
X73848214Y-138244429D01*
X73847844Y-138244895D01*
X73863365Y-138258366D01*
X73869951Y-138265967D01*
X73875905Y-138269793D01*
X73875907Y-138269795D01*
X73938485Y-138310011D01*
X73978931Y-138336004D01*
X74103228Y-138372500D01*
X74225694Y-138372500D01*
X74232772Y-138372500D01*
X74357069Y-138336004D01*
X74466049Y-138265967D01*
X74550882Y-138168063D01*
X74604697Y-138050226D01*
X74623133Y-137922000D01*
X74604697Y-137793774D01*
X74601753Y-137787327D01*
X74599760Y-137780540D01*
X74602168Y-137779832D01*
X74595922Y-137745607D01*
X74611337Y-137699072D01*
X74647187Y-137665637D01*
X74694682Y-137653500D01*
X75846521Y-137653500D01*
X75884407Y-137661036D01*
X75916525Y-137682496D01*
X77367043Y-139133014D01*
X77385208Y-139157993D01*
X77554836Y-139490163D01*
X77559117Y-139498545D01*
X77565873Y-139507284D01*
X77577599Y-139526703D01*
X77595118Y-139565063D01*
X77599752Y-139570411D01*
X77599753Y-139570412D01*
X77651663Y-139630321D01*
X77679951Y-139662967D01*
X77788931Y-139733004D01*
X77913228Y-139769500D01*
X78035694Y-139769500D01*
X78042772Y-139769500D01*
X78167069Y-139733004D01*
X78276049Y-139662967D01*
X78360882Y-139565063D01*
X78369376Y-139546462D01*
X78398692Y-139509410D01*
X78441848Y-139490163D01*
X78489010Y-139493113D01*
X78529432Y-139517586D01*
X80823504Y-141811658D01*
X80844964Y-141843776D01*
X80852500Y-141881662D01*
X80852500Y-148424522D01*
X80844964Y-148462408D01*
X80823503Y-148494526D01*
X80703986Y-148614041D01*
X80679008Y-148632206D01*
X80342546Y-148804027D01*
X80342543Y-148804028D01*
X80338452Y-148806118D01*
X80336002Y-148808011D01*
X80332349Y-148809991D01*
X80328931Y-148810996D01*
X80322984Y-148814817D01*
X80322979Y-148814820D01*
X80225908Y-148877204D01*
X80225904Y-148877206D01*
X80219951Y-148881033D01*
X80215319Y-148886378D01*
X80215315Y-148886382D01*
X80139752Y-148973588D01*
X80139749Y-148973591D01*
X80135118Y-148978937D01*
X80132179Y-148985372D01*
X80132176Y-148985377D01*
X80084246Y-149090328D01*
X80084244Y-149090333D01*
X80081303Y-149096774D01*
X80080295Y-149103782D01*
X80080294Y-149103787D01*
X80068940Y-149182761D01*
X80062867Y-149225000D01*
X80063875Y-149232011D01*
X80080294Y-149346212D01*
X80080295Y-149346215D01*
X80081303Y-149353226D01*
X80084245Y-149359668D01*
X80084246Y-149359671D01*
X80132175Y-149464620D01*
X80135118Y-149471063D01*
X80139752Y-149476411D01*
X80176638Y-149518981D01*
X80219951Y-149568967D01*
X80328931Y-149639004D01*
X80453228Y-149675500D01*
X80575694Y-149675500D01*
X80582772Y-149675500D01*
X80707069Y-149639004D01*
X80816049Y-149568967D01*
X80900882Y-149471063D01*
X80918401Y-149432699D01*
X80930134Y-149413272D01*
X80936883Y-149404543D01*
X80943345Y-149391890D01*
X81027425Y-149227240D01*
X81029818Y-149222552D01*
X81067410Y-149182472D01*
X81120584Y-149168611D01*
X81172959Y-149185242D01*
X81208397Y-149227240D01*
X81215979Y-149281665D01*
X81215646Y-149283982D01*
X81205867Y-149352000D01*
X81206875Y-149359011D01*
X81223294Y-149473212D01*
X81223295Y-149473215D01*
X81224303Y-149480226D01*
X81227245Y-149486668D01*
X81227246Y-149486671D01*
X81272829Y-149586483D01*
X81278118Y-149598063D01*
X81282752Y-149603411D01*
X81345216Y-149675500D01*
X81362951Y-149695967D01*
X81471931Y-149766004D01*
X81478724Y-149767998D01*
X81485167Y-149770941D01*
X81484336Y-149772760D01*
X81517702Y-149792954D01*
X81542392Y-149837214D01*
X81541944Y-149887894D01*
X81516474Y-149931711D01*
X74449854Y-156998330D01*
X74429819Y-157013790D01*
X73589460Y-157505127D01*
X73589130Y-157504562D01*
X73571080Y-157513900D01*
X73569728Y-157514373D01*
X73569722Y-157514375D01*
X73564478Y-157516211D01*
X73559778Y-157519163D01*
X73559772Y-157519167D01*
X73416446Y-157609225D01*
X73416441Y-157609228D01*
X73411738Y-157612184D01*
X73407811Y-157616110D01*
X73407807Y-157616114D01*
X73288114Y-157735807D01*
X73288110Y-157735811D01*
X73284184Y-157739738D01*
X73281228Y-157744441D01*
X73281225Y-157744446D01*
X73191170Y-157887768D01*
X73188211Y-157892478D01*
X73186375Y-157897724D01*
X73186373Y-157897729D01*
X73130468Y-158057496D01*
X73130466Y-158057501D01*
X73128632Y-158062745D01*
X73128010Y-158068259D01*
X73128009Y-158068267D01*
X73123534Y-158107989D01*
X73108435Y-158242000D01*
X73109057Y-158247520D01*
X73128009Y-158415732D01*
X73128010Y-158415738D01*
X73128632Y-158421255D01*
X73130467Y-158426500D01*
X73130468Y-158426503D01*
X73181086Y-158571160D01*
X73188211Y-158591522D01*
X73284184Y-158744262D01*
X73411738Y-158871816D01*
X73564478Y-158967789D01*
X73734745Y-159027368D01*
X73914000Y-159047565D01*
X74093255Y-159027368D01*
X74263522Y-158967789D01*
X74416262Y-158871816D01*
X74543816Y-158744262D01*
X74639789Y-158591522D01*
X74642093Y-158584934D01*
X74651446Y-158566872D01*
X74650873Y-158566537D01*
X74711528Y-158462795D01*
X75142214Y-157726171D01*
X75157667Y-157706145D01*
X82985334Y-149878478D01*
X83001819Y-149865197D01*
X83008128Y-149861143D01*
X83041243Y-149822923D01*
X83046048Y-149817765D01*
X83056220Y-149807594D01*
X83064854Y-149796057D01*
X83069260Y-149790590D01*
X83102377Y-149752373D01*
X83105492Y-149745549D01*
X83116302Y-149727332D01*
X83120795Y-149721331D01*
X83138469Y-149673942D01*
X83141150Y-149667471D01*
X83162165Y-149621457D01*
X83163231Y-149614034D01*
X83168473Y-149593501D01*
X83171091Y-149586483D01*
X83174696Y-149536060D01*
X83175452Y-149529038D01*
X83176996Y-149518304D01*
X83176996Y-149518303D01*
X83177500Y-149514799D01*
X83177500Y-149500409D01*
X83177752Y-149493347D01*
X83179192Y-149473212D01*
X83181358Y-149442927D01*
X83179762Y-149435589D01*
X83177500Y-149414546D01*
X83177500Y-146165319D01*
X83180734Y-146140220D01*
X83231689Y-145945799D01*
X83304235Y-145669000D01*
X85396867Y-145669000D01*
X85397875Y-145676011D01*
X85414294Y-145790212D01*
X85414295Y-145790215D01*
X85415303Y-145797226D01*
X85418245Y-145803668D01*
X85418246Y-145803671D01*
X85458225Y-145891212D01*
X85469118Y-145915063D01*
X85515169Y-145968209D01*
X85524088Y-145980232D01*
X85530739Y-145990780D01*
X85530743Y-145990786D01*
X85533279Y-145994807D01*
X85536534Y-145998268D01*
X85536535Y-145998269D01*
X85674116Y-146144552D01*
X85694034Y-146175898D01*
X85701000Y-146212378D01*
X85701000Y-154132331D01*
X85697766Y-154154981D01*
X85698117Y-154155052D01*
X85621790Y-154536195D01*
X85619708Y-154544642D01*
X85617742Y-154551337D01*
X85614803Y-154557774D01*
X85613796Y-154564777D01*
X85613795Y-154564781D01*
X85611789Y-154578734D01*
X85596367Y-154686000D01*
X85597375Y-154693011D01*
X85613794Y-154807212D01*
X85613795Y-154807215D01*
X85614803Y-154814226D01*
X85668618Y-154932063D01*
X85673252Y-154937411D01*
X85719283Y-154990535D01*
X85753451Y-155029967D01*
X85862431Y-155100004D01*
X85986728Y-155136500D01*
X86109194Y-155136500D01*
X86116272Y-155136500D01*
X86240569Y-155100004D01*
X86349549Y-155029967D01*
X86434382Y-154932063D01*
X86488197Y-154814226D01*
X86506633Y-154686000D01*
X86920867Y-154686000D01*
X86921875Y-154693011D01*
X86938294Y-154807212D01*
X86938295Y-154807215D01*
X86939303Y-154814226D01*
X86993118Y-154932063D01*
X86997752Y-154937411D01*
X87043783Y-154990535D01*
X87077951Y-155029967D01*
X87186931Y-155100004D01*
X87311228Y-155136500D01*
X87433694Y-155136500D01*
X87440772Y-155136500D01*
X87565069Y-155100004D01*
X87674049Y-155029967D01*
X87758882Y-154932063D01*
X87812697Y-154814226D01*
X87831133Y-154686000D01*
X87812697Y-154557774D01*
X87809750Y-154551321D01*
X87807794Y-154544660D01*
X87805710Y-154536203D01*
X87805708Y-154536195D01*
X87729382Y-154155051D01*
X87729381Y-154155050D01*
X87729732Y-154154979D01*
X87726500Y-154132333D01*
X87726500Y-146349666D01*
X87729732Y-146327019D01*
X87729382Y-146326949D01*
X87729382Y-146326948D01*
X87805713Y-145945780D01*
X87807794Y-145937341D01*
X87809751Y-145930673D01*
X87812697Y-145924226D01*
X87831133Y-145796000D01*
X87812697Y-145667774D01*
X87758882Y-145549937D01*
X87702924Y-145485357D01*
X87678684Y-145457382D01*
X87678683Y-145457381D01*
X87674049Y-145452033D01*
X87638797Y-145429378D01*
X87571026Y-145385824D01*
X87571024Y-145385823D01*
X87565069Y-145381996D01*
X87558275Y-145380001D01*
X87447563Y-145347494D01*
X87440772Y-145345500D01*
X87311228Y-145345500D01*
X87304437Y-145347493D01*
X87304436Y-145347494D01*
X87193724Y-145380001D01*
X87193721Y-145380002D01*
X87186931Y-145381996D01*
X87180978Y-145385821D01*
X87180973Y-145385824D01*
X87083908Y-145448204D01*
X87083904Y-145448206D01*
X87077951Y-145452033D01*
X87073319Y-145457378D01*
X87073315Y-145457382D01*
X86997752Y-145544588D01*
X86997749Y-145544591D01*
X86993118Y-145549937D01*
X86990179Y-145556372D01*
X86990176Y-145556377D01*
X86942246Y-145661328D01*
X86942244Y-145661333D01*
X86939303Y-145667774D01*
X86938295Y-145674782D01*
X86938294Y-145674787D01*
X86921875Y-145788989D01*
X86920867Y-145796000D01*
X86921875Y-145803011D01*
X86938294Y-145917213D01*
X86938295Y-145917217D01*
X86939303Y-145924226D01*
X86942244Y-145930667D01*
X86944208Y-145937354D01*
X86946290Y-145945803D01*
X87022618Y-146326949D01*
X87022267Y-146327019D01*
X87025500Y-146349667D01*
X87025500Y-154132331D01*
X87022266Y-154154981D01*
X87022617Y-154155052D01*
X86946290Y-154536195D01*
X86944208Y-154544642D01*
X86942242Y-154551337D01*
X86939303Y-154557774D01*
X86938296Y-154564777D01*
X86938295Y-154564781D01*
X86936289Y-154578734D01*
X86920867Y-154686000D01*
X86506633Y-154686000D01*
X86488197Y-154557774D01*
X86485250Y-154551321D01*
X86483294Y-154544660D01*
X86481210Y-154536203D01*
X86481208Y-154536195D01*
X86404882Y-154155051D01*
X86404881Y-154155050D01*
X86405232Y-154154979D01*
X86402000Y-154132333D01*
X86402000Y-146103598D01*
X86402721Y-146093831D01*
X86402646Y-146093826D01*
X86402646Y-146093825D01*
X86403147Y-146086937D01*
X86402295Y-146075926D01*
X86402000Y-146068288D01*
X86402000Y-145915120D01*
X86404107Y-145894804D01*
X86404860Y-145891212D01*
X86404860Y-145891211D01*
X86406543Y-145883185D01*
X86402759Y-145852837D01*
X86402436Y-145847629D01*
X86402338Y-145847638D01*
X86402000Y-145843563D01*
X86402000Y-145839460D01*
X86398738Y-145819921D01*
X86398162Y-145815960D01*
X86392073Y-145767108D01*
X86388813Y-145760441D01*
X86387592Y-145753119D01*
X86364175Y-145709850D01*
X86362307Y-145706221D01*
X86344301Y-145669387D01*
X86344300Y-145669386D01*
X86340698Y-145662017D01*
X86335450Y-145656769D01*
X86331918Y-145650242D01*
X86325882Y-145644685D01*
X86320842Y-145638209D01*
X86322617Y-145636826D01*
X86299288Y-145596724D01*
X86293483Y-145571598D01*
X86291950Y-145563401D01*
X86288697Y-145540774D01*
X86274275Y-145509197D01*
X86272091Y-145504028D01*
X86266116Y-145488691D01*
X86266115Y-145488689D01*
X86264817Y-145485357D01*
X86261529Y-145479560D01*
X86261653Y-145479489D01*
X86256411Y-145470079D01*
X86250612Y-145457382D01*
X86234882Y-145422937D01*
X86169511Y-145347494D01*
X86154684Y-145330382D01*
X86154683Y-145330381D01*
X86150049Y-145325033D01*
X86090517Y-145286774D01*
X86047026Y-145258824D01*
X86047024Y-145258823D01*
X86041069Y-145254996D01*
X86034275Y-145253001D01*
X85923563Y-145220494D01*
X85916772Y-145218500D01*
X85787228Y-145218500D01*
X85780437Y-145220493D01*
X85780436Y-145220494D01*
X85669724Y-145253001D01*
X85669721Y-145253002D01*
X85662931Y-145254996D01*
X85656978Y-145258821D01*
X85656973Y-145258824D01*
X85559908Y-145321204D01*
X85559904Y-145321206D01*
X85553951Y-145325033D01*
X85549319Y-145330378D01*
X85549315Y-145330382D01*
X85473752Y-145417588D01*
X85473749Y-145417591D01*
X85469118Y-145422937D01*
X85466179Y-145429372D01*
X85466176Y-145429377D01*
X85418246Y-145534328D01*
X85418244Y-145534333D01*
X85415303Y-145540774D01*
X85414295Y-145547782D01*
X85414294Y-145547787D01*
X85398380Y-145658479D01*
X85396867Y-145669000D01*
X83304235Y-145669000D01*
X83427531Y-145198563D01*
X83427872Y-145194141D01*
X83428610Y-145189762D01*
X83428906Y-145189811D01*
X83433059Y-145170009D01*
X83462368Y-145086255D01*
X83482565Y-144907000D01*
X83462368Y-144727745D01*
X83402789Y-144557478D01*
X83306816Y-144404738D01*
X83179262Y-144277184D01*
X83170405Y-144271619D01*
X83031231Y-144184170D01*
X83026522Y-144181211D01*
X83021271Y-144179373D01*
X83021270Y-144179373D01*
X82861503Y-144123468D01*
X82861500Y-144123467D01*
X82856255Y-144121632D01*
X82850738Y-144121010D01*
X82850732Y-144121009D01*
X82682520Y-144102057D01*
X82677000Y-144101435D01*
X82671480Y-144102057D01*
X82503267Y-144121009D01*
X82503259Y-144121010D01*
X82497745Y-144121632D01*
X82492501Y-144123466D01*
X82492496Y-144123468D01*
X82332729Y-144179373D01*
X82332724Y-144179375D01*
X82327478Y-144181211D01*
X82322771Y-144184168D01*
X82322768Y-144184170D01*
X82179446Y-144274225D01*
X82179441Y-144274228D01*
X82174738Y-144277184D01*
X82170811Y-144281110D01*
X82170807Y-144281114D01*
X82130504Y-144321418D01*
X82079814Y-144348512D01*
X82022614Y-144342878D01*
X81978185Y-144306415D01*
X81961500Y-144251414D01*
X81961500Y-136197199D01*
X81961865Y-136191926D01*
X81963773Y-136186236D01*
X81961606Y-136139359D01*
X81961500Y-136134787D01*
X81961500Y-136120737D01*
X81961500Y-136116156D01*
X81960657Y-136111651D01*
X81960235Y-136107096D01*
X81960446Y-136107076D01*
X81959898Y-136102431D01*
X81958585Y-136074009D01*
X81954618Y-136065025D01*
X81947864Y-136043214D01*
X81946061Y-136033567D01*
X81941233Y-136025770D01*
X81941232Y-136025766D01*
X81931086Y-136009380D01*
X81924693Y-135997252D01*
X81913206Y-135971235D01*
X81906256Y-135964285D01*
X81892089Y-135946398D01*
X81891748Y-135945848D01*
X81886919Y-135938048D01*
X81879599Y-135932520D01*
X81879598Y-135932519D01*
X81864222Y-135920908D01*
X81853879Y-135911908D01*
X78540102Y-132598131D01*
X78536632Y-132594143D01*
X78533958Y-132588772D01*
X78512655Y-132569352D01*
X78499274Y-132557153D01*
X78495966Y-132553995D01*
X78486029Y-132544058D01*
X78482797Y-132540826D01*
X78479023Y-132538240D01*
X78475505Y-132535319D01*
X78475633Y-132535164D01*
X78471961Y-132532253D01*
X78450933Y-132513084D01*
X78442380Y-132509770D01*
X78442378Y-132509769D01*
X78441765Y-132509532D01*
X78421586Y-132498895D01*
X78421052Y-132498529D01*
X78421047Y-132498527D01*
X78413481Y-132493344D01*
X78404553Y-132491244D01*
X78404551Y-132491243D01*
X78385796Y-132486832D01*
X78372703Y-132482777D01*
X78354726Y-132475813D01*
X78354723Y-132475812D01*
X78346173Y-132472500D01*
X78337002Y-132472500D01*
X78336348Y-132472500D01*
X78313682Y-132469870D01*
X78313049Y-132469721D01*
X78313046Y-132469720D01*
X78304119Y-132467621D01*
X78295036Y-132468888D01*
X78275947Y-132471551D01*
X78262269Y-132472500D01*
X72826521Y-132472500D01*
X72796013Y-132467682D01*
X72690766Y-132433590D01*
X72690765Y-132433590D01*
X72690765Y-132433589D01*
X72690762Y-132433588D01*
X72690758Y-132433586D01*
X72436618Y-132351266D01*
X72436617Y-132351265D01*
X72432237Y-132349847D01*
X72427674Y-132349263D01*
X72427669Y-132349262D01*
X72421080Y-132348419D01*
X72419949Y-132348274D01*
X72404627Y-132345066D01*
X72366938Y-132334000D01*
X80993654Y-132334000D01*
X80993810Y-132336778D01*
X81012866Y-132676103D01*
X81012867Y-132676112D01*
X81013023Y-132678889D01*
X81013489Y-132681634D01*
X81013490Y-132681639D01*
X81051895Y-132907671D01*
X81070885Y-133019441D01*
X81071650Y-133022098D01*
X81071653Y-133022109D01*
X81165743Y-133348702D01*
X81166513Y-133351374D01*
X81167574Y-133353935D01*
X81167577Y-133353944D01*
X81257551Y-133571160D01*
X81298704Y-133670512D01*
X81300044Y-133672936D01*
X81300050Y-133672949D01*
X81449231Y-133942871D01*
X81465796Y-133972843D01*
X81467400Y-133975104D01*
X81467406Y-133975113D01*
X81606257Y-134170803D01*
X81665689Y-134254564D01*
X81895866Y-134512134D01*
X82153436Y-134742311D01*
X82323148Y-134862729D01*
X82432886Y-134940593D01*
X82432890Y-134940595D01*
X82435157Y-134942204D01*
X82565636Y-135014317D01*
X82735050Y-135107949D01*
X82735056Y-135107951D01*
X82737488Y-135109296D01*
X83056626Y-135241487D01*
X83388559Y-135337115D01*
X83729111Y-135394977D01*
X84074000Y-135414346D01*
X84418889Y-135394977D01*
X84759441Y-135337115D01*
X85091374Y-135241487D01*
X85410512Y-135109296D01*
X85712843Y-134942204D01*
X85994564Y-134742311D01*
X86252134Y-134512134D01*
X86482311Y-134254564D01*
X86682204Y-133972843D01*
X86849296Y-133670512D01*
X86981487Y-133351374D01*
X87077115Y-133019441D01*
X87134977Y-132678889D01*
X87154346Y-132334000D01*
X87134977Y-131989111D01*
X87077115Y-131648559D01*
X86981487Y-131316626D01*
X86849296Y-130997488D01*
X86834086Y-130969968D01*
X86742794Y-130804786D01*
X86682204Y-130695157D01*
X86482311Y-130413436D01*
X86252134Y-130155866D01*
X85994564Y-129925689D01*
X85819268Y-129801309D01*
X85715113Y-129727406D01*
X85715104Y-129727400D01*
X85712843Y-129725796D01*
X85710406Y-129724449D01*
X85412949Y-129560050D01*
X85412936Y-129560044D01*
X85410512Y-129558704D01*
X85407941Y-129557639D01*
X85093944Y-129427577D01*
X85093935Y-129427574D01*
X85091374Y-129426513D01*
X85088705Y-129425744D01*
X85088702Y-129425743D01*
X84762109Y-129331653D01*
X84762098Y-129331650D01*
X84759441Y-129330885D01*
X84696178Y-129320136D01*
X84421639Y-129273490D01*
X84421634Y-129273489D01*
X84418889Y-129273023D01*
X84416112Y-129272867D01*
X84416103Y-129272866D01*
X84076778Y-129253810D01*
X84074000Y-129253654D01*
X84071222Y-129253810D01*
X83731896Y-129272866D01*
X83731885Y-129272867D01*
X83729111Y-129273023D01*
X83726367Y-129273489D01*
X83726360Y-129273490D01*
X83391301Y-129330419D01*
X83391298Y-129330419D01*
X83388559Y-129330885D01*
X83385905Y-129331649D01*
X83385890Y-129331653D01*
X83059297Y-129425743D01*
X83059288Y-129425745D01*
X83056626Y-129426513D01*
X83054069Y-129427571D01*
X83054055Y-129427577D01*
X82740058Y-129557639D01*
X82740050Y-129557642D01*
X82737488Y-129558704D01*
X82735070Y-129560040D01*
X82735050Y-129560050D01*
X82437593Y-129724449D01*
X82437584Y-129724454D01*
X82435157Y-129725796D01*
X82432902Y-129727395D01*
X82432886Y-129727406D01*
X82155696Y-129924085D01*
X82155691Y-129924088D01*
X82153436Y-129925689D01*
X82151374Y-129927530D01*
X82151371Y-129927534D01*
X81897944Y-130154008D01*
X81897934Y-130154017D01*
X81895866Y-130155866D01*
X81894017Y-130157934D01*
X81894008Y-130157944D01*
X81667534Y-130411371D01*
X81665689Y-130413436D01*
X81664088Y-130415691D01*
X81664085Y-130415696D01*
X81467406Y-130692886D01*
X81467395Y-130692902D01*
X81465796Y-130695157D01*
X81464454Y-130697584D01*
X81464449Y-130697593D01*
X81300050Y-130995050D01*
X81300040Y-130995070D01*
X81298704Y-130997488D01*
X81297642Y-131000050D01*
X81297639Y-131000058D01*
X81167577Y-131314055D01*
X81167571Y-131314069D01*
X81166513Y-131316626D01*
X81165745Y-131319288D01*
X81165743Y-131319297D01*
X81071653Y-131645890D01*
X81071649Y-131645905D01*
X81070885Y-131648559D01*
X81070419Y-131651298D01*
X81070419Y-131651301D01*
X81069954Y-131654041D01*
X81013023Y-131989111D01*
X81012867Y-131991885D01*
X81012866Y-131991896D01*
X81006871Y-132098647D01*
X80993654Y-132334000D01*
X72366938Y-132334000D01*
X72334563Y-132324494D01*
X72327772Y-132322500D01*
X72198228Y-132322500D01*
X72191437Y-132324493D01*
X72191436Y-132324494D01*
X72080724Y-132357001D01*
X72080721Y-132357002D01*
X72073931Y-132358996D01*
X72067978Y-132362821D01*
X72067973Y-132362824D01*
X71970908Y-132425204D01*
X71970904Y-132425206D01*
X71964951Y-132429033D01*
X71960319Y-132434378D01*
X71960315Y-132434382D01*
X71884752Y-132521588D01*
X71884749Y-132521591D01*
X71880118Y-132526937D01*
X71877179Y-132533372D01*
X71877176Y-132533377D01*
X71829246Y-132638328D01*
X71829244Y-132638333D01*
X71826303Y-132644774D01*
X71825295Y-132651782D01*
X71825294Y-132651787D01*
X71808875Y-132765989D01*
X71807867Y-132773000D01*
X71808875Y-132780011D01*
X71825294Y-132894212D01*
X71825295Y-132894215D01*
X71826303Y-132901226D01*
X71829245Y-132907668D01*
X71829246Y-132907671D01*
X71875264Y-133008436D01*
X71880118Y-133019063D01*
X71964951Y-133116967D01*
X72073931Y-133187004D01*
X72198228Y-133223500D01*
X72320695Y-133223500D01*
X72327772Y-133223500D01*
X72404631Y-133200932D01*
X72419958Y-133197723D01*
X72427665Y-133196737D01*
X72427664Y-133196737D01*
X72432238Y-133196152D01*
X72796015Y-133078318D01*
X72826523Y-133073500D01*
X78124521Y-133073500D01*
X78162407Y-133081036D01*
X78194525Y-133102496D01*
X81331504Y-136239475D01*
X81352964Y-136271593D01*
X81360500Y-136309479D01*
X81360500Y-141259703D01*
X81343815Y-141314704D01*
X81299386Y-141351167D01*
X81242186Y-141356801D01*
X81191496Y-141329707D01*
X76269920Y-136408131D01*
X76266450Y-136404143D01*
X76263776Y-136398772D01*
X76229092Y-136367153D01*
X76225784Y-136363995D01*
X76215847Y-136354058D01*
X76212615Y-136350826D01*
X76208841Y-136348240D01*
X76205323Y-136345319D01*
X76205451Y-136345164D01*
X76201779Y-136342253D01*
X76180751Y-136323084D01*
X76172198Y-136319770D01*
X76172196Y-136319769D01*
X76171583Y-136319532D01*
X76151404Y-136308895D01*
X76150870Y-136308529D01*
X76150865Y-136308527D01*
X76143299Y-136303344D01*
X76134371Y-136301244D01*
X76134369Y-136301243D01*
X76115614Y-136296832D01*
X76102521Y-136292777D01*
X76084544Y-136285813D01*
X76084541Y-136285812D01*
X76075991Y-136282500D01*
X76066820Y-136282500D01*
X76066166Y-136282500D01*
X76043500Y-136279870D01*
X76042867Y-136279721D01*
X76042864Y-136279720D01*
X76033937Y-136277621D01*
X76024854Y-136278888D01*
X76005765Y-136281551D01*
X75992087Y-136282500D01*
X72826521Y-136282500D01*
X72796013Y-136277682D01*
X72690766Y-136243590D01*
X72690765Y-136243590D01*
X72690765Y-136243589D01*
X72690762Y-136243588D01*
X72690758Y-136243586D01*
X72436618Y-136161266D01*
X72436617Y-136161265D01*
X72432237Y-136159847D01*
X72427674Y-136159263D01*
X72427669Y-136159262D01*
X72421080Y-136158419D01*
X72419949Y-136158274D01*
X72404627Y-136155066D01*
X72334563Y-136134494D01*
X72327772Y-136132500D01*
X72198228Y-136132500D01*
X72191437Y-136134493D01*
X72191436Y-136134494D01*
X72080724Y-136167001D01*
X72080721Y-136167002D01*
X72073931Y-136168996D01*
X72067978Y-136172821D01*
X72067973Y-136172824D01*
X71970908Y-136235204D01*
X71970904Y-136235206D01*
X71964951Y-136239033D01*
X71960319Y-136244378D01*
X71960315Y-136244382D01*
X71884752Y-136331588D01*
X71884749Y-136331591D01*
X71880118Y-136336937D01*
X71877179Y-136343372D01*
X71877176Y-136343377D01*
X71829246Y-136448328D01*
X71829244Y-136448333D01*
X71826303Y-136454774D01*
X71825295Y-136461782D01*
X71825294Y-136461787D01*
X71808875Y-136575989D01*
X71807867Y-136583000D01*
X71808875Y-136590011D01*
X71825294Y-136704212D01*
X71825295Y-136704215D01*
X71826303Y-136711226D01*
X71880118Y-136829063D01*
X71884752Y-136834411D01*
X71931766Y-136888669D01*
X71954938Y-136939411D01*
X71946999Y-136994626D01*
X71910469Y-137036784D01*
X71856946Y-137052500D01*
X68567199Y-137052500D01*
X68561926Y-137052134D01*
X68556236Y-137050227D01*
X68547072Y-137050650D01*
X68547068Y-137050650D01*
X68509359Y-137052394D01*
X68504787Y-137052500D01*
X68486156Y-137052500D01*
X68481656Y-137053340D01*
X68477101Y-137053763D01*
X68477083Y-137053571D01*
X68472421Y-137054101D01*
X68453173Y-137054991D01*
X68453171Y-137054991D01*
X68444009Y-137055415D01*
X68435623Y-137059117D01*
X68435616Y-137059119D01*
X68435012Y-137059387D01*
X68413228Y-137066132D01*
X68412587Y-137066251D01*
X68412579Y-137066254D01*
X68403567Y-137067939D01*
X68395771Y-137072765D01*
X68395765Y-137072768D01*
X68379382Y-137082912D01*
X68367258Y-137089303D01*
X68349624Y-137097089D01*
X68349620Y-137097091D01*
X68341235Y-137100794D01*
X68334752Y-137107276D01*
X68334744Y-137107282D01*
X68334278Y-137107749D01*
X68316413Y-137121899D01*
X68315852Y-137122246D01*
X68315843Y-137122254D01*
X68308048Y-137127081D01*
X68302524Y-137134395D01*
X68302517Y-137134402D01*
X68290906Y-137149778D01*
X68281909Y-137160118D01*
X66706525Y-138735504D01*
X66674407Y-138756964D01*
X66636521Y-138764500D01*
X55554521Y-138764500D01*
X55524013Y-138759682D01*
X55418766Y-138725590D01*
X55418765Y-138725590D01*
X55418765Y-138725589D01*
X55418762Y-138725588D01*
X55418758Y-138725586D01*
X55164618Y-138643266D01*
X55164617Y-138643265D01*
X55160237Y-138641847D01*
X55155674Y-138641263D01*
X55155669Y-138641262D01*
X55149080Y-138640419D01*
X55147949Y-138640274D01*
X55132627Y-138637066D01*
X55062563Y-138616494D01*
X55055772Y-138614500D01*
X54926228Y-138614500D01*
X54919437Y-138616493D01*
X54919436Y-138616494D01*
X54808724Y-138649001D01*
X54808721Y-138649002D01*
X54801931Y-138650996D01*
X54795978Y-138654821D01*
X54795973Y-138654824D01*
X54698908Y-138717204D01*
X54698904Y-138717206D01*
X54692951Y-138721033D01*
X54688319Y-138726378D01*
X54688315Y-138726382D01*
X54612752Y-138813588D01*
X54612749Y-138813591D01*
X54608118Y-138818937D01*
X54605179Y-138825372D01*
X54605176Y-138825377D01*
X54557246Y-138930328D01*
X54557244Y-138930333D01*
X54554303Y-138936774D01*
X54553295Y-138943782D01*
X54553294Y-138943787D01*
X54536875Y-139057989D01*
X54535867Y-139065000D01*
X51911000Y-139065000D01*
X51911000Y-138099318D01*
X51914234Y-138074219D01*
X51917781Y-138060684D01*
X52012678Y-137698603D01*
X52012780Y-137697282D01*
X52017321Y-137682478D01*
X52017260Y-137682460D01*
X52019253Y-137675670D01*
X52022197Y-137669226D01*
X52040633Y-137541000D01*
X52022197Y-137412774D01*
X51968382Y-137294937D01*
X51883549Y-137197033D01*
X51774569Y-137126996D01*
X51767775Y-137125001D01*
X51657063Y-137092494D01*
X51650272Y-137090500D01*
X51520728Y-137090500D01*
X51513937Y-137092493D01*
X51513936Y-137092494D01*
X51403224Y-137125001D01*
X51403221Y-137125002D01*
X51396431Y-137126996D01*
X51390478Y-137130821D01*
X51390473Y-137130824D01*
X51293408Y-137193204D01*
X51293404Y-137193206D01*
X51287451Y-137197033D01*
X51282819Y-137202378D01*
X51282815Y-137202382D01*
X51207252Y-137289588D01*
X51207249Y-137289591D01*
X51202618Y-137294937D01*
X51199679Y-137301372D01*
X51199676Y-137301377D01*
X51151746Y-137406328D01*
X51151744Y-137406333D01*
X51148803Y-137412774D01*
X51147795Y-137419782D01*
X51147794Y-137419787D01*
X51131375Y-137533989D01*
X51130367Y-137541000D01*
X50919500Y-137541000D01*
X50919500Y-135211365D01*
X50922771Y-135190076D01*
X50921894Y-135189885D01*
X50922847Y-135185514D01*
X50924194Y-135181240D01*
X51021273Y-134404606D01*
X51021206Y-134400653D01*
X51022040Y-134386064D01*
X51023835Y-134372435D01*
X51023835Y-134372433D01*
X51024682Y-134366000D01*
X51004044Y-134209238D01*
X50943536Y-134063159D01*
X50847282Y-133937718D01*
X50721841Y-133841464D01*
X50715847Y-133838981D01*
X50715845Y-133838980D01*
X50581759Y-133783440D01*
X50581758Y-133783439D01*
X50575762Y-133780956D01*
X50569331Y-133780109D01*
X50569326Y-133780108D01*
X50425434Y-133761165D01*
X50419000Y-133760318D01*
X50412566Y-133761165D01*
X50268673Y-133780108D01*
X50268666Y-133780109D01*
X50262238Y-133780956D01*
X50256243Y-133783439D01*
X50256240Y-133783440D01*
X50122154Y-133838980D01*
X50122149Y-133838982D01*
X50116159Y-133841464D01*
X50111015Y-133845411D01*
X50111010Y-133845414D01*
X49995871Y-133933763D01*
X49995866Y-133933767D01*
X49990718Y-133937718D01*
X49986767Y-133942866D01*
X49986763Y-133942871D01*
X49898414Y-134058010D01*
X49898411Y-134058015D01*
X49894464Y-134063159D01*
X49891982Y-134069149D01*
X49891980Y-134069154D01*
X49836440Y-134203240D01*
X49833956Y-134209238D01*
X49833109Y-134215666D01*
X49833108Y-134215673D01*
X49814165Y-134359566D01*
X49813318Y-134366000D01*
X48260500Y-134366000D01*
X48260500Y-128369500D01*
X48273763Y-128320000D01*
X48310000Y-128283763D01*
X48359500Y-128270500D01*
X88038500Y-128270500D01*
X88088000Y-128283763D01*
G37*
%TD.AperFunction*%
%TD*%
%TA.AperFunction,Conductor*%
%TO.N,/ESP_EN*%
G36*
X67560119Y-161554437D02*
G01*
X67564289Y-161560734D01*
X67665392Y-161946495D01*
X67664563Y-161954645D01*
X67658591Y-161960254D01*
X67441517Y-162051109D01*
X67437000Y-162052016D01*
X67432483Y-162051109D01*
X67215408Y-161960254D01*
X67209436Y-161954645D01*
X67208607Y-161946495D01*
X67309711Y-161560734D01*
X67313881Y-161554437D01*
X67321029Y-161552000D01*
X67552971Y-161552000D01*
X67560119Y-161554437D01*
G37*
%TD.AperFunction*%
%TD*%
%TA.AperFunction,Conductor*%
%TO.N,/ESP_EN*%
G36*
X51590014Y-137541889D02*
G01*
X51807091Y-137632745D01*
X51813063Y-137638354D01*
X51813892Y-137646504D01*
X51712789Y-138032266D01*
X51708619Y-138038563D01*
X51701471Y-138041000D01*
X51469529Y-138041000D01*
X51462381Y-138038563D01*
X51458211Y-138032266D01*
X51357107Y-137646504D01*
X51357936Y-137638354D01*
X51363906Y-137632746D01*
X51580985Y-137541889D01*
X51585500Y-137540983D01*
X51590014Y-137541889D01*
G37*
%TD.AperFunction*%
%TD*%
%TA.AperFunction,Conductor*%
%TO.N,+3.3V*%
G36*
X74556779Y-157187723D02*
G01*
X74968276Y-157599220D01*
X74971607Y-157605998D01*
X74970103Y-157613398D01*
X74473470Y-158462814D01*
X74467109Y-158467995D01*
X74458909Y-158467725D01*
X73917792Y-158244562D01*
X73913980Y-158242019D01*
X73911437Y-158238207D01*
X73688274Y-157697090D01*
X73688004Y-157688890D01*
X73693183Y-157682530D01*
X74542605Y-157185895D01*
X74550001Y-157184392D01*
X74556779Y-157187723D01*
G37*
%TD.AperFunction*%
%TD*%
%TA.AperFunction,Conductor*%
%TO.N,+3.3V*%
G36*
X76056266Y-145287711D02*
G01*
X76062563Y-145291881D01*
X76065000Y-145299029D01*
X76065000Y-145530971D01*
X76062563Y-145538119D01*
X76056266Y-145542289D01*
X75670504Y-145643392D01*
X75662354Y-145642563D01*
X75656745Y-145636591D01*
X75565889Y-145419514D01*
X75564983Y-145415000D01*
X75565889Y-145410485D01*
X75656746Y-145193406D01*
X75662354Y-145187436D01*
X75670504Y-145186607D01*
X76056266Y-145287711D01*
G37*
%TD.AperFunction*%
%TD*%
%TA.AperFunction,Conductor*%
%TO.N,+3.3V*%
G36*
X59988119Y-165045437D02*
G01*
X59992289Y-165051734D01*
X60241745Y-166003535D01*
X60240910Y-166011696D01*
X60234921Y-166017303D01*
X59694494Y-166242130D01*
X59690000Y-166243028D01*
X59685506Y-166242130D01*
X59145078Y-166017303D01*
X59139089Y-166011696D01*
X59138254Y-166003537D01*
X59387710Y-165051734D01*
X59391881Y-165045437D01*
X59399029Y-165043000D01*
X59980971Y-165043000D01*
X59988119Y-165045437D01*
G37*
%TD.AperFunction*%
%TD*%
%TA.AperFunction,Conductor*%
%TO.N,+3.3V*%
G36*
X59694491Y-157734868D02*
G01*
X60234922Y-157959696D01*
X60240910Y-157965303D01*
X60241745Y-157973464D01*
X59992289Y-158925266D01*
X59988119Y-158931563D01*
X59980971Y-158934000D01*
X59399029Y-158934000D01*
X59391881Y-158931563D01*
X59387711Y-158925266D01*
X59359046Y-158815897D01*
X59138254Y-157973462D01*
X59139089Y-157965303D01*
X59145076Y-157959697D01*
X59685508Y-157734868D01*
X59690000Y-157733971D01*
X59694491Y-157734868D01*
G37*
%TD.AperFunction*%
%TD*%
%TA.AperFunction,Conductor*%
%TO.N,+3.3V*%
G36*
X78645434Y-144688183D02*
G01*
X78863176Y-144777435D01*
X78867011Y-144779988D01*
X78869564Y-144783824D01*
X78958815Y-145001564D01*
X78959071Y-145009752D01*
X78953894Y-145016101D01*
X78609629Y-145217385D01*
X78602229Y-145218889D01*
X78595451Y-145215558D01*
X78431441Y-145051548D01*
X78428110Y-145044770D01*
X78429613Y-145037374D01*
X78630899Y-144693103D01*
X78637247Y-144687928D01*
X78645434Y-144688183D01*
G37*
%TD.AperFunction*%
%TD*%
%TA.AperFunction,Conductor*%
%TO.N,+3.3V*%
G36*
X59061395Y-156677895D02*
G01*
X59910814Y-157174529D01*
X59915995Y-157180890D01*
X59915725Y-157189090D01*
X59692562Y-157730207D01*
X59690019Y-157734019D01*
X59686207Y-157736562D01*
X59145090Y-157959725D01*
X59136890Y-157959995D01*
X59130529Y-157954814D01*
X58633895Y-157105395D01*
X58632392Y-157097998D01*
X58635722Y-157091221D01*
X59047221Y-156679722D01*
X59053998Y-156676392D01*
X59061395Y-156677895D01*
G37*
%TD.AperFunction*%
%TD*%
%TA.AperFunction,Conductor*%
%TO.N,+3.3V*%
G36*
X50805782Y-134365966D02*
G01*
X50812031Y-134367795D01*
X50816336Y-134372684D01*
X50817360Y-134379117D01*
X50720281Y-135155751D01*
X50716414Y-135163071D01*
X50708671Y-135166000D01*
X50129329Y-135166000D01*
X50121586Y-135163071D01*
X50117719Y-135155751D01*
X50101539Y-135026312D01*
X50020639Y-134379114D01*
X50021663Y-134372684D01*
X50025968Y-134367795D01*
X50032216Y-134365966D01*
X50419000Y-134365000D01*
X50805782Y-134365966D01*
G37*
%TD.AperFunction*%
%TD*%
%TA.AperFunction,Conductor*%
%TO.N,+3.3V*%
G36*
X82681491Y-144907868D02*
G01*
X83221922Y-145132696D01*
X83227910Y-145138303D01*
X83228745Y-145146464D01*
X82979289Y-146098266D01*
X82975119Y-146104563D01*
X82967971Y-146107000D01*
X82386029Y-146107000D01*
X82378881Y-146104563D01*
X82374711Y-146098266D01*
X82346046Y-145988897D01*
X82125254Y-145146462D01*
X82126089Y-145138303D01*
X82132076Y-145132697D01*
X82672508Y-144907868D01*
X82677000Y-144906971D01*
X82681491Y-144907868D01*
G37*
%TD.AperFunction*%
%TD*%
%TA.AperFunction,Conductor*%
%TO.N,Net-(U4-C2P)*%
G36*
X87380514Y-145796889D02*
G01*
X87598135Y-145887973D01*
X87603949Y-145893275D01*
X87605089Y-145901062D01*
X87527883Y-146286597D01*
X87523828Y-146293349D01*
X87516411Y-146296000D01*
X87235589Y-146296000D01*
X87228172Y-146293349D01*
X87224117Y-146286597D01*
X87221326Y-146272662D01*
X87146910Y-145901060D01*
X87148050Y-145893275D01*
X87153862Y-145887974D01*
X87371485Y-145796889D01*
X87376000Y-145795983D01*
X87380514Y-145796889D01*
G37*
%TD.AperFunction*%
%TD*%
%TA.AperFunction,Conductor*%
%TO.N,Net-(U4-C2P)*%
G36*
X87523828Y-154188651D02*
G01*
X87527883Y-154195403D01*
X87605089Y-154580937D01*
X87603949Y-154588724D01*
X87598134Y-154594027D01*
X87380517Y-154685109D01*
X87376000Y-154686016D01*
X87371483Y-154685109D01*
X87153865Y-154594027D01*
X87148050Y-154588724D01*
X87146910Y-154580939D01*
X87224116Y-154195403D01*
X87228172Y-154188651D01*
X87235589Y-154186000D01*
X87516411Y-154186000D01*
X87523828Y-154188651D01*
G37*
%TD.AperFunction*%
%TD*%
%TA.AperFunction,Conductor*%
%TO.N,Net-(U4-C1P)*%
G36*
X86199328Y-154188651D02*
G01*
X86203383Y-154195403D01*
X86280589Y-154580937D01*
X86279449Y-154588724D01*
X86273634Y-154594027D01*
X86056017Y-154685109D01*
X86051500Y-154686016D01*
X86046983Y-154685109D01*
X85829365Y-154594027D01*
X85823550Y-154588724D01*
X85822410Y-154580939D01*
X85899616Y-154195403D01*
X85903672Y-154188651D01*
X85911089Y-154186000D01*
X86191911Y-154186000D01*
X86199328Y-154188651D01*
G37*
%TD.AperFunction*%
%TD*%
%TA.AperFunction,Conductor*%
%TO.N,Net-(U4-C1P)*%
G36*
X86082780Y-145580945D02*
G01*
X86086068Y-145586742D01*
X86198188Y-146072031D01*
X86197687Y-146078920D01*
X86193387Y-146084326D01*
X86186788Y-146086365D01*
X85906558Y-146086365D01*
X85901916Y-146085405D01*
X85898035Y-146082681D01*
X85894498Y-146078920D01*
X85682973Y-145854017D01*
X85679798Y-145845840D01*
X85683200Y-145837754D01*
X85850332Y-145669677D01*
X85854188Y-145667102D01*
X86070232Y-145578549D01*
X86076861Y-145577883D01*
X86082780Y-145580945D01*
G37*
%TD.AperFunction*%
%TD*%
%TA.AperFunction,Conductor*%
%TO.N,+5V*%
G36*
X62001312Y-174307539D02*
G01*
X62130751Y-174323719D01*
X62138071Y-174327586D01*
X62141000Y-174335329D01*
X62141000Y-174914671D01*
X62138071Y-174922414D01*
X62130751Y-174926281D01*
X61354117Y-175023360D01*
X61347684Y-175022336D01*
X61342795Y-175018031D01*
X61340966Y-175011782D01*
X61340000Y-174625000D01*
X61340966Y-174238216D01*
X61342795Y-174231968D01*
X61347684Y-174227663D01*
X61354114Y-174226639D01*
X62001312Y-174307539D01*
G37*
%TD.AperFunction*%
%TD*%
%TA.AperFunction,Conductor*%
%TO.N,+5V*%
G36*
X73259527Y-174224481D02*
G01*
X73533707Y-174497293D01*
X73533749Y-174497335D01*
X73806518Y-174771472D01*
X73809645Y-174777186D01*
X73809232Y-174783687D01*
X73805407Y-174788959D01*
X73187599Y-175269475D01*
X73179689Y-175271917D01*
X73172143Y-175268513D01*
X72762486Y-174858856D01*
X72759082Y-174851310D01*
X72761524Y-174843400D01*
X72803867Y-174788959D01*
X73242042Y-174225590D01*
X73247312Y-174221767D01*
X73253813Y-174221354D01*
X73259527Y-174224481D01*
G37*
%TD.AperFunction*%
%TD*%
%TA.AperFunction,Conductor*%
%TO.N,/IO16*%
G36*
X72394514Y-144272889D02*
G01*
X72611038Y-144363514D01*
X72617153Y-144369423D01*
X72617652Y-144377912D01*
X72492622Y-144763905D01*
X72488372Y-144769762D01*
X72481491Y-144772000D01*
X72298509Y-144772000D01*
X72291628Y-144769762D01*
X72287378Y-144763905D01*
X72162347Y-144377912D01*
X72162846Y-144369423D01*
X72168960Y-144363514D01*
X72385485Y-144272889D01*
X72390000Y-144271983D01*
X72394514Y-144272889D01*
G37*
%TD.AperFunction*%
%TD*%
%TA.AperFunction,Conductor*%
%TO.N,/IO16*%
G36*
X72488372Y-157617238D02*
G01*
X72492622Y-157623095D01*
X72617652Y-158009087D01*
X72617153Y-158017576D01*
X72611038Y-158023485D01*
X72394517Y-158114109D01*
X72390000Y-158115016D01*
X72385483Y-158114109D01*
X72168961Y-158023485D01*
X72162846Y-158017576D01*
X72162347Y-158009088D01*
X72287377Y-157623095D01*
X72291628Y-157617238D01*
X72298509Y-157615000D01*
X72481491Y-157615000D01*
X72488372Y-157617238D01*
G37*
%TD.AperFunction*%
%TD*%
%TA.AperFunction,Conductor*%
%TO.N,Net-(Q2-B)*%
G36*
X71840039Y-161527089D02*
G01*
X71967505Y-161568378D01*
X71973362Y-161572628D01*
X71975600Y-161579509D01*
X71975600Y-161762491D01*
X71973362Y-161769372D01*
X71967505Y-161773622D01*
X71581512Y-161898652D01*
X71573023Y-161898153D01*
X71567114Y-161892038D01*
X71476489Y-161675514D01*
X71475583Y-161671000D01*
X71476489Y-161666485D01*
X71567114Y-161449960D01*
X71573023Y-161443846D01*
X71581511Y-161443347D01*
X71840039Y-161527089D01*
G37*
%TD.AperFunction*%
%TD*%
%TA.AperFunction,Conductor*%
%TO.N,Net-(Q2-B)*%
G36*
X74708988Y-160944410D02*
G01*
X74926178Y-161033436D01*
X74930011Y-161035988D01*
X74932564Y-161039823D01*
X75021588Y-161257008D01*
X75021733Y-161265511D01*
X75016083Y-161271866D01*
X74654734Y-161456394D01*
X74647588Y-161457531D01*
X74641140Y-161454247D01*
X74511752Y-161324859D01*
X74508468Y-161318411D01*
X74509604Y-161311267D01*
X74694135Y-160949913D01*
X74700488Y-160944266D01*
X74708988Y-160944410D01*
G37*
%TD.AperFunction*%
%TD*%
%TA.AperFunction,Conductor*%
%TO.N,/IO0*%
G36*
X72833032Y-160588713D02*
G01*
X73153231Y-160799731D01*
X73157972Y-160806047D01*
X73157619Y-160813937D01*
X73068164Y-161032175D01*
X73065611Y-161036011D01*
X73061775Y-161038564D01*
X72845825Y-161127081D01*
X72839688Y-161127831D01*
X72834026Y-161125348D01*
X72830419Y-161120326D01*
X72799383Y-161036707D01*
X72686257Y-160731920D01*
X72685796Y-160725355D01*
X72688952Y-160719580D01*
X72818323Y-160590209D01*
X72825411Y-160586843D01*
X72833032Y-160588713D01*
G37*
%TD.AperFunction*%
%TD*%
%TA.AperFunction,Conductor*%
%TO.N,/IO0*%
G36*
X71482866Y-153583916D02*
G01*
X71667394Y-153945265D01*
X71668531Y-153952411D01*
X71665247Y-153958859D01*
X71535859Y-154088247D01*
X71529411Y-154091531D01*
X71522265Y-154090394D01*
X71252062Y-153952411D01*
X71160915Y-153905865D01*
X71155266Y-153899511D01*
X71155410Y-153891011D01*
X71244438Y-153673818D01*
X71246988Y-153669988D01*
X71250818Y-153667438D01*
X71468011Y-153578410D01*
X71476511Y-153578266D01*
X71482866Y-153583916D01*
G37*
%TD.AperFunction*%
%TD*%
%TA.AperFunction,Conductor*%
%TO.N,/DTR*%
G36*
X73819434Y-165008183D02*
G01*
X74037176Y-165097435D01*
X74041011Y-165099988D01*
X74043564Y-165103824D01*
X74132815Y-165321564D01*
X74133071Y-165329752D01*
X74127894Y-165336101D01*
X73783629Y-165537385D01*
X73776229Y-165538889D01*
X73769451Y-165535558D01*
X73605441Y-165371548D01*
X73602110Y-165364770D01*
X73603613Y-165357374D01*
X73804899Y-165013103D01*
X73811247Y-165007928D01*
X73819434Y-165008183D01*
G37*
%TD.AperFunction*%
%TD*%
%TA.AperFunction,Conductor*%
%TO.N,/DTR*%
G36*
X65155514Y-162941889D02*
G01*
X65372591Y-163032745D01*
X65378563Y-163038354D01*
X65379392Y-163046504D01*
X65278289Y-163432266D01*
X65274119Y-163438563D01*
X65266971Y-163441000D01*
X65035029Y-163441000D01*
X65027881Y-163438563D01*
X65023711Y-163432266D01*
X64922607Y-163046504D01*
X64923436Y-163038354D01*
X64929406Y-163032746D01*
X65146485Y-162941889D01*
X65151000Y-162940983D01*
X65155514Y-162941889D01*
G37*
%TD.AperFunction*%
%TD*%
%TA.AperFunction,Conductor*%
%TO.N,/DTR*%
G36*
X74045514Y-165100889D02*
G01*
X74262038Y-165191514D01*
X74268153Y-165197423D01*
X74268652Y-165205912D01*
X74143622Y-165591905D01*
X74139372Y-165597762D01*
X74132491Y-165600000D01*
X73949509Y-165600000D01*
X73942628Y-165597762D01*
X73938378Y-165591905D01*
X73813347Y-165205912D01*
X73813846Y-165197423D01*
X73819960Y-165191514D01*
X74036485Y-165100889D01*
X74041000Y-165099983D01*
X74045514Y-165100889D01*
G37*
%TD.AperFunction*%
%TD*%
%TA.AperFunction,Conductor*%
%TO.N,/DTR*%
G36*
X71916859Y-171285752D02*
G01*
X72046247Y-171415140D01*
X72049531Y-171421588D01*
X72048394Y-171428734D01*
X71863866Y-171790083D01*
X71857511Y-171795733D01*
X71849009Y-171795588D01*
X71631822Y-171706563D01*
X71627988Y-171704011D01*
X71625436Y-171700178D01*
X71536410Y-171482988D01*
X71536266Y-171474488D01*
X71541913Y-171468135D01*
X71903267Y-171283604D01*
X71910411Y-171282468D01*
X71916859Y-171285752D01*
G37*
%TD.AperFunction*%
%TD*%
%TA.AperFunction,Conductor*%
%TO.N,/DATA0*%
G36*
X65929109Y-152471002D02*
G01*
X66058497Y-152600390D01*
X66061781Y-152606838D01*
X66060644Y-152613984D01*
X65876116Y-152975333D01*
X65869761Y-152980983D01*
X65861259Y-152980838D01*
X65644072Y-152891813D01*
X65640238Y-152889261D01*
X65637686Y-152885428D01*
X65548660Y-152668238D01*
X65548516Y-152659738D01*
X65554163Y-152653385D01*
X65915517Y-152468854D01*
X65922661Y-152467718D01*
X65929109Y-152471002D01*
G37*
%TD.AperFunction*%
%TD*%
%TA.AperFunction,Conductor*%
%TO.N,/DATA0*%
G36*
X68076514Y-148844889D02*
G01*
X68293038Y-148935514D01*
X68299153Y-148941423D01*
X68299652Y-148949912D01*
X68174622Y-149335905D01*
X68170372Y-149341762D01*
X68163491Y-149344000D01*
X67980509Y-149344000D01*
X67973628Y-149341762D01*
X67969378Y-149335905D01*
X67844347Y-148949912D01*
X67844846Y-148941423D01*
X67850960Y-148935514D01*
X68067485Y-148844889D01*
X68072000Y-148843983D01*
X68076514Y-148844889D01*
G37*
%TD.AperFunction*%
%TD*%
%TA.AperFunction,Conductor*%
%TO.N,/CMD*%
G36*
X65040122Y-154613988D02*
G01*
X65044372Y-154619845D01*
X65169402Y-155005837D01*
X65168903Y-155014326D01*
X65162788Y-155020235D01*
X64946266Y-155110859D01*
X64941749Y-155111766D01*
X64937232Y-155110859D01*
X64720711Y-155020235D01*
X64714596Y-155014325D01*
X64714097Y-155005838D01*
X64839127Y-154619845D01*
X64843378Y-154613988D01*
X64850259Y-154611750D01*
X65033241Y-154611750D01*
X65040122Y-154613988D01*
G37*
%TD.AperFunction*%
%TD*%
%TA.AperFunction,Conductor*%
%TO.N,/CMD*%
G36*
X66199988Y-149006410D02*
G01*
X66417178Y-149095436D01*
X66421011Y-149097988D01*
X66423564Y-149101823D01*
X66512588Y-149319008D01*
X66512733Y-149327511D01*
X66507083Y-149333866D01*
X66145734Y-149518394D01*
X66138588Y-149519531D01*
X66132140Y-149516247D01*
X66002752Y-149386859D01*
X65999468Y-149380411D01*
X66000604Y-149373267D01*
X66185135Y-149011913D01*
X66191488Y-149006266D01*
X66199988Y-149006410D01*
G37*
%TD.AperFunction*%
%TD*%
%TA.AperFunction,Conductor*%
%TO.N,/DATA3*%
G36*
X58147866Y-149011916D02*
G01*
X58332394Y-149373265D01*
X58333531Y-149380411D01*
X58330247Y-149386859D01*
X58200859Y-149516247D01*
X58194411Y-149519531D01*
X58187265Y-149518394D01*
X57917062Y-149380411D01*
X57825915Y-149333865D01*
X57820266Y-149327511D01*
X57820410Y-149319011D01*
X57909438Y-149101818D01*
X57911988Y-149097988D01*
X57915818Y-149095438D01*
X58133011Y-149006410D01*
X58141511Y-149006266D01*
X58147866Y-149011916D01*
G37*
%TD.AperFunction*%
%TD*%
%TA.AperFunction,Conductor*%
%TO.N,/DATA3*%
G36*
X65352326Y-155900596D02*
G01*
X65358235Y-155906711D01*
X65448859Y-156123233D01*
X65449766Y-156127750D01*
X65448859Y-156132267D01*
X65358235Y-156348788D01*
X65352326Y-156354903D01*
X65343837Y-156355402D01*
X64957845Y-156230372D01*
X64951988Y-156226122D01*
X64949750Y-156219241D01*
X64949750Y-156036259D01*
X64951988Y-156029378D01*
X64957845Y-156025128D01*
X65027134Y-156002683D01*
X65343838Y-155900097D01*
X65352326Y-155900596D01*
G37*
%TD.AperFunction*%
%TD*%
%TA.AperFunction,Conductor*%
%TO.N,/IO22*%
G36*
X72627439Y-132629089D02*
G01*
X72754905Y-132670378D01*
X72760762Y-132674628D01*
X72763000Y-132681509D01*
X72763000Y-132864491D01*
X72760762Y-132871372D01*
X72754905Y-132875622D01*
X72368912Y-133000652D01*
X72360423Y-133000153D01*
X72354514Y-132994038D01*
X72263889Y-132777514D01*
X72262983Y-132773000D01*
X72263889Y-132768485D01*
X72354514Y-132551960D01*
X72360423Y-132545846D01*
X72368911Y-132545347D01*
X72627439Y-132629089D01*
G37*
%TD.AperFunction*%
%TD*%
%TA.AperFunction,Conductor*%
%TO.N,/IO22*%
G36*
X81759372Y-148854238D02*
G01*
X81763622Y-148860095D01*
X81888652Y-149246087D01*
X81888153Y-149254576D01*
X81882038Y-149260485D01*
X81665517Y-149351109D01*
X81661000Y-149352016D01*
X81656483Y-149351109D01*
X81439961Y-149260485D01*
X81433846Y-149254576D01*
X81433347Y-149246088D01*
X81558377Y-148860095D01*
X81562628Y-148854238D01*
X81569509Y-148852000D01*
X81752491Y-148852000D01*
X81759372Y-148854238D01*
G37*
%TD.AperFunction*%
%TD*%
%TA.AperFunction,Conductor*%
%TO.N,/IO21*%
G36*
X80806859Y-148806752D02*
G01*
X80936247Y-148936140D01*
X80939531Y-148942588D01*
X80938394Y-148949734D01*
X80753866Y-149311083D01*
X80747511Y-149316733D01*
X80739009Y-149316588D01*
X80521822Y-149227563D01*
X80517988Y-149225011D01*
X80515436Y-149221178D01*
X80426410Y-149003988D01*
X80426266Y-148995488D01*
X80431913Y-148989135D01*
X80793267Y-148804604D01*
X80800411Y-148803468D01*
X80806859Y-148806752D01*
G37*
%TD.AperFunction*%
%TD*%
%TA.AperFunction,Conductor*%
%TO.N,/IO21*%
G36*
X72627439Y-136439089D02*
G01*
X72754905Y-136480378D01*
X72760762Y-136484628D01*
X72763000Y-136491509D01*
X72763000Y-136674491D01*
X72760762Y-136681372D01*
X72754905Y-136685622D01*
X72368912Y-136810652D01*
X72360423Y-136810153D01*
X72354514Y-136804038D01*
X72263889Y-136587514D01*
X72262983Y-136583000D01*
X72263889Y-136578485D01*
X72354514Y-136361960D01*
X72360423Y-136355846D01*
X72368911Y-136355347D01*
X72627439Y-136439089D01*
G37*
%TD.AperFunction*%
%TD*%
%TA.AperFunction,Conductor*%
%TO.N,/CAN_RX*%
G36*
X55355439Y-138921089D02*
G01*
X55482905Y-138962378D01*
X55488762Y-138966628D01*
X55491000Y-138973509D01*
X55491000Y-139156491D01*
X55488762Y-139163372D01*
X55482905Y-139167622D01*
X55096912Y-139292652D01*
X55088423Y-139292153D01*
X55082514Y-139286038D01*
X54991889Y-139069514D01*
X54990983Y-139065000D01*
X54991889Y-139060485D01*
X55082514Y-138843960D01*
X55088423Y-138837846D01*
X55096911Y-138837347D01*
X55355439Y-138921089D01*
G37*
%TD.AperFunction*%
%TD*%
%TA.AperFunction,Conductor*%
%TO.N,/CAN_RX*%
G36*
X77702733Y-138898604D02*
G01*
X78064084Y-139083134D01*
X78069733Y-139089488D01*
X78069588Y-139097991D01*
X77980564Y-139315176D01*
X77978011Y-139319011D01*
X77974176Y-139321564D01*
X77756991Y-139410588D01*
X77748488Y-139410733D01*
X77742134Y-139405084D01*
X77557604Y-139043733D01*
X77556468Y-139036588D01*
X77559750Y-139030142D01*
X77689142Y-138900750D01*
X77695588Y-138897468D01*
X77702733Y-138898604D01*
G37*
%TD.AperFunction*%
%TD*%
%TA.AperFunction,Conductor*%
%TO.N,/CAN_TX*%
G36*
X74156860Y-137671510D02*
G01*
X74164781Y-137675092D01*
X74168044Y-137683151D01*
X74168980Y-137917107D01*
X74168092Y-137921625D01*
X74165530Y-137925450D01*
X73999342Y-138090703D01*
X73991185Y-138094107D01*
X73982976Y-138090834D01*
X73841989Y-137955051D01*
X73739610Y-137856451D01*
X73736960Y-137852604D01*
X73736027Y-137848025D01*
X73736027Y-137665226D01*
X73737681Y-137659228D01*
X73742176Y-137654926D01*
X73748240Y-137653537D01*
X74156860Y-137671510D01*
G37*
%TD.AperFunction*%
%TD*%
%TA.AperFunction,Conductor*%
%TO.N,/CAN_TX*%
G36*
X55482439Y-140191089D02*
G01*
X55609905Y-140232378D01*
X55615762Y-140236628D01*
X55618000Y-140243509D01*
X55618000Y-140426491D01*
X55615762Y-140433372D01*
X55609905Y-140437622D01*
X55223912Y-140562652D01*
X55215423Y-140562153D01*
X55209514Y-140556038D01*
X55118889Y-140339514D01*
X55117983Y-140335000D01*
X55118889Y-140330485D01*
X55209514Y-140113960D01*
X55215423Y-140107846D01*
X55223911Y-140107347D01*
X55482439Y-140191089D01*
G37*
%TD.AperFunction*%
%TD*%
%TA.AperFunction,Conductor*%
%TO.N,/IO18*%
G36*
X73505441Y-140222929D02*
G01*
X73814019Y-140476380D01*
X73817673Y-140481663D01*
X73817987Y-140488079D01*
X73814866Y-140493694D01*
X73685771Y-140622789D01*
X73678047Y-140626203D01*
X73332714Y-140642426D01*
X73326645Y-140641055D01*
X73322137Y-140636766D01*
X73320465Y-140630773D01*
X73319806Y-140397181D01*
X73320699Y-140392668D01*
X73323262Y-140388851D01*
X73489777Y-140223663D01*
X73497467Y-140220283D01*
X73505441Y-140222929D01*
G37*
%TD.AperFunction*%
%TD*%
%TA.AperFunction,Conductor*%
%TO.N,/IO18*%
G36*
X76940733Y-143597604D02*
G01*
X77302084Y-143782134D01*
X77307733Y-143788488D01*
X77307588Y-143796991D01*
X77218564Y-144014176D01*
X77216011Y-144018011D01*
X77212176Y-144020564D01*
X76994991Y-144109588D01*
X76986488Y-144109733D01*
X76980134Y-144104084D01*
X76887388Y-143922466D01*
X76886230Y-143918821D01*
X76883141Y-143897330D01*
X76829326Y-143779493D01*
X76798425Y-143743831D01*
X76795575Y-143735752D01*
X76798994Y-143727898D01*
X76927142Y-143599750D01*
X76933588Y-143596468D01*
X76940733Y-143597604D01*
G37*
%TD.AperFunction*%
%TD*%
%TA.AperFunction,Conductor*%
%TO.N,/IO19*%
G36*
X74285733Y-142847604D02*
G01*
X74647084Y-143032134D01*
X74652733Y-143038488D01*
X74652588Y-143046991D01*
X74563564Y-143264176D01*
X74561011Y-143268011D01*
X74557176Y-143270564D01*
X74339991Y-143359588D01*
X74331488Y-143359733D01*
X74325134Y-143354084D01*
X74140604Y-142992733D01*
X74139468Y-142985588D01*
X74142750Y-142979142D01*
X74272142Y-142849750D01*
X74278588Y-142846468D01*
X74285733Y-142847604D01*
G37*
%TD.AperFunction*%
%TD*%
%TA.AperFunction,Conductor*%
%TO.N,/IO19*%
G36*
X72897625Y-139122907D02*
G01*
X72901448Y-139125467D01*
X72905115Y-139129155D01*
X73067783Y-139292744D01*
X73071150Y-139300065D01*
X73068985Y-139307827D01*
X72874501Y-139578170D01*
X72870339Y-139581749D01*
X72865003Y-139583037D01*
X72682129Y-139583037D01*
X72674065Y-139579814D01*
X72670444Y-139571921D01*
X72648611Y-139135232D01*
X72649967Y-139129155D01*
X72654251Y-139124633D01*
X72660248Y-139122951D01*
X72893109Y-139122019D01*
X72897625Y-139122907D01*
G37*
%TD.AperFunction*%
%TD*%
%TA.AperFunction,Conductor*%
%TO.N,/ESP_RX*%
G36*
X69854515Y-143764889D02*
G01*
X70071591Y-143855745D01*
X70077563Y-143861354D01*
X70078392Y-143869504D01*
X69977289Y-144255266D01*
X69973119Y-144261563D01*
X69965971Y-144264000D01*
X69734029Y-144264000D01*
X69726881Y-144261563D01*
X69722711Y-144255266D01*
X69621607Y-143869504D01*
X69622436Y-143861354D01*
X69628406Y-143855746D01*
X69845486Y-143764889D01*
X69849999Y-143763983D01*
X69854515Y-143764889D01*
G37*
%TD.AperFunction*%
%TD*%
%TA.AperFunction,Conductor*%
%TO.N,/ESP_RX*%
G36*
X69973119Y-165110437D02*
G01*
X69977289Y-165116734D01*
X70078392Y-165502495D01*
X70077563Y-165510645D01*
X70071591Y-165516254D01*
X69854517Y-165607109D01*
X69850000Y-165608016D01*
X69845483Y-165607109D01*
X69628408Y-165516254D01*
X69622436Y-165510645D01*
X69621607Y-165502495D01*
X69722711Y-165116734D01*
X69726881Y-165110437D01*
X69734029Y-165108000D01*
X69965971Y-165108000D01*
X69973119Y-165110437D01*
G37*
%TD.AperFunction*%
%TD*%
%TA.AperFunction,Conductor*%
%TO.N,/ESP_TX*%
G36*
X68957119Y-165110437D02*
G01*
X68961289Y-165116734D01*
X69062392Y-165502495D01*
X69061563Y-165510645D01*
X69055591Y-165516254D01*
X68838517Y-165607109D01*
X68834000Y-165608016D01*
X68829483Y-165607109D01*
X68612408Y-165516254D01*
X68606436Y-165510645D01*
X68605607Y-165502495D01*
X68706711Y-165116734D01*
X68710881Y-165110437D01*
X68718029Y-165108000D01*
X68949971Y-165108000D01*
X68957119Y-165110437D01*
G37*
%TD.AperFunction*%
%TD*%
%TA.AperFunction,Conductor*%
%TO.N,/ESP_TX*%
G36*
X68838514Y-143891889D02*
G01*
X69055591Y-143982745D01*
X69061563Y-143988354D01*
X69062392Y-143996504D01*
X68961289Y-144382266D01*
X68957119Y-144388563D01*
X68949971Y-144391000D01*
X68718029Y-144391000D01*
X68710881Y-144388563D01*
X68706711Y-144382266D01*
X68605607Y-143996504D01*
X68606436Y-143988354D01*
X68612406Y-143982746D01*
X68829485Y-143891889D01*
X68834000Y-143890983D01*
X68838514Y-143891889D01*
G37*
%TD.AperFunction*%
%TD*%
%TA.AperFunction,Conductor*%
%TO.N,/IO23*%
G36*
X72661170Y-138211410D02*
G01*
X72878360Y-138300436D01*
X72882193Y-138302988D01*
X72884746Y-138306823D01*
X72973770Y-138524008D01*
X72973915Y-138532511D01*
X72968265Y-138538866D01*
X72606916Y-138723394D01*
X72599770Y-138724531D01*
X72593322Y-138721247D01*
X72463934Y-138591859D01*
X72460650Y-138585411D01*
X72461786Y-138578267D01*
X72646317Y-138216913D01*
X72652670Y-138211266D01*
X72661170Y-138211410D01*
G37*
%TD.AperFunction*%
%TD*%
%TA.AperFunction,Conductor*%
%TO.N,/IO23*%
G36*
X76349020Y-143798402D02*
G01*
X76354929Y-143804517D01*
X76445553Y-144021039D01*
X76446460Y-144025556D01*
X76445553Y-144030073D01*
X76354929Y-144246594D01*
X76349020Y-144252709D01*
X76340531Y-144253208D01*
X75954539Y-144128178D01*
X75948682Y-144123928D01*
X75946444Y-144117047D01*
X75946444Y-143934065D01*
X75948682Y-143927184D01*
X75954539Y-143922934D01*
X76023828Y-143900489D01*
X76340532Y-143797903D01*
X76349020Y-143798402D01*
G37*
%TD.AperFunction*%
%TD*%
%TA.AperFunction,Conductor*%
%TO.N,/D+*%
G36*
X70590733Y-174077604D02*
G01*
X70952084Y-174262134D01*
X70957733Y-174268488D01*
X70957588Y-174276991D01*
X70868564Y-174494176D01*
X70866011Y-174498011D01*
X70862176Y-174500564D01*
X70644991Y-174589588D01*
X70636488Y-174589733D01*
X70630134Y-174584084D01*
X70445604Y-174222733D01*
X70444468Y-174215588D01*
X70447750Y-174209142D01*
X70577142Y-174079750D01*
X70583588Y-174076468D01*
X70590733Y-174077604D01*
G37*
%TD.AperFunction*%
%TD*%
%TA.AperFunction,Conductor*%
%TO.N,/D+*%
G36*
X68182439Y-171941089D02*
G01*
X68309905Y-171982378D01*
X68315762Y-171986628D01*
X68318000Y-171993509D01*
X68318000Y-172176491D01*
X68315762Y-172183372D01*
X68309905Y-172187622D01*
X67923912Y-172312652D01*
X67915423Y-172312153D01*
X67909514Y-172306038D01*
X67818890Y-172089516D01*
X67817983Y-172084999D01*
X67818889Y-172080486D01*
X67909514Y-171863960D01*
X67915423Y-171857846D01*
X67923911Y-171857347D01*
X68182439Y-171941089D01*
G37*
%TD.AperFunction*%
%TD*%
M02*
