%TF.GenerationSoftware,KiCad,Pcbnew,(7.0.0)*%
%TF.CreationDate,2023-02-28T10:18:38+08:00*%
%TF.ProjectId,ESP32_DK,45535033-325f-4444-9b2e-6b696361645f,rev?*%
%TF.SameCoordinates,Original*%
%TF.FileFunction,Drillmap*%
%TF.FilePolarity,Positive*%
%FSLAX45Y45*%
G04 Gerber Fmt 4.5, Leading zero omitted, Abs format (unit mm)*
G04 Created by KiCad (PCBNEW (7.0.0)) date 2023-02-28 10:18:38*
%MOMM*%
%LPD*%
G01*
G04 APERTURE LIST*
%ADD10C,0.100000*%
%ADD11C,0.200000*%
%ADD12C,0.065000*%
G04 APERTURE END LIST*
D10*
X5384800Y-17792700D02*
G75*
G03*
X5384800Y-17792700I-152400J0D01*
G01*
X8559800Y-13233400D02*
G75*
G03*
X8559800Y-13233400I-152400J0D01*
G01*
X4826000Y-12827000D02*
X8813800Y-12827000D01*
X8813800Y-12827000D02*
X8813800Y-18199100D01*
X8813800Y-18199100D02*
X4826000Y-18199100D01*
X4826000Y-18199100D02*
X4826000Y-12827000D01*
D11*
D12*
X6701600Y-17693100D02*
X6766600Y-17758100D01*
X6766600Y-17693100D02*
X6701600Y-17758100D01*
X7279600Y-17693100D02*
X7344600Y-17758100D01*
X7344600Y-17693100D02*
X7279600Y-17758100D01*
D11*
X5068619Y-18497576D02*
X5068619Y-18297576D01*
X5068619Y-18297576D02*
X5116238Y-18297576D01*
X5116238Y-18297576D02*
X5144810Y-18307100D01*
X5144810Y-18307100D02*
X5163857Y-18326148D01*
X5163857Y-18326148D02*
X5173381Y-18345195D01*
X5173381Y-18345195D02*
X5182905Y-18383290D01*
X5182905Y-18383290D02*
X5182905Y-18411862D01*
X5182905Y-18411862D02*
X5173381Y-18449957D01*
X5173381Y-18449957D02*
X5163857Y-18469005D01*
X5163857Y-18469005D02*
X5144810Y-18488052D01*
X5144810Y-18488052D02*
X5116238Y-18497576D01*
X5116238Y-18497576D02*
X5068619Y-18497576D01*
X5268619Y-18497576D02*
X5268619Y-18364243D01*
X5268619Y-18402338D02*
X5278143Y-18383290D01*
X5278143Y-18383290D02*
X5287667Y-18373767D01*
X5287667Y-18373767D02*
X5306714Y-18364243D01*
X5306714Y-18364243D02*
X5325762Y-18364243D01*
X5392429Y-18497576D02*
X5392429Y-18364243D01*
X5392429Y-18297576D02*
X5382905Y-18307100D01*
X5382905Y-18307100D02*
X5392429Y-18316624D01*
X5392429Y-18316624D02*
X5401952Y-18307100D01*
X5401952Y-18307100D02*
X5392429Y-18297576D01*
X5392429Y-18297576D02*
X5392429Y-18316624D01*
X5516238Y-18497576D02*
X5497190Y-18488052D01*
X5497190Y-18488052D02*
X5487667Y-18469005D01*
X5487667Y-18469005D02*
X5487667Y-18297576D01*
X5621000Y-18497576D02*
X5601952Y-18488052D01*
X5601952Y-18488052D02*
X5592428Y-18469005D01*
X5592428Y-18469005D02*
X5592428Y-18297576D01*
X5817190Y-18497576D02*
X5817190Y-18297576D01*
X5817190Y-18297576D02*
X5883857Y-18440433D01*
X5883857Y-18440433D02*
X5950524Y-18297576D01*
X5950524Y-18297576D02*
X5950524Y-18497576D01*
X6131476Y-18497576D02*
X6131476Y-18392814D01*
X6131476Y-18392814D02*
X6121952Y-18373767D01*
X6121952Y-18373767D02*
X6102905Y-18364243D01*
X6102905Y-18364243D02*
X6064809Y-18364243D01*
X6064809Y-18364243D02*
X6045762Y-18373767D01*
X6131476Y-18488052D02*
X6112428Y-18497576D01*
X6112428Y-18497576D02*
X6064809Y-18497576D01*
X6064809Y-18497576D02*
X6045762Y-18488052D01*
X6045762Y-18488052D02*
X6036238Y-18469005D01*
X6036238Y-18469005D02*
X6036238Y-18449957D01*
X6036238Y-18449957D02*
X6045762Y-18430910D01*
X6045762Y-18430910D02*
X6064809Y-18421386D01*
X6064809Y-18421386D02*
X6112428Y-18421386D01*
X6112428Y-18421386D02*
X6131476Y-18411862D01*
X6226714Y-18364243D02*
X6226714Y-18564243D01*
X6226714Y-18373767D02*
X6245762Y-18364243D01*
X6245762Y-18364243D02*
X6283857Y-18364243D01*
X6283857Y-18364243D02*
X6302905Y-18373767D01*
X6302905Y-18373767D02*
X6312428Y-18383290D01*
X6312428Y-18383290D02*
X6321952Y-18402338D01*
X6321952Y-18402338D02*
X6321952Y-18459481D01*
X6321952Y-18459481D02*
X6312428Y-18478529D01*
X6312428Y-18478529D02*
X6302905Y-18488052D01*
X6302905Y-18488052D02*
X6283857Y-18497576D01*
X6283857Y-18497576D02*
X6245762Y-18497576D01*
X6245762Y-18497576D02*
X6226714Y-18488052D01*
X6407667Y-18478529D02*
X6417190Y-18488052D01*
X6417190Y-18488052D02*
X6407667Y-18497576D01*
X6407667Y-18497576D02*
X6398143Y-18488052D01*
X6398143Y-18488052D02*
X6407667Y-18478529D01*
X6407667Y-18478529D02*
X6407667Y-18497576D01*
X6407667Y-18373767D02*
X6417190Y-18383290D01*
X6417190Y-18383290D02*
X6407667Y-18392814D01*
X6407667Y-18392814D02*
X6398143Y-18383290D01*
X6398143Y-18383290D02*
X6407667Y-18373767D01*
X6407667Y-18373767D02*
X6407667Y-18392814D01*
D12*
X4756000Y-18811600D02*
X4821000Y-18876600D01*
X4821000Y-18811600D02*
X4756000Y-18876600D01*
D11*
X5106714Y-18717576D02*
X5125762Y-18717576D01*
X5125762Y-18717576D02*
X5144810Y-18727100D01*
X5144810Y-18727100D02*
X5154333Y-18736624D01*
X5154333Y-18736624D02*
X5163857Y-18755671D01*
X5163857Y-18755671D02*
X5173381Y-18793767D01*
X5173381Y-18793767D02*
X5173381Y-18841386D01*
X5173381Y-18841386D02*
X5163857Y-18879481D01*
X5163857Y-18879481D02*
X5154333Y-18898529D01*
X5154333Y-18898529D02*
X5144810Y-18908052D01*
X5144810Y-18908052D02*
X5125762Y-18917576D01*
X5125762Y-18917576D02*
X5106714Y-18917576D01*
X5106714Y-18917576D02*
X5087667Y-18908052D01*
X5087667Y-18908052D02*
X5078143Y-18898529D01*
X5078143Y-18898529D02*
X5068619Y-18879481D01*
X5068619Y-18879481D02*
X5059095Y-18841386D01*
X5059095Y-18841386D02*
X5059095Y-18793767D01*
X5059095Y-18793767D02*
X5068619Y-18755671D01*
X5068619Y-18755671D02*
X5078143Y-18736624D01*
X5078143Y-18736624D02*
X5087667Y-18727100D01*
X5087667Y-18727100D02*
X5106714Y-18717576D01*
X5259095Y-18898529D02*
X5268619Y-18908052D01*
X5268619Y-18908052D02*
X5259095Y-18917576D01*
X5259095Y-18917576D02*
X5249571Y-18908052D01*
X5249571Y-18908052D02*
X5259095Y-18898529D01*
X5259095Y-18898529D02*
X5259095Y-18917576D01*
X5440048Y-18717576D02*
X5401952Y-18717576D01*
X5401952Y-18717576D02*
X5382905Y-18727100D01*
X5382905Y-18727100D02*
X5373381Y-18736624D01*
X5373381Y-18736624D02*
X5354333Y-18765195D01*
X5354333Y-18765195D02*
X5344810Y-18803290D01*
X5344810Y-18803290D02*
X5344810Y-18879481D01*
X5344810Y-18879481D02*
X5354333Y-18898529D01*
X5354333Y-18898529D02*
X5363857Y-18908052D01*
X5363857Y-18908052D02*
X5382905Y-18917576D01*
X5382905Y-18917576D02*
X5421000Y-18917576D01*
X5421000Y-18917576D02*
X5440048Y-18908052D01*
X5440048Y-18908052D02*
X5449571Y-18898529D01*
X5449571Y-18898529D02*
X5459095Y-18879481D01*
X5459095Y-18879481D02*
X5459095Y-18831862D01*
X5459095Y-18831862D02*
X5449571Y-18812814D01*
X5449571Y-18812814D02*
X5440048Y-18803290D01*
X5440048Y-18803290D02*
X5421000Y-18793767D01*
X5421000Y-18793767D02*
X5382905Y-18793767D01*
X5382905Y-18793767D02*
X5363857Y-18803290D01*
X5363857Y-18803290D02*
X5354333Y-18812814D01*
X5354333Y-18812814D02*
X5344810Y-18831862D01*
X5640048Y-18717576D02*
X5544810Y-18717576D01*
X5544810Y-18717576D02*
X5535286Y-18812814D01*
X5535286Y-18812814D02*
X5544810Y-18803290D01*
X5544810Y-18803290D02*
X5563857Y-18793767D01*
X5563857Y-18793767D02*
X5611476Y-18793767D01*
X5611476Y-18793767D02*
X5630524Y-18803290D01*
X5630524Y-18803290D02*
X5640048Y-18812814D01*
X5640048Y-18812814D02*
X5649571Y-18831862D01*
X5649571Y-18831862D02*
X5649571Y-18879481D01*
X5649571Y-18879481D02*
X5640048Y-18898529D01*
X5640048Y-18898529D02*
X5630524Y-18908052D01*
X5630524Y-18908052D02*
X5611476Y-18917576D01*
X5611476Y-18917576D02*
X5563857Y-18917576D01*
X5563857Y-18917576D02*
X5544810Y-18908052D01*
X5544810Y-18908052D02*
X5535286Y-18898529D01*
X5773381Y-18717576D02*
X5792429Y-18717576D01*
X5792429Y-18717576D02*
X5811476Y-18727100D01*
X5811476Y-18727100D02*
X5821000Y-18736624D01*
X5821000Y-18736624D02*
X5830524Y-18755671D01*
X5830524Y-18755671D02*
X5840048Y-18793767D01*
X5840048Y-18793767D02*
X5840048Y-18841386D01*
X5840048Y-18841386D02*
X5830524Y-18879481D01*
X5830524Y-18879481D02*
X5821000Y-18898529D01*
X5821000Y-18898529D02*
X5811476Y-18908052D01*
X5811476Y-18908052D02*
X5792429Y-18917576D01*
X5792429Y-18917576D02*
X5773381Y-18917576D01*
X5773381Y-18917576D02*
X5754333Y-18908052D01*
X5754333Y-18908052D02*
X5744809Y-18898529D01*
X5744809Y-18898529D02*
X5735286Y-18879481D01*
X5735286Y-18879481D02*
X5725762Y-18841386D01*
X5725762Y-18841386D02*
X5725762Y-18793767D01*
X5725762Y-18793767D02*
X5735286Y-18755671D01*
X5735286Y-18755671D02*
X5744809Y-18736624D01*
X5744809Y-18736624D02*
X5754333Y-18727100D01*
X5754333Y-18727100D02*
X5773381Y-18717576D01*
X5925762Y-18917576D02*
X5925762Y-18784243D01*
X5925762Y-18803290D02*
X5935286Y-18793767D01*
X5935286Y-18793767D02*
X5954333Y-18784243D01*
X5954333Y-18784243D02*
X5982905Y-18784243D01*
X5982905Y-18784243D02*
X6001952Y-18793767D01*
X6001952Y-18793767D02*
X6011476Y-18812814D01*
X6011476Y-18812814D02*
X6011476Y-18917576D01*
X6011476Y-18812814D02*
X6021000Y-18793767D01*
X6021000Y-18793767D02*
X6040048Y-18784243D01*
X6040048Y-18784243D02*
X6068619Y-18784243D01*
X6068619Y-18784243D02*
X6087667Y-18793767D01*
X6087667Y-18793767D02*
X6097190Y-18812814D01*
X6097190Y-18812814D02*
X6097190Y-18917576D01*
X6192429Y-18917576D02*
X6192429Y-18784243D01*
X6192429Y-18803290D02*
X6201952Y-18793767D01*
X6201952Y-18793767D02*
X6221000Y-18784243D01*
X6221000Y-18784243D02*
X6249571Y-18784243D01*
X6249571Y-18784243D02*
X6268619Y-18793767D01*
X6268619Y-18793767D02*
X6278143Y-18812814D01*
X6278143Y-18812814D02*
X6278143Y-18917576D01*
X6278143Y-18812814D02*
X6287667Y-18793767D01*
X6287667Y-18793767D02*
X6306714Y-18784243D01*
X6306714Y-18784243D02*
X6335286Y-18784243D01*
X6335286Y-18784243D02*
X6354333Y-18793767D01*
X6354333Y-18793767D02*
X6363857Y-18812814D01*
X6363857Y-18812814D02*
X6363857Y-18917576D01*
X6721952Y-18708052D02*
X6550524Y-18965195D01*
X6946714Y-18717576D02*
X6965762Y-18717576D01*
X6965762Y-18717576D02*
X6984810Y-18727100D01*
X6984810Y-18727100D02*
X6994333Y-18736624D01*
X6994333Y-18736624D02*
X7003857Y-18755671D01*
X7003857Y-18755671D02*
X7013381Y-18793767D01*
X7013381Y-18793767D02*
X7013381Y-18841386D01*
X7013381Y-18841386D02*
X7003857Y-18879481D01*
X7003857Y-18879481D02*
X6994333Y-18898529D01*
X6994333Y-18898529D02*
X6984810Y-18908052D01*
X6984810Y-18908052D02*
X6965762Y-18917576D01*
X6965762Y-18917576D02*
X6946714Y-18917576D01*
X6946714Y-18917576D02*
X6927667Y-18908052D01*
X6927667Y-18908052D02*
X6918143Y-18898529D01*
X6918143Y-18898529D02*
X6908619Y-18879481D01*
X6908619Y-18879481D02*
X6899095Y-18841386D01*
X6899095Y-18841386D02*
X6899095Y-18793767D01*
X6899095Y-18793767D02*
X6908619Y-18755671D01*
X6908619Y-18755671D02*
X6918143Y-18736624D01*
X6918143Y-18736624D02*
X6927667Y-18727100D01*
X6927667Y-18727100D02*
X6946714Y-18717576D01*
X7099095Y-18898529D02*
X7108619Y-18908052D01*
X7108619Y-18908052D02*
X7099095Y-18917576D01*
X7099095Y-18917576D02*
X7089571Y-18908052D01*
X7089571Y-18908052D02*
X7099095Y-18898529D01*
X7099095Y-18898529D02*
X7099095Y-18917576D01*
X7232429Y-18717576D02*
X7251476Y-18717576D01*
X7251476Y-18717576D02*
X7270524Y-18727100D01*
X7270524Y-18727100D02*
X7280048Y-18736624D01*
X7280048Y-18736624D02*
X7289571Y-18755671D01*
X7289571Y-18755671D02*
X7299095Y-18793767D01*
X7299095Y-18793767D02*
X7299095Y-18841386D01*
X7299095Y-18841386D02*
X7289571Y-18879481D01*
X7289571Y-18879481D02*
X7280048Y-18898529D01*
X7280048Y-18898529D02*
X7270524Y-18908052D01*
X7270524Y-18908052D02*
X7251476Y-18917576D01*
X7251476Y-18917576D02*
X7232429Y-18917576D01*
X7232429Y-18917576D02*
X7213381Y-18908052D01*
X7213381Y-18908052D02*
X7203857Y-18898529D01*
X7203857Y-18898529D02*
X7194333Y-18879481D01*
X7194333Y-18879481D02*
X7184810Y-18841386D01*
X7184810Y-18841386D02*
X7184810Y-18793767D01*
X7184810Y-18793767D02*
X7194333Y-18755671D01*
X7194333Y-18755671D02*
X7203857Y-18736624D01*
X7203857Y-18736624D02*
X7213381Y-18727100D01*
X7213381Y-18727100D02*
X7232429Y-18717576D01*
X7375286Y-18736624D02*
X7384810Y-18727100D01*
X7384810Y-18727100D02*
X7403857Y-18717576D01*
X7403857Y-18717576D02*
X7451476Y-18717576D01*
X7451476Y-18717576D02*
X7470524Y-18727100D01*
X7470524Y-18727100D02*
X7480048Y-18736624D01*
X7480048Y-18736624D02*
X7489571Y-18755671D01*
X7489571Y-18755671D02*
X7489571Y-18774719D01*
X7489571Y-18774719D02*
X7480048Y-18803290D01*
X7480048Y-18803290D02*
X7365762Y-18917576D01*
X7365762Y-18917576D02*
X7489571Y-18917576D01*
X7670524Y-18717576D02*
X7575286Y-18717576D01*
X7575286Y-18717576D02*
X7565762Y-18812814D01*
X7565762Y-18812814D02*
X7575286Y-18803290D01*
X7575286Y-18803290D02*
X7594333Y-18793767D01*
X7594333Y-18793767D02*
X7641952Y-18793767D01*
X7641952Y-18793767D02*
X7661000Y-18803290D01*
X7661000Y-18803290D02*
X7670524Y-18812814D01*
X7670524Y-18812814D02*
X7680048Y-18831862D01*
X7680048Y-18831862D02*
X7680048Y-18879481D01*
X7680048Y-18879481D02*
X7670524Y-18898529D01*
X7670524Y-18898529D02*
X7661000Y-18908052D01*
X7661000Y-18908052D02*
X7641952Y-18917576D01*
X7641952Y-18917576D02*
X7594333Y-18917576D01*
X7594333Y-18917576D02*
X7575286Y-18908052D01*
X7575286Y-18908052D02*
X7565762Y-18898529D01*
X7851476Y-18717576D02*
X7813381Y-18717576D01*
X7813381Y-18717576D02*
X7794333Y-18727100D01*
X7794333Y-18727100D02*
X7784810Y-18736624D01*
X7784810Y-18736624D02*
X7765762Y-18765195D01*
X7765762Y-18765195D02*
X7756238Y-18803290D01*
X7756238Y-18803290D02*
X7756238Y-18879481D01*
X7756238Y-18879481D02*
X7765762Y-18898529D01*
X7765762Y-18898529D02*
X7775286Y-18908052D01*
X7775286Y-18908052D02*
X7794333Y-18917576D01*
X7794333Y-18917576D02*
X7832429Y-18917576D01*
X7832429Y-18917576D02*
X7851476Y-18908052D01*
X7851476Y-18908052D02*
X7861000Y-18898529D01*
X7861000Y-18898529D02*
X7870524Y-18879481D01*
X7870524Y-18879481D02*
X7870524Y-18831862D01*
X7870524Y-18831862D02*
X7861000Y-18812814D01*
X7861000Y-18812814D02*
X7851476Y-18803290D01*
X7851476Y-18803290D02*
X7832429Y-18793767D01*
X7832429Y-18793767D02*
X7794333Y-18793767D01*
X7794333Y-18793767D02*
X7775286Y-18803290D01*
X7775286Y-18803290D02*
X7765762Y-18812814D01*
X7765762Y-18812814D02*
X7756238Y-18831862D01*
X7946714Y-18717576D02*
X7946714Y-18755671D01*
X8022905Y-18717576D02*
X8022905Y-18755671D01*
X8285762Y-18993767D02*
X8276238Y-18984243D01*
X8276238Y-18984243D02*
X8257191Y-18955671D01*
X8257191Y-18955671D02*
X8247667Y-18936624D01*
X8247667Y-18936624D02*
X8238143Y-18908052D01*
X8238143Y-18908052D02*
X8228619Y-18860433D01*
X8228619Y-18860433D02*
X8228619Y-18822338D01*
X8228619Y-18822338D02*
X8238143Y-18774719D01*
X8238143Y-18774719D02*
X8247667Y-18746148D01*
X8247667Y-18746148D02*
X8257191Y-18727100D01*
X8257191Y-18727100D02*
X8276238Y-18698529D01*
X8276238Y-18698529D02*
X8285762Y-18689005D01*
X8352429Y-18736624D02*
X8361952Y-18727100D01*
X8361952Y-18727100D02*
X8381000Y-18717576D01*
X8381000Y-18717576D02*
X8428619Y-18717576D01*
X8428619Y-18717576D02*
X8447667Y-18727100D01*
X8447667Y-18727100D02*
X8457191Y-18736624D01*
X8457191Y-18736624D02*
X8466714Y-18755671D01*
X8466714Y-18755671D02*
X8466714Y-18774719D01*
X8466714Y-18774719D02*
X8457191Y-18803290D01*
X8457191Y-18803290D02*
X8342905Y-18917576D01*
X8342905Y-18917576D02*
X8466714Y-18917576D01*
X8672429Y-18917576D02*
X8672429Y-18717576D01*
X8758143Y-18917576D02*
X8758143Y-18812814D01*
X8758143Y-18812814D02*
X8748619Y-18793767D01*
X8748619Y-18793767D02*
X8729572Y-18784243D01*
X8729572Y-18784243D02*
X8701000Y-18784243D01*
X8701000Y-18784243D02*
X8681953Y-18793767D01*
X8681953Y-18793767D02*
X8672429Y-18803290D01*
X8881953Y-18917576D02*
X8862905Y-18908052D01*
X8862905Y-18908052D02*
X8853381Y-18898529D01*
X8853381Y-18898529D02*
X8843857Y-18879481D01*
X8843857Y-18879481D02*
X8843857Y-18822338D01*
X8843857Y-18822338D02*
X8853381Y-18803290D01*
X8853381Y-18803290D02*
X8862905Y-18793767D01*
X8862905Y-18793767D02*
X8881953Y-18784243D01*
X8881953Y-18784243D02*
X8910524Y-18784243D01*
X8910524Y-18784243D02*
X8929572Y-18793767D01*
X8929572Y-18793767D02*
X8939095Y-18803290D01*
X8939095Y-18803290D02*
X8948619Y-18822338D01*
X8948619Y-18822338D02*
X8948619Y-18879481D01*
X8948619Y-18879481D02*
X8939095Y-18898529D01*
X8939095Y-18898529D02*
X8929572Y-18908052D01*
X8929572Y-18908052D02*
X8910524Y-18917576D01*
X8910524Y-18917576D02*
X8881953Y-18917576D01*
X9062905Y-18917576D02*
X9043857Y-18908052D01*
X9043857Y-18908052D02*
X9034334Y-18889005D01*
X9034334Y-18889005D02*
X9034334Y-18717576D01*
X9215286Y-18908052D02*
X9196238Y-18917576D01*
X9196238Y-18917576D02*
X9158143Y-18917576D01*
X9158143Y-18917576D02*
X9139095Y-18908052D01*
X9139095Y-18908052D02*
X9129572Y-18889005D01*
X9129572Y-18889005D02*
X9129572Y-18812814D01*
X9129572Y-18812814D02*
X9139095Y-18793767D01*
X9139095Y-18793767D02*
X9158143Y-18784243D01*
X9158143Y-18784243D02*
X9196238Y-18784243D01*
X9196238Y-18784243D02*
X9215286Y-18793767D01*
X9215286Y-18793767D02*
X9224810Y-18812814D01*
X9224810Y-18812814D02*
X9224810Y-18831862D01*
X9224810Y-18831862D02*
X9129572Y-18850910D01*
X9301000Y-18908052D02*
X9320048Y-18917576D01*
X9320048Y-18917576D02*
X9358143Y-18917576D01*
X9358143Y-18917576D02*
X9377191Y-18908052D01*
X9377191Y-18908052D02*
X9386715Y-18889005D01*
X9386715Y-18889005D02*
X9386715Y-18879481D01*
X9386715Y-18879481D02*
X9377191Y-18860433D01*
X9377191Y-18860433D02*
X9358143Y-18850910D01*
X9358143Y-18850910D02*
X9329572Y-18850910D01*
X9329572Y-18850910D02*
X9310524Y-18841386D01*
X9310524Y-18841386D02*
X9301000Y-18822338D01*
X9301000Y-18822338D02*
X9301000Y-18812814D01*
X9301000Y-18812814D02*
X9310524Y-18793767D01*
X9310524Y-18793767D02*
X9329572Y-18784243D01*
X9329572Y-18784243D02*
X9358143Y-18784243D01*
X9358143Y-18784243D02*
X9377191Y-18793767D01*
X9453381Y-18993767D02*
X9462905Y-18984243D01*
X9462905Y-18984243D02*
X9481953Y-18955671D01*
X9481953Y-18955671D02*
X9491476Y-18936624D01*
X9491476Y-18936624D02*
X9501000Y-18908052D01*
X9501000Y-18908052D02*
X9510524Y-18860433D01*
X9510524Y-18860433D02*
X9510524Y-18822338D01*
X9510524Y-18822338D02*
X9501000Y-18774719D01*
X9501000Y-18774719D02*
X9491476Y-18746148D01*
X9491476Y-18746148D02*
X9481953Y-18727100D01*
X9481953Y-18727100D02*
X9462905Y-18698529D01*
X9462905Y-18698529D02*
X9453381Y-18689005D01*
X9782905Y-18993767D02*
X9773381Y-18984243D01*
X9773381Y-18984243D02*
X9754334Y-18955671D01*
X9754334Y-18955671D02*
X9744810Y-18936624D01*
X9744810Y-18936624D02*
X9735286Y-18908052D01*
X9735286Y-18908052D02*
X9725762Y-18860433D01*
X9725762Y-18860433D02*
X9725762Y-18822338D01*
X9725762Y-18822338D02*
X9735286Y-18774719D01*
X9735286Y-18774719D02*
X9744810Y-18746148D01*
X9744810Y-18746148D02*
X9754334Y-18727100D01*
X9754334Y-18727100D02*
X9773381Y-18698529D01*
X9773381Y-18698529D02*
X9782905Y-18689005D01*
X9859095Y-18784243D02*
X9859095Y-18917576D01*
X9859095Y-18803290D02*
X9868619Y-18793767D01*
X9868619Y-18793767D02*
X9887667Y-18784243D01*
X9887667Y-18784243D02*
X9916238Y-18784243D01*
X9916238Y-18784243D02*
X9935286Y-18793767D01*
X9935286Y-18793767D02*
X9944810Y-18812814D01*
X9944810Y-18812814D02*
X9944810Y-18917576D01*
X10068619Y-18917576D02*
X10049572Y-18908052D01*
X10049572Y-18908052D02*
X10040048Y-18898529D01*
X10040048Y-18898529D02*
X10030524Y-18879481D01*
X10030524Y-18879481D02*
X10030524Y-18822338D01*
X10030524Y-18822338D02*
X10040048Y-18803290D01*
X10040048Y-18803290D02*
X10049572Y-18793767D01*
X10049572Y-18793767D02*
X10068619Y-18784243D01*
X10068619Y-18784243D02*
X10097191Y-18784243D01*
X10097191Y-18784243D02*
X10116238Y-18793767D01*
X10116238Y-18793767D02*
X10125762Y-18803290D01*
X10125762Y-18803290D02*
X10135286Y-18822338D01*
X10135286Y-18822338D02*
X10135286Y-18879481D01*
X10135286Y-18879481D02*
X10125762Y-18898529D01*
X10125762Y-18898529D02*
X10116238Y-18908052D01*
X10116238Y-18908052D02*
X10097191Y-18917576D01*
X10097191Y-18917576D02*
X10068619Y-18917576D01*
X10192429Y-18784243D02*
X10268619Y-18784243D01*
X10221000Y-18717576D02*
X10221000Y-18889005D01*
X10221000Y-18889005D02*
X10230524Y-18908052D01*
X10230524Y-18908052D02*
X10249572Y-18917576D01*
X10249572Y-18917576D02*
X10268619Y-18917576D01*
X10455286Y-18784243D02*
X10455286Y-18984243D01*
X10455286Y-18793767D02*
X10474334Y-18784243D01*
X10474334Y-18784243D02*
X10512429Y-18784243D01*
X10512429Y-18784243D02*
X10531476Y-18793767D01*
X10531476Y-18793767D02*
X10541000Y-18803290D01*
X10541000Y-18803290D02*
X10550524Y-18822338D01*
X10550524Y-18822338D02*
X10550524Y-18879481D01*
X10550524Y-18879481D02*
X10541000Y-18898529D01*
X10541000Y-18898529D02*
X10531476Y-18908052D01*
X10531476Y-18908052D02*
X10512429Y-18917576D01*
X10512429Y-18917576D02*
X10474334Y-18917576D01*
X10474334Y-18917576D02*
X10455286Y-18908052D01*
X10664810Y-18917576D02*
X10645762Y-18908052D01*
X10645762Y-18908052D02*
X10636238Y-18889005D01*
X10636238Y-18889005D02*
X10636238Y-18717576D01*
X10826715Y-18917576D02*
X10826715Y-18812814D01*
X10826715Y-18812814D02*
X10817191Y-18793767D01*
X10817191Y-18793767D02*
X10798143Y-18784243D01*
X10798143Y-18784243D02*
X10760048Y-18784243D01*
X10760048Y-18784243D02*
X10741000Y-18793767D01*
X10826715Y-18908052D02*
X10807667Y-18917576D01*
X10807667Y-18917576D02*
X10760048Y-18917576D01*
X10760048Y-18917576D02*
X10741000Y-18908052D01*
X10741000Y-18908052D02*
X10731476Y-18889005D01*
X10731476Y-18889005D02*
X10731476Y-18869957D01*
X10731476Y-18869957D02*
X10741000Y-18850910D01*
X10741000Y-18850910D02*
X10760048Y-18841386D01*
X10760048Y-18841386D02*
X10807667Y-18841386D01*
X10807667Y-18841386D02*
X10826715Y-18831862D01*
X10893381Y-18784243D02*
X10969572Y-18784243D01*
X10921953Y-18717576D02*
X10921953Y-18889005D01*
X10921953Y-18889005D02*
X10931476Y-18908052D01*
X10931476Y-18908052D02*
X10950524Y-18917576D01*
X10950524Y-18917576D02*
X10969572Y-18917576D01*
X11112429Y-18908052D02*
X11093381Y-18917576D01*
X11093381Y-18917576D02*
X11055286Y-18917576D01*
X11055286Y-18917576D02*
X11036238Y-18908052D01*
X11036238Y-18908052D02*
X11026715Y-18889005D01*
X11026715Y-18889005D02*
X11026715Y-18812814D01*
X11026715Y-18812814D02*
X11036238Y-18793767D01*
X11036238Y-18793767D02*
X11055286Y-18784243D01*
X11055286Y-18784243D02*
X11093381Y-18784243D01*
X11093381Y-18784243D02*
X11112429Y-18793767D01*
X11112429Y-18793767D02*
X11121953Y-18812814D01*
X11121953Y-18812814D02*
X11121953Y-18831862D01*
X11121953Y-18831862D02*
X11026715Y-18850910D01*
X11293381Y-18917576D02*
X11293381Y-18717576D01*
X11293381Y-18908052D02*
X11274334Y-18917576D01*
X11274334Y-18917576D02*
X11236238Y-18917576D01*
X11236238Y-18917576D02*
X11217191Y-18908052D01*
X11217191Y-18908052D02*
X11207667Y-18898529D01*
X11207667Y-18898529D02*
X11198143Y-18879481D01*
X11198143Y-18879481D02*
X11198143Y-18822338D01*
X11198143Y-18822338D02*
X11207667Y-18803290D01*
X11207667Y-18803290D02*
X11217191Y-18793767D01*
X11217191Y-18793767D02*
X11236238Y-18784243D01*
X11236238Y-18784243D02*
X11274334Y-18784243D01*
X11274334Y-18784243D02*
X11293381Y-18793767D01*
X11369572Y-18993767D02*
X11379095Y-18984243D01*
X11379095Y-18984243D02*
X11398143Y-18955671D01*
X11398143Y-18955671D02*
X11407667Y-18936624D01*
X11407667Y-18936624D02*
X11417191Y-18908052D01*
X11417191Y-18908052D02*
X11426714Y-18860433D01*
X11426714Y-18860433D02*
X11426714Y-18822338D01*
X11426714Y-18822338D02*
X11417191Y-18774719D01*
X11417191Y-18774719D02*
X11407667Y-18746148D01*
X11407667Y-18746148D02*
X11398143Y-18727100D01*
X11398143Y-18727100D02*
X11379095Y-18698529D01*
X11379095Y-18698529D02*
X11369572Y-18689005D01*
M02*
