M48
; DRILL file {KiCad (7.0.0)} date Tue Feb 28 10:18:38 2023
; FORMAT={-:-/ absolute / inch / decimal}
; #@! TF.CreationDate,2023-02-28T10:18:38+08:00
; #@! TF.GenerationSoftware,Kicad,Pcbnew,(7.0.0)
; #@! TF.FileFunction,Plated,1,2,PTH
FMAT,2
INCH
; #@! TA.AperFunction,Plated,PTH,ViaDrill
T1C0.0098
; #@! TA.AperFunction,Plated,PTH,ViaDrill
T2C0.0157
; #@! TA.AperFunction,Plated,PTH,ViaDrill
T3C0.0236
; #@! TA.AperFunction,Plated,PTH,ComponentDrill
T4C0.0236
%
G90
G05
T1
X1.93Y-5.635
X1.935Y-5.425
X1.935Y-5.505
X1.935Y-5.545
X1.935Y-5.585
X1.935Y-5.68
X1.95Y-5.135
X1.985Y-5.135
X2.0309Y-5.415
X2.04Y-5.815
X2.065Y-5.84
X2.095Y-5.86
X2.13Y-5.88
X2.165Y-5.475
X2.17Y-5.525
X2.18Y-5.64
X2.19Y-5.705
X2.205Y-5.675
X2.225Y-5.605
X2.225Y-5.975
X2.23Y-5.75
X2.23Y-6.015
X2.235Y-5.88
X2.235Y-6.55
X2.26Y-5.6
X2.26Y-5.72
X2.265Y-5.905
X2.265Y-6.025
X2.275Y-6.555
X2.28Y-5.655
X2.28Y-5.87
X2.28Y-6.065
X2.29Y-6.685
X2.295Y-6.585
X2.295Y-6.62
X2.3Y-5.695
X2.3Y-5.955
X2.3Y-6.66
X2.305Y-6.72
X2.315Y-5.61
X2.32Y-6.085
X2.33Y-5.985
X2.34Y-5.365
X2.34Y-5.395
X2.34Y-5.425
X2.34Y-5.725
X2.34Y-6.725
X2.36Y-5.655
X2.36Y-5.885
X2.365Y-6.015
X2.365Y-6.725
X2.37Y-5.365
X2.37Y-5.395
X2.37Y-5.425
X2.4Y-5.365
X2.4Y-5.395
X2.4Y-5.425
X2.4Y-5.88
X2.4Y-6.05
X2.405Y-5.61
X2.405Y-6.46
X2.405Y-6.495
X2.41Y-5.695
X2.41Y-6.535
X2.43Y-5.365
X2.43Y-5.395
X2.43Y-5.425
X2.43Y-5.73
X2.43Y-6.075
X2.43Y-6.44
X2.445Y-6.545
X2.45Y-6.73
X2.46Y-5.365
X2.46Y-5.395
X2.46Y-5.425
X2.465Y-5.675
X2.465Y-6.435
X2.48Y-5.63
X2.48Y-6.545
X2.51Y-6.525
X2.515Y-6.445
X2.515Y-6.485
X2.515Y-6.735
X2.52Y-6.76
X2.52Y-6.79
X2.52Y-6.82
X2.525Y-5.915
X2.53Y-5.88
X2.545Y-5.72
X2.545Y-6.71
X2.5568Y-6.1068
X2.565Y-6.415
X2.575Y-6.725
X2.575Y-6.755
X2.5768Y-6.1468
X2.5843Y-6.0193
X2.585Y-6.695
X2.615Y-5.87
X2.62Y-6.51
X2.62Y-6.705
X2.65Y-6.51
X2.655Y-6.38
X2.655Y-6.655
X2.655Y-6.685
X2.655Y-6.715
X2.67Y-6.775
X2.68Y-5.86
X2.68Y-6.51
X2.71Y-5.665
X2.71Y-6.52
X2.71Y-6.68
X2.71Y-6.705
X2.71Y-6.73
X2.735Y-6.68
X2.735Y-6.705
X2.735Y-6.73
X2.74Y-5.115
X2.74Y-5.14
X2.75Y-5.66
X2.75Y-6.52
X2.76Y-6.68
X2.76Y-6.705
X2.76Y-6.73
X2.77Y-5.085
X2.775Y-6.125
X2.775Y-6.23
X2.785Y-6.68
X2.785Y-6.705
X2.785Y-6.73
X2.79Y-6.87
X2.805Y-6.05
X2.805Y-6.125
X2.805Y-6.23
X2.814Y-6.365
X2.82Y-6.76
X2.835Y-5.085
X2.845Y-5.2273
X2.845Y-5.3773
X2.85Y-5.68
X2.85Y-6.225
X2.865Y-5.11
X2.865Y-5.145
X2.8694Y-5.445
X2.87Y-5.4773
X2.8766Y-6.34
X2.88Y-5.745
X2.885Y-5.705
X2.8866Y-5.5273
X2.9Y-5.275
X2.905Y-5.73
X2.905Y-6.3
X2.915Y-6.5
X2.92Y-5.43
X2.93Y-5.275
X2.93Y-5.745
X2.93Y-5.8
X2.935Y-6.285
X2.9355Y-5.6405
X2.94Y-6.6
X2.945Y-6.64
X2.95Y-5.455
X2.95Y-5.485
X2.95Y-6.34
X2.95Y-6.555
X2.96Y-6.26
X2.965Y-6.3
X2.97Y-6.045
X2.97Y-6.22
X2.975Y-5.725
X2.975Y-6.08
X2.975Y-6.595
X2.975Y-6.635
X2.975Y-6.675
X2.98Y-5.445
X2.98Y-5.475
X2.99Y-5.76
X2.99Y-5.8
X2.99Y-5.915
X2.99Y-5.945
X3.0097Y-5.6703
X3.01Y-6.06
X3.015Y-6.255
X3.02Y-5.955
X3.02Y-6.025
X3.025Y-6.3
X3.03Y-5.985
X3.03Y-6.165
X3.04Y-5.67
X3.05Y-5.28
X3.05Y-5.76
X3.05Y-5.8
X3.05Y-6.03
X3.055Y-6.14
X3.06Y-6.175
X3.065Y-6.005
X3.07Y-5.485
X3.075Y-5.61
X3.08Y-6.205
X3.085Y-5.28
X3.085Y-6.125
X3.085Y-6.16
X3.1Y-5.8
X3.105Y-5.595
X3.105Y-5.7
X3.105Y-5.745
X3.11Y-5.55
X3.11Y-5.63
X3.115Y-5.66
X3.115Y-6.3
X3.135Y-5.6
X3.16Y-5.455
X3.165Y-5.61
X3.165Y-5.66
X3.17Y-5.875
X3.18Y-5.375
X3.185Y-5.41
X3.185Y-5.44
X3.215Y-5.88
X3.265Y-5.37
X3.265Y-5.405
X3.265Y-5.445
X3.27Y-5.485
X3.275Y-6.265
X3.295Y-5.525
X3.295Y-5.745
X3.3Y-5.56
X3.3Y-5.915
X3.3Y-5.945
X3.3Y-5.975
X3.3Y-6.005
X3.3Y-6.035
X3.3Y-6.07
X3.3Y-6.1
X3.305Y-5.695
X3.31Y-5.365
X3.315Y-6.265
X3.32Y-5.73
X3.34Y-5.515
X3.34Y-5.56
X3.345Y-5.365
X3.345Y-5.695
X3.345Y-5.74
X3.37Y-6.265
X3.38Y-5.365
X3.38Y-5.515
X3.38Y-5.56
X3.38Y-5.735
X3.3879Y-6.09
X3.39Y-5.695
X3.41Y-5.365
X3.42Y-5.52
X3.42Y-6.265
X3.425Y-5.56
X3.435Y-5.695
X3.44Y-5.74
X3.44Y-6.09
T2
X1.985Y-5.29
X2.415Y-6.875
X2.895Y-6.87
T3
X2.35Y-6.21
X2.35Y-6.545
X2.91Y-6.23
X3.255Y-5.705
T4
G00X2.5949Y-6.9372
M15
G01X2.5949Y-6.9806
M16
G05
G00X2.5949Y-7.1117
M15
G01X2.5949Y-7.1353
M16
G05
G00X2.9351Y-6.9372
M15
G01X2.9351Y-6.9806
M16
G05
G00X2.9351Y-7.1117
M15
G01X2.9351Y-7.1353
M16
G05
T0
M30
