%TF.GenerationSoftware,KiCad,Pcbnew,(7.0.0)*%
%TF.CreationDate,2023-02-28T10:18:38+08:00*%
%TF.ProjectId,ESP32_DK,45535033-325f-4444-9b2e-6b696361645f,rev?*%
%TF.SameCoordinates,Original*%
%TF.FileFunction,Drillmap*%
%TF.FilePolarity,Positive*%
%FSLAX45Y45*%
G04 Gerber Fmt 4.5, Leading zero omitted, Abs format (unit mm)*
G04 Created by KiCad (PCBNEW (7.0.0)) date 2023-02-28 10:18:38*
%MOMM*%
%LPD*%
G01*
G04 APERTURE LIST*
%ADD10C,0.100000*%
%ADD11C,0.200000*%
%ADD12C,0.025000*%
%ADD13C,0.040000*%
%ADD14C,0.060000*%
G04 APERTURE END LIST*
D10*
X5384800Y-17792700D02*
G75*
G03*
X5384800Y-17792700I-152400J0D01*
G01*
X8559800Y-13233400D02*
G75*
G03*
X8559800Y-13233400I-152400J0D01*
G01*
X4826000Y-12827000D02*
X8813800Y-12827000D01*
X8813800Y-12827000D02*
X8813800Y-18199100D01*
X8813800Y-18199100D02*
X4826000Y-18199100D01*
X4826000Y-18199100D02*
X4826000Y-12827000D01*
D11*
D12*
X4889700Y-14300400D02*
X4914700Y-14325400D01*
X4914700Y-14300400D02*
X4889700Y-14325400D01*
X4902400Y-13767000D02*
X4927400Y-13792000D01*
X4927400Y-13767000D02*
X4902400Y-13792000D01*
X4902400Y-13970200D02*
X4927400Y-13995200D01*
X4927400Y-13970200D02*
X4902400Y-13995200D01*
X4902400Y-14071800D02*
X4927400Y-14096800D01*
X4927400Y-14071800D02*
X4902400Y-14096800D01*
X4902400Y-14173400D02*
X4927400Y-14198400D01*
X4927400Y-14173400D02*
X4902400Y-14198400D01*
X4902400Y-14414700D02*
X4927400Y-14439700D01*
X4927400Y-14414700D02*
X4902400Y-14439700D01*
X4940500Y-13030400D02*
X4965500Y-13055400D01*
X4965500Y-13030400D02*
X4940500Y-13055400D01*
X5029400Y-13030400D02*
X5054400Y-13055400D01*
X5054400Y-13030400D02*
X5029400Y-13055400D01*
X5146050Y-13741600D02*
X5171050Y-13766600D01*
X5171050Y-13741600D02*
X5146050Y-13766600D01*
X5169100Y-14757600D02*
X5194100Y-14782600D01*
X5194100Y-14757600D02*
X5169100Y-14782600D01*
X5232600Y-14821100D02*
X5257600Y-14846100D01*
X5257600Y-14821100D02*
X5232600Y-14846100D01*
X5308800Y-14871900D02*
X5333800Y-14896900D01*
X5333800Y-14871900D02*
X5308800Y-14896900D01*
X5397700Y-14922700D02*
X5422700Y-14947700D01*
X5422700Y-14922700D02*
X5397700Y-14947700D01*
X5486600Y-13894000D02*
X5511600Y-13919000D01*
X5511600Y-13894000D02*
X5486600Y-13919000D01*
X5499300Y-14021000D02*
X5524300Y-14046000D01*
X5524300Y-14021000D02*
X5499300Y-14046000D01*
X5524700Y-14313100D02*
X5549700Y-14338100D01*
X5549700Y-14313100D02*
X5524700Y-14338100D01*
X5550100Y-14478200D02*
X5575100Y-14503200D01*
X5575100Y-14478200D02*
X5550100Y-14503200D01*
X5588200Y-14402000D02*
X5613200Y-14427000D01*
X5613200Y-14402000D02*
X5588200Y-14427000D01*
X5639000Y-14224200D02*
X5664000Y-14249200D01*
X5664000Y-14224200D02*
X5639000Y-14249200D01*
X5639000Y-15164000D02*
X5664000Y-15189000D01*
X5664000Y-15164000D02*
X5639000Y-15189000D01*
X5651700Y-14592500D02*
X5676700Y-14617500D01*
X5676700Y-14592500D02*
X5651700Y-14617500D01*
X5651700Y-15265600D02*
X5676700Y-15290600D01*
X5676700Y-15265600D02*
X5651700Y-15290600D01*
X5664400Y-14922700D02*
X5689400Y-14947700D01*
X5689400Y-14922700D02*
X5664400Y-14947700D01*
X5664400Y-16624500D02*
X5689400Y-16649500D01*
X5689400Y-16624500D02*
X5664400Y-16649500D01*
X5727900Y-14211500D02*
X5752900Y-14236500D01*
X5752900Y-14211500D02*
X5727900Y-14236500D01*
X5727900Y-14516300D02*
X5752900Y-14541300D01*
X5752900Y-14516300D02*
X5727900Y-14541300D01*
X5740600Y-14986200D02*
X5765600Y-15011200D01*
X5765600Y-14986200D02*
X5740600Y-15011200D01*
X5740600Y-15291000D02*
X5765600Y-15316000D01*
X5765600Y-15291000D02*
X5740600Y-15316000D01*
X5766000Y-16637200D02*
X5791000Y-16662200D01*
X5791000Y-16637200D02*
X5766000Y-16662200D01*
X5778700Y-14351200D02*
X5803700Y-14376200D01*
X5803700Y-14351200D02*
X5778700Y-14376200D01*
X5778700Y-14897300D02*
X5803700Y-14922300D01*
X5803700Y-14897300D02*
X5778700Y-14922300D01*
X5778700Y-15392600D02*
X5803700Y-15417600D01*
X5803700Y-15392600D02*
X5778700Y-15417600D01*
X5804100Y-16967400D02*
X5829100Y-16992400D01*
X5829100Y-16967400D02*
X5804100Y-16992400D01*
X5816800Y-16713400D02*
X5841800Y-16738400D01*
X5841800Y-16713400D02*
X5816800Y-16738400D01*
X5816800Y-16802300D02*
X5841800Y-16827300D01*
X5841800Y-16802300D02*
X5816800Y-16827300D01*
X5829500Y-14452800D02*
X5854500Y-14477800D01*
X5854500Y-14452800D02*
X5829500Y-14477800D01*
X5829500Y-15113200D02*
X5854500Y-15138200D01*
X5854500Y-15113200D02*
X5829500Y-15138200D01*
X5829500Y-16903900D02*
X5854500Y-16928900D01*
X5854500Y-16903900D02*
X5829500Y-16928900D01*
X5842200Y-17056300D02*
X5867200Y-17081300D01*
X5867200Y-17056300D02*
X5842200Y-17081300D01*
X5867600Y-14236900D02*
X5892600Y-14261900D01*
X5892600Y-14236900D02*
X5867600Y-14261900D01*
X5880300Y-15443400D02*
X5905300Y-15468400D01*
X5905300Y-15443400D02*
X5880300Y-15468400D01*
X5905700Y-15189400D02*
X5930700Y-15214400D01*
X5930700Y-15189400D02*
X5905700Y-15214400D01*
X5931100Y-13614600D02*
X5956100Y-13639600D01*
X5956100Y-13614600D02*
X5931100Y-13639600D01*
X5931100Y-13690800D02*
X5956100Y-13715800D01*
X5956100Y-13690800D02*
X5931100Y-13715800D01*
X5931100Y-13767000D02*
X5956100Y-13792000D01*
X5956100Y-13767000D02*
X5931100Y-13792000D01*
X5931100Y-14529000D02*
X5956100Y-14554000D01*
X5956100Y-14529000D02*
X5931100Y-14554000D01*
X5931100Y-17069000D02*
X5956100Y-17094000D01*
X5956100Y-17069000D02*
X5931100Y-17094000D01*
X5981900Y-14351200D02*
X6006900Y-14376200D01*
X6006900Y-14351200D02*
X5981900Y-14376200D01*
X5981900Y-14935400D02*
X6006900Y-14960400D01*
X6006900Y-14935400D02*
X5981900Y-14960400D01*
X5994600Y-15265600D02*
X6019600Y-15290600D01*
X6019600Y-15265600D02*
X5994600Y-15290600D01*
X5994600Y-17069000D02*
X6019600Y-17094000D01*
X6019600Y-17069000D02*
X5994600Y-17094000D01*
X6007300Y-13614600D02*
X6032300Y-13639600D01*
X6032300Y-13614600D02*
X6007300Y-13639600D01*
X6007300Y-13690800D02*
X6032300Y-13715800D01*
X6032300Y-13690800D02*
X6007300Y-13715800D01*
X6007300Y-13767000D02*
X6032300Y-13792000D01*
X6032300Y-13767000D02*
X6007300Y-13792000D01*
X6083500Y-13614600D02*
X6108500Y-13639600D01*
X6108500Y-13614600D02*
X6083500Y-13639600D01*
X6083500Y-13690800D02*
X6108500Y-13715800D01*
X6108500Y-13690800D02*
X6083500Y-13715800D01*
X6083500Y-13767000D02*
X6108500Y-13792000D01*
X6108500Y-13767000D02*
X6083500Y-13792000D01*
X6083500Y-14922700D02*
X6108500Y-14947700D01*
X6108500Y-14922700D02*
X6083500Y-14947700D01*
X6083500Y-15354500D02*
X6108500Y-15379500D01*
X6108500Y-15354500D02*
X6083500Y-15379500D01*
X6096200Y-14236900D02*
X6121200Y-14261900D01*
X6121200Y-14236900D02*
X6096200Y-14261900D01*
X6096200Y-16395900D02*
X6121200Y-16420900D01*
X6121200Y-16395900D02*
X6096200Y-16420900D01*
X6096200Y-16484800D02*
X6121200Y-16509800D01*
X6121200Y-16484800D02*
X6096200Y-16509800D01*
X6108900Y-14452800D02*
X6133900Y-14477800D01*
X6133900Y-14452800D02*
X6108900Y-14477800D01*
X6108900Y-16586400D02*
X6133900Y-16611400D01*
X6133900Y-16586400D02*
X6108900Y-16611400D01*
X6159700Y-13614600D02*
X6184700Y-13639600D01*
X6184700Y-13614600D02*
X6159700Y-13639600D01*
X6159700Y-13690800D02*
X6184700Y-13715800D01*
X6184700Y-13690800D02*
X6159700Y-13715800D01*
X6159700Y-13767000D02*
X6184700Y-13792000D01*
X6184700Y-13767000D02*
X6159700Y-13792000D01*
X6159700Y-14541700D02*
X6184700Y-14566700D01*
X6184700Y-14541700D02*
X6159700Y-14566700D01*
X6159700Y-15418000D02*
X6184700Y-15443000D01*
X6184700Y-15418000D02*
X6159700Y-15443000D01*
X6159700Y-16345100D02*
X6184700Y-16370100D01*
X6184700Y-16345100D02*
X6159700Y-16370100D01*
X6197800Y-16611800D02*
X6222800Y-16636800D01*
X6222800Y-16611800D02*
X6197800Y-16636800D01*
X6210500Y-17081700D02*
X6235500Y-17106700D01*
X6235500Y-17081700D02*
X6210500Y-17106700D01*
X6235900Y-13614600D02*
X6260900Y-13639600D01*
X6260900Y-13614600D02*
X6235900Y-13639600D01*
X6235900Y-13690800D02*
X6260900Y-13715800D01*
X6260900Y-13690800D02*
X6235900Y-13715800D01*
X6235900Y-13767000D02*
X6260900Y-13792000D01*
X6260900Y-13767000D02*
X6235900Y-13792000D01*
X6248600Y-14402000D02*
X6273600Y-14427000D01*
X6273600Y-14402000D02*
X6248600Y-14427000D01*
X6248600Y-16332400D02*
X6273600Y-16357400D01*
X6273600Y-16332400D02*
X6248600Y-16357400D01*
X6286700Y-14287700D02*
X6311700Y-14312700D01*
X6311700Y-14287700D02*
X6286700Y-14312700D01*
X6286700Y-16611800D02*
X6311700Y-16636800D01*
X6311700Y-16611800D02*
X6286700Y-16636800D01*
X6362900Y-16561000D02*
X6387900Y-16586000D01*
X6387900Y-16561000D02*
X6362900Y-16586000D01*
X6375600Y-16357800D02*
X6400600Y-16382800D01*
X6400600Y-16357800D02*
X6375600Y-16382800D01*
X6375600Y-16459400D02*
X6400600Y-16484400D01*
X6400600Y-16459400D02*
X6375600Y-16484400D01*
X6375600Y-17094400D02*
X6400600Y-17119400D01*
X6400600Y-17094400D02*
X6375600Y-17119400D01*
X6388300Y-17157900D02*
X6413300Y-17182900D01*
X6413300Y-17157900D02*
X6388300Y-17182900D01*
X6388300Y-17234100D02*
X6413300Y-17259100D01*
X6413300Y-17234100D02*
X6388300Y-17259100D01*
X6388300Y-17310300D02*
X6413300Y-17335300D01*
X6413300Y-17310300D02*
X6388300Y-17335300D01*
X6401000Y-15011600D02*
X6426000Y-15036600D01*
X6426000Y-15011600D02*
X6401000Y-15036600D01*
X6413700Y-14922700D02*
X6438700Y-14947700D01*
X6438700Y-14922700D02*
X6413700Y-14947700D01*
X6451800Y-14516300D02*
X6476800Y-14541300D01*
X6476800Y-14516300D02*
X6451800Y-14541300D01*
X6451800Y-17030900D02*
X6476800Y-17055900D01*
X6476800Y-17030900D02*
X6451800Y-17055900D01*
X6481675Y-15498675D02*
X6506675Y-15523675D01*
X6506675Y-15498675D02*
X6481675Y-15523675D01*
X6502600Y-16281600D02*
X6527600Y-16306600D01*
X6527600Y-16281600D02*
X6502600Y-16306600D01*
X6528000Y-17069000D02*
X6553000Y-17094000D01*
X6553000Y-17069000D02*
X6528000Y-17094000D01*
X6528000Y-17145200D02*
X6553000Y-17170200D01*
X6553000Y-17145200D02*
X6528000Y-17170200D01*
X6532475Y-15600275D02*
X6557475Y-15625275D01*
X6557475Y-15600275D02*
X6532475Y-15625275D01*
X6551525Y-15276425D02*
X6576525Y-15301425D01*
X6576525Y-15276425D02*
X6551525Y-15301425D01*
X6553400Y-16992800D02*
X6578400Y-17017800D01*
X6578400Y-16992800D02*
X6553400Y-17017800D01*
X6629600Y-14897300D02*
X6654600Y-14922300D01*
X6654600Y-14897300D02*
X6629600Y-14922300D01*
X6642300Y-16522900D02*
X6667300Y-16547900D01*
X6667300Y-16522900D02*
X6642300Y-16547900D01*
X6642300Y-17018200D02*
X6667300Y-17043200D01*
X6667300Y-17018200D02*
X6642300Y-17043200D01*
X6718500Y-16522900D02*
X6743500Y-16547900D01*
X6743500Y-16522900D02*
X6718500Y-16547900D01*
X6731200Y-16192700D02*
X6756200Y-16217700D01*
X6756200Y-16192700D02*
X6731200Y-16217700D01*
X6731200Y-16891200D02*
X6756200Y-16916200D01*
X6756200Y-16891200D02*
X6731200Y-16916200D01*
X6731200Y-16967400D02*
X6756200Y-16992400D01*
X6756200Y-16967400D02*
X6731200Y-16992400D01*
X6731200Y-17043600D02*
X6756200Y-17068600D01*
X6756200Y-17043600D02*
X6731200Y-17068600D01*
X6769300Y-17196000D02*
X6794300Y-17221000D01*
X6794300Y-17196000D02*
X6769300Y-17221000D01*
X6794700Y-14871900D02*
X6819700Y-14896900D01*
X6819700Y-14871900D02*
X6794700Y-14896900D01*
X6794700Y-16522900D02*
X6819700Y-16547900D01*
X6819700Y-16522900D02*
X6794700Y-16547900D01*
X6870900Y-14376600D02*
X6895900Y-14401600D01*
X6895900Y-14376600D02*
X6870900Y-14401600D01*
X6870900Y-16548300D02*
X6895900Y-16573300D01*
X6895900Y-16548300D02*
X6870900Y-16573300D01*
X6870900Y-16954700D02*
X6895900Y-16979700D01*
X6895900Y-16954700D02*
X6870900Y-16979700D01*
X6870900Y-17018200D02*
X6895900Y-17043200D01*
X6895900Y-17018200D02*
X6870900Y-17043200D01*
X6870900Y-17081700D02*
X6895900Y-17106700D01*
X6895900Y-17081700D02*
X6870900Y-17106700D01*
X6934400Y-16954700D02*
X6959400Y-16979700D01*
X6959400Y-16954700D02*
X6934400Y-16979700D01*
X6934400Y-17018200D02*
X6959400Y-17043200D01*
X6959400Y-17018200D02*
X6934400Y-17043200D01*
X6934400Y-17081700D02*
X6959400Y-17106700D01*
X6959400Y-17081700D02*
X6934400Y-17106700D01*
X6947100Y-12979600D02*
X6972100Y-13004600D01*
X6972100Y-12979600D02*
X6947100Y-13004600D01*
X6947100Y-13043100D02*
X6972100Y-13068100D01*
X6972100Y-13043100D02*
X6947100Y-13068100D01*
X6972500Y-14363900D02*
X6997500Y-14388900D01*
X6997500Y-14363900D02*
X6972500Y-14388900D01*
X6972500Y-16548300D02*
X6997500Y-16573300D01*
X6997500Y-16548300D02*
X6972500Y-16573300D01*
X6997900Y-16954700D02*
X7022900Y-16979700D01*
X7022900Y-16954700D02*
X6997900Y-16979700D01*
X6997900Y-17018200D02*
X7022900Y-17043200D01*
X7022900Y-17018200D02*
X6997900Y-17043200D01*
X6997900Y-17081700D02*
X7022900Y-17106700D01*
X7022900Y-17081700D02*
X6997900Y-17106700D01*
X7023300Y-12903400D02*
X7048300Y-12928400D01*
X7048300Y-12903400D02*
X7023300Y-12928400D01*
X7036000Y-15545000D02*
X7061000Y-15570000D01*
X7061000Y-15545000D02*
X7036000Y-15570000D01*
X7036000Y-15811700D02*
X7061000Y-15836700D01*
X7061000Y-15811700D02*
X7036000Y-15836700D01*
X7061400Y-16954700D02*
X7086400Y-16979700D01*
X7086400Y-16954700D02*
X7061400Y-16979700D01*
X7061400Y-17018200D02*
X7086400Y-17043200D01*
X7086400Y-17018200D02*
X7061400Y-17043200D01*
X7061400Y-17081700D02*
X7086400Y-17106700D01*
X7086400Y-17081700D02*
X7061400Y-17106700D01*
X7074100Y-17437300D02*
X7099100Y-17462300D01*
X7099100Y-17437300D02*
X7074100Y-17462300D01*
X7112200Y-15354500D02*
X7137200Y-15379500D01*
X7137200Y-15354500D02*
X7112200Y-15379500D01*
X7112200Y-15545000D02*
X7137200Y-15570000D01*
X7137200Y-15545000D02*
X7112200Y-15570000D01*
X7112200Y-15811700D02*
X7137200Y-15836700D01*
X7137200Y-15811700D02*
X7112200Y-15836700D01*
X7135060Y-16154600D02*
X7160060Y-16179600D01*
X7160060Y-16154600D02*
X7135060Y-16179600D01*
X7150300Y-17157900D02*
X7175300Y-17182900D01*
X7175300Y-17157900D02*
X7150300Y-17182900D01*
X7188400Y-12903400D02*
X7213400Y-12928400D01*
X7213400Y-12903400D02*
X7188400Y-12928400D01*
X7213800Y-13264800D02*
X7238800Y-13289800D01*
X7238800Y-13264800D02*
X7213800Y-13289800D01*
X7213800Y-13645800D02*
X7238800Y-13670800D01*
X7238800Y-13645800D02*
X7213800Y-13670800D01*
X7226500Y-14414700D02*
X7251500Y-14439700D01*
X7251500Y-14414700D02*
X7226500Y-14439700D01*
X7226500Y-15799000D02*
X7251500Y-15824000D01*
X7251500Y-15799000D02*
X7226500Y-15824000D01*
X7264600Y-12966900D02*
X7289600Y-12991900D01*
X7289600Y-12966900D02*
X7264600Y-12991900D01*
X7264600Y-13055800D02*
X7289600Y-13080800D01*
X7289600Y-13055800D02*
X7264600Y-13080800D01*
X7275718Y-13817800D02*
X7300718Y-13842800D01*
X7300718Y-13817800D02*
X7275718Y-13842800D01*
X7277300Y-13899800D02*
X7302300Y-13924800D01*
X7302300Y-13899800D02*
X7277300Y-13924800D01*
X7294060Y-16091100D02*
X7319060Y-16116100D01*
X7319060Y-16091100D02*
X7294060Y-16116100D01*
X7302700Y-14579800D02*
X7327700Y-14604800D01*
X7327700Y-14579800D02*
X7302700Y-14604800D01*
X7315400Y-14478200D02*
X7340400Y-14503200D01*
X7340400Y-14478200D02*
X7315400Y-14503200D01*
X7319550Y-14026800D02*
X7344550Y-14051800D01*
X7344550Y-14026800D02*
X7319550Y-14051800D01*
X7353500Y-13386000D02*
X7378500Y-13411000D01*
X7378500Y-13386000D02*
X7353500Y-13411000D01*
X7366200Y-14541700D02*
X7391200Y-14566700D01*
X7391200Y-14541700D02*
X7366200Y-14566700D01*
X7366200Y-15989500D02*
X7391200Y-16014500D01*
X7391200Y-15989500D02*
X7366200Y-16014500D01*
X7391600Y-16497500D02*
X7416600Y-16522500D01*
X7416600Y-16497500D02*
X7391600Y-16522500D01*
X7404300Y-13779700D02*
X7429300Y-13804700D01*
X7429300Y-13779700D02*
X7404300Y-13804700D01*
X7429700Y-13386000D02*
X7454700Y-13411000D01*
X7454700Y-13386000D02*
X7429700Y-13411000D01*
X7429700Y-14579800D02*
X7454700Y-14604800D01*
X7454700Y-14579800D02*
X7429700Y-14604800D01*
X7429700Y-14719500D02*
X7454700Y-14744500D01*
X7454700Y-14719500D02*
X7429700Y-14744500D01*
X7442400Y-15951400D02*
X7467400Y-15976400D01*
X7467400Y-15951400D02*
X7442400Y-15976400D01*
X7443600Y-14314300D02*
X7468600Y-14339300D01*
X7468600Y-14314300D02*
X7443600Y-14339300D01*
X7455100Y-16751500D02*
X7480100Y-16776500D01*
X7480100Y-16751500D02*
X7455100Y-16776500D01*
X7467800Y-16853100D02*
X7492800Y-16878100D01*
X7492800Y-16853100D02*
X7467800Y-16878100D01*
X7480500Y-13843200D02*
X7505500Y-13868200D01*
X7505500Y-13843200D02*
X7480500Y-13868200D01*
X7480500Y-13919400D02*
X7505500Y-13944400D01*
X7505500Y-13919400D02*
X7480500Y-13944400D01*
X7480500Y-16091100D02*
X7505500Y-16116100D01*
X7505500Y-16091100D02*
X7480500Y-16116100D01*
X7480500Y-16637200D02*
X7505500Y-16662200D01*
X7505500Y-16637200D02*
X7480500Y-16662200D01*
X7505900Y-15887900D02*
X7530900Y-15912900D01*
X7530900Y-15887900D02*
X7505900Y-15912900D01*
X7518600Y-15989500D02*
X7543600Y-16014500D01*
X7543600Y-15989500D02*
X7518600Y-16014500D01*
X7531300Y-15341800D02*
X7556300Y-15366800D01*
X7556300Y-15341800D02*
X7531300Y-15366800D01*
X7531300Y-15786300D02*
X7556300Y-15811300D01*
X7556300Y-15786300D02*
X7531300Y-15811300D01*
X7544000Y-14529000D02*
X7569000Y-14554000D01*
X7569000Y-14529000D02*
X7544000Y-14554000D01*
X7544000Y-15430700D02*
X7569000Y-15455700D01*
X7569000Y-15430700D02*
X7544000Y-15455700D01*
X7544000Y-16738800D02*
X7569000Y-16763800D01*
X7569000Y-16738800D02*
X7544000Y-16763800D01*
X7544000Y-16840400D02*
X7569000Y-16865400D01*
X7569000Y-16840400D02*
X7544000Y-16865400D01*
X7544000Y-16942000D02*
X7569000Y-16967000D01*
X7569000Y-16942000D02*
X7544000Y-16967000D01*
X7556700Y-13817800D02*
X7581700Y-13842800D01*
X7581700Y-13817800D02*
X7556700Y-13842800D01*
X7556700Y-13894000D02*
X7581700Y-13919000D01*
X7581700Y-13894000D02*
X7556700Y-13919000D01*
X7582100Y-14617900D02*
X7607100Y-14642900D01*
X7607100Y-14617900D02*
X7582100Y-14642900D01*
X7582100Y-14719500D02*
X7607100Y-14744500D01*
X7607100Y-14719500D02*
X7582100Y-14744500D01*
X7582100Y-15011600D02*
X7607100Y-15036600D01*
X7607100Y-15011600D02*
X7582100Y-15036600D01*
X7582100Y-15087800D02*
X7607100Y-15112800D01*
X7607100Y-15087800D02*
X7582100Y-15112800D01*
X7632144Y-14390056D02*
X7657144Y-14415056D01*
X7657144Y-14390056D02*
X7632144Y-14415056D01*
X7632900Y-15379900D02*
X7657900Y-15404900D01*
X7657900Y-15379900D02*
X7632900Y-15404900D01*
X7645600Y-15875200D02*
X7670600Y-15900200D01*
X7670600Y-15875200D02*
X7645600Y-15900200D01*
X7658300Y-15113200D02*
X7683300Y-15138200D01*
X7683300Y-15113200D02*
X7658300Y-15138200D01*
X7658300Y-15291000D02*
X7683300Y-15316000D01*
X7683300Y-15291000D02*
X7658300Y-15316000D01*
X7671000Y-15989500D02*
X7696000Y-16014500D01*
X7696000Y-15989500D02*
X7671000Y-16014500D01*
X7683700Y-15189400D02*
X7708700Y-15214400D01*
X7708700Y-15189400D02*
X7683700Y-15214400D01*
X7683700Y-15646600D02*
X7708700Y-15671600D01*
X7708700Y-15646600D02*
X7683700Y-15671600D01*
X7709100Y-14389300D02*
X7734100Y-14414300D01*
X7734100Y-14389300D02*
X7709100Y-14414300D01*
X7734500Y-13398700D02*
X7759500Y-13423700D01*
X7759500Y-13398700D02*
X7734500Y-13423700D01*
X7734500Y-14617900D02*
X7759500Y-14642900D01*
X7759500Y-14617900D02*
X7734500Y-14642900D01*
X7734500Y-14719500D02*
X7759500Y-14744500D01*
X7759500Y-14719500D02*
X7734500Y-14744500D01*
X7734500Y-15303700D02*
X7759500Y-15328700D01*
X7759500Y-15303700D02*
X7734500Y-15328700D01*
X7747200Y-15583100D02*
X7772200Y-15608100D01*
X7772200Y-15583100D02*
X7747200Y-15608100D01*
X7759900Y-15672000D02*
X7784900Y-15697000D01*
X7784900Y-15672000D02*
X7759900Y-15697000D01*
X7772600Y-15240200D02*
X7797600Y-15265200D01*
X7797600Y-15240200D02*
X7772600Y-15265200D01*
X7785300Y-13919400D02*
X7810300Y-13944400D01*
X7810300Y-13919400D02*
X7785300Y-13944400D01*
X7798000Y-14236900D02*
X7823000Y-14261900D01*
X7823000Y-14236900D02*
X7798000Y-14261900D01*
X7810700Y-15748200D02*
X7835700Y-15773200D01*
X7835700Y-15748200D02*
X7810700Y-15773200D01*
X7823400Y-13398700D02*
X7848400Y-13423700D01*
X7848400Y-13398700D02*
X7823400Y-13423700D01*
X7823400Y-15545000D02*
X7848400Y-15570000D01*
X7848400Y-15545000D02*
X7823400Y-15570000D01*
X7823400Y-15633900D02*
X7848400Y-15658900D01*
X7848400Y-15633900D02*
X7823400Y-15658900D01*
X7861500Y-14719500D02*
X7886500Y-14744500D01*
X7886500Y-14719500D02*
X7861500Y-14744500D01*
X7874200Y-14198800D02*
X7899200Y-14223800D01*
X7899200Y-14198800D02*
X7874200Y-14223800D01*
X7874200Y-14465500D02*
X7899200Y-14490500D01*
X7899200Y-14465500D02*
X7874200Y-14490500D01*
X7874200Y-14579800D02*
X7899200Y-14604800D01*
X7899200Y-14579800D02*
X7874200Y-14604800D01*
X7886900Y-14084500D02*
X7911900Y-14109500D01*
X7911900Y-14084500D02*
X7886900Y-14109500D01*
X7886900Y-14287700D02*
X7911900Y-14312700D01*
X7911900Y-14287700D02*
X7886900Y-14312700D01*
X7899600Y-14363900D02*
X7924600Y-14388900D01*
X7924600Y-14363900D02*
X7899600Y-14388900D01*
X7899600Y-15989500D02*
X7924600Y-16014500D01*
X7924600Y-15989500D02*
X7899600Y-16014500D01*
X7950400Y-14211500D02*
X7975400Y-14236500D01*
X7975400Y-14211500D02*
X7950400Y-14236500D01*
X8013900Y-13843200D02*
X8038900Y-13868200D01*
X8038900Y-13843200D02*
X8013900Y-13868200D01*
X8026600Y-14236900D02*
X8051600Y-14261900D01*
X8051600Y-14236900D02*
X8026600Y-14261900D01*
X8026600Y-14363900D02*
X8051600Y-14388900D01*
X8051600Y-14363900D02*
X8026600Y-14388900D01*
X8039300Y-14910000D02*
X8064300Y-14935000D01*
X8064300Y-14910000D02*
X8039300Y-14935000D01*
X8064700Y-13640000D02*
X8089700Y-13665000D01*
X8089700Y-13640000D02*
X8064700Y-13665000D01*
X8077400Y-13728900D02*
X8102400Y-13753900D01*
X8102400Y-13728900D02*
X8077400Y-13753900D01*
X8077400Y-13805100D02*
X8102400Y-13830100D01*
X8102400Y-13805100D02*
X8077400Y-13830100D01*
X8153600Y-14922700D02*
X8178600Y-14947700D01*
X8178600Y-14922700D02*
X8153600Y-14947700D01*
X8280600Y-13627300D02*
X8305600Y-13652300D01*
X8305600Y-13627300D02*
X8280600Y-13652300D01*
X8280600Y-13716200D02*
X8305600Y-13741200D01*
X8305600Y-13716200D02*
X8280600Y-13741200D01*
X8280600Y-13817800D02*
X8305600Y-13842800D01*
X8305600Y-13817800D02*
X8280600Y-13842800D01*
X8293300Y-13919400D02*
X8318300Y-13944400D01*
X8318300Y-13919400D02*
X8293300Y-13944400D01*
X8306000Y-15900600D02*
X8331000Y-15925600D01*
X8331000Y-15900600D02*
X8306000Y-15925600D01*
X8356800Y-14021000D02*
X8381800Y-14046000D01*
X8381800Y-14021000D02*
X8356800Y-14046000D01*
X8356800Y-14579800D02*
X8381800Y-14604800D01*
X8381800Y-14579800D02*
X8356800Y-14604800D01*
X8369500Y-14109900D02*
X8394500Y-14134900D01*
X8394500Y-14109900D02*
X8369500Y-14134900D01*
X8369500Y-15011600D02*
X8394500Y-15036600D01*
X8394500Y-15011600D02*
X8369500Y-15036600D01*
X8369500Y-15087800D02*
X8394500Y-15112800D01*
X8394500Y-15087800D02*
X8369500Y-15112800D01*
X8369500Y-15164000D02*
X8394500Y-15189000D01*
X8394500Y-15164000D02*
X8369500Y-15189000D01*
X8369500Y-15240200D02*
X8394500Y-15265200D01*
X8394500Y-15240200D02*
X8369500Y-15265200D01*
X8369500Y-15316400D02*
X8394500Y-15341400D01*
X8394500Y-15316400D02*
X8369500Y-15341400D01*
X8369500Y-15405300D02*
X8394500Y-15430300D01*
X8394500Y-15405300D02*
X8369500Y-15430300D01*
X8369500Y-15481500D02*
X8394500Y-15506500D01*
X8394500Y-15481500D02*
X8369500Y-15506500D01*
X8382200Y-14452800D02*
X8407200Y-14477800D01*
X8407200Y-14452800D02*
X8382200Y-14477800D01*
X8394900Y-13614600D02*
X8419900Y-13639600D01*
X8419900Y-13614600D02*
X8394900Y-13639600D01*
X8407600Y-15900600D02*
X8432600Y-15925600D01*
X8432600Y-15900600D02*
X8407600Y-15925600D01*
X8420300Y-14541700D02*
X8445300Y-14566700D01*
X8445300Y-14541700D02*
X8420300Y-14566700D01*
X8471100Y-13995600D02*
X8496100Y-14020600D01*
X8496100Y-13995600D02*
X8471100Y-14020600D01*
X8471100Y-14109900D02*
X8496100Y-14134900D01*
X8496100Y-14109900D02*
X8471100Y-14134900D01*
X8483800Y-13614600D02*
X8508800Y-13639600D01*
X8508800Y-13614600D02*
X8483800Y-13639600D01*
X8483800Y-14452800D02*
X8508800Y-14477800D01*
X8508800Y-14452800D02*
X8483800Y-14477800D01*
X8483800Y-14567100D02*
X8508800Y-14592100D01*
X8508800Y-14567100D02*
X8483800Y-14592100D01*
X8547300Y-15900600D02*
X8572300Y-15925600D01*
X8572300Y-15900600D02*
X8547300Y-15925600D01*
X8572700Y-13614600D02*
X8597700Y-13639600D01*
X8597700Y-13614600D02*
X8572700Y-13639600D01*
X8572700Y-13995600D02*
X8597700Y-14020600D01*
X8597700Y-13995600D02*
X8572700Y-14020600D01*
X8572700Y-14109900D02*
X8597700Y-14134900D01*
X8597700Y-14109900D02*
X8572700Y-14134900D01*
X8572700Y-14554400D02*
X8597700Y-14579400D01*
X8597700Y-14554400D02*
X8572700Y-14579400D01*
X8592650Y-15456100D02*
X8617650Y-15481100D01*
X8617650Y-15456100D02*
X8592650Y-15481100D01*
X8598100Y-14452800D02*
X8623100Y-14477800D01*
X8623100Y-14452800D02*
X8598100Y-14477800D01*
X8648900Y-13614600D02*
X8673900Y-13639600D01*
X8673900Y-13614600D02*
X8648900Y-13639600D01*
X8674300Y-14008300D02*
X8699300Y-14033300D01*
X8699300Y-14008300D02*
X8674300Y-14033300D01*
X8674300Y-15900600D02*
X8699300Y-15925600D01*
X8699300Y-15900600D02*
X8674300Y-15925600D01*
X8687000Y-14109900D02*
X8712000Y-14134900D01*
X8712000Y-14109900D02*
X8687000Y-14134900D01*
X8712400Y-14452800D02*
X8737400Y-14477800D01*
X8737400Y-14452800D02*
X8712400Y-14477800D01*
X8725100Y-14567100D02*
X8750100Y-14592100D01*
X8750100Y-14567100D02*
X8725100Y-14592100D01*
X8725100Y-15456100D02*
X8750100Y-15481100D01*
X8750100Y-15456100D02*
X8725100Y-15481100D01*
D13*
X5061900Y-13436600D02*
G75*
G03*
X5061900Y-13436600I-20000J0D01*
G01*
X6154100Y-17462500D02*
G75*
G03*
X6154100Y-17462500I-20000J0D01*
G01*
X7373300Y-17449800D02*
G75*
G03*
X7373300Y-17449800I-20000J0D01*
G01*
D14*
X5969000Y-15743400D02*
X5969000Y-15803400D01*
X5939000Y-15773400D02*
X5999000Y-15773400D01*
X5969000Y-16594300D02*
X5969000Y-16654300D01*
X5939000Y-16624300D02*
X5999000Y-16624300D01*
X7391400Y-15794200D02*
X7391400Y-15854200D01*
X7361400Y-15824200D02*
X7421400Y-15824200D01*
X8267700Y-14460700D02*
X8267700Y-14520700D01*
X8237700Y-14490700D02*
X8297700Y-14490700D01*
X6612313Y-17696813D02*
X6612313Y-17654387D01*
X6569887Y-17654387D01*
X6569887Y-17696813D01*
X6612313Y-17696813D01*
D11*
X6561100Y-17620600D02*
X6561100Y-17730600D01*
X6561100Y-17730600D02*
G75*
G03*
X6621100Y-17730600I30000J0D01*
G01*
X6621100Y-17730600D02*
X6621100Y-17620600D01*
X6621100Y-17620600D02*
G75*
G03*
X6561100Y-17620600I-30000J0D01*
G01*
D14*
X6612313Y-18114813D02*
X6612313Y-18072387D01*
X6569887Y-18072387D01*
X6569887Y-18114813D01*
X6612313Y-18114813D01*
D11*
X6561100Y-18063600D02*
X6561100Y-18123600D01*
X6561100Y-18123600D02*
G75*
G03*
X6621100Y-18123600I30000J0D01*
G01*
X6621100Y-18123600D02*
X6621100Y-18063600D01*
X6621100Y-18063600D02*
G75*
G03*
X6561100Y-18063600I-30000J0D01*
G01*
D14*
X7476313Y-17696813D02*
X7476313Y-17654387D01*
X7433887Y-17654387D01*
X7433887Y-17696813D01*
X7476313Y-17696813D01*
D11*
X7425100Y-17620600D02*
X7425100Y-17730600D01*
X7425100Y-17730600D02*
G75*
G03*
X7485100Y-17730600I30000J0D01*
G01*
X7485100Y-17730600D02*
X7485100Y-17620600D01*
X7485100Y-17620600D02*
G75*
G03*
X7425100Y-17620600I-30000J0D01*
G01*
D14*
X7476313Y-18114813D02*
X7476313Y-18072387D01*
X7433887Y-18072387D01*
X7433887Y-18114813D01*
X7476313Y-18114813D01*
D11*
X7425100Y-18063600D02*
X7425100Y-18123600D01*
X7425100Y-18123600D02*
G75*
G03*
X7485100Y-18123600I30000J0D01*
G01*
X7485100Y-18123600D02*
X7485100Y-18063600D01*
X7485100Y-18063600D02*
G75*
G03*
X7425100Y-18063600I-30000J0D01*
G01*
X5068619Y-18497576D02*
X5068619Y-18297576D01*
X5068619Y-18297576D02*
X5116238Y-18297576D01*
X5116238Y-18297576D02*
X5144810Y-18307100D01*
X5144810Y-18307100D02*
X5163857Y-18326148D01*
X5163857Y-18326148D02*
X5173381Y-18345195D01*
X5173381Y-18345195D02*
X5182905Y-18383290D01*
X5182905Y-18383290D02*
X5182905Y-18411862D01*
X5182905Y-18411862D02*
X5173381Y-18449957D01*
X5173381Y-18449957D02*
X5163857Y-18469005D01*
X5163857Y-18469005D02*
X5144810Y-18488052D01*
X5144810Y-18488052D02*
X5116238Y-18497576D01*
X5116238Y-18497576D02*
X5068619Y-18497576D01*
X5268619Y-18497576D02*
X5268619Y-18364243D01*
X5268619Y-18402338D02*
X5278143Y-18383290D01*
X5278143Y-18383290D02*
X5287667Y-18373767D01*
X5287667Y-18373767D02*
X5306714Y-18364243D01*
X5306714Y-18364243D02*
X5325762Y-18364243D01*
X5392429Y-18497576D02*
X5392429Y-18364243D01*
X5392429Y-18297576D02*
X5382905Y-18307100D01*
X5382905Y-18307100D02*
X5392429Y-18316624D01*
X5392429Y-18316624D02*
X5401952Y-18307100D01*
X5401952Y-18307100D02*
X5392429Y-18297576D01*
X5392429Y-18297576D02*
X5392429Y-18316624D01*
X5516238Y-18497576D02*
X5497190Y-18488052D01*
X5497190Y-18488052D02*
X5487667Y-18469005D01*
X5487667Y-18469005D02*
X5487667Y-18297576D01*
X5621000Y-18497576D02*
X5601952Y-18488052D01*
X5601952Y-18488052D02*
X5592428Y-18469005D01*
X5592428Y-18469005D02*
X5592428Y-18297576D01*
X5817190Y-18497576D02*
X5817190Y-18297576D01*
X5817190Y-18297576D02*
X5883857Y-18440433D01*
X5883857Y-18440433D02*
X5950524Y-18297576D01*
X5950524Y-18297576D02*
X5950524Y-18497576D01*
X6131476Y-18497576D02*
X6131476Y-18392814D01*
X6131476Y-18392814D02*
X6121952Y-18373767D01*
X6121952Y-18373767D02*
X6102905Y-18364243D01*
X6102905Y-18364243D02*
X6064809Y-18364243D01*
X6064809Y-18364243D02*
X6045762Y-18373767D01*
X6131476Y-18488052D02*
X6112428Y-18497576D01*
X6112428Y-18497576D02*
X6064809Y-18497576D01*
X6064809Y-18497576D02*
X6045762Y-18488052D01*
X6045762Y-18488052D02*
X6036238Y-18469005D01*
X6036238Y-18469005D02*
X6036238Y-18449957D01*
X6036238Y-18449957D02*
X6045762Y-18430910D01*
X6045762Y-18430910D02*
X6064809Y-18421386D01*
X6064809Y-18421386D02*
X6112428Y-18421386D01*
X6112428Y-18421386D02*
X6131476Y-18411862D01*
X6226714Y-18364243D02*
X6226714Y-18564243D01*
X6226714Y-18373767D02*
X6245762Y-18364243D01*
X6245762Y-18364243D02*
X6283857Y-18364243D01*
X6283857Y-18364243D02*
X6302905Y-18373767D01*
X6302905Y-18373767D02*
X6312428Y-18383290D01*
X6312428Y-18383290D02*
X6321952Y-18402338D01*
X6321952Y-18402338D02*
X6321952Y-18459481D01*
X6321952Y-18459481D02*
X6312428Y-18478529D01*
X6312428Y-18478529D02*
X6302905Y-18488052D01*
X6302905Y-18488052D02*
X6283857Y-18497576D01*
X6283857Y-18497576D02*
X6245762Y-18497576D01*
X6245762Y-18497576D02*
X6226714Y-18488052D01*
X6407667Y-18478529D02*
X6417190Y-18488052D01*
X6417190Y-18488052D02*
X6407667Y-18497576D01*
X6407667Y-18497576D02*
X6398143Y-18488052D01*
X6398143Y-18488052D02*
X6407667Y-18478529D01*
X6407667Y-18478529D02*
X6407667Y-18497576D01*
X6407667Y-18373767D02*
X6417190Y-18383290D01*
X6417190Y-18383290D02*
X6407667Y-18392814D01*
X6407667Y-18392814D02*
X6398143Y-18383290D01*
X6398143Y-18383290D02*
X6407667Y-18373767D01*
X6407667Y-18373767D02*
X6407667Y-18392814D01*
D12*
X4796000Y-18831600D02*
X4821000Y-18856600D01*
X4821000Y-18831600D02*
X4796000Y-18856600D01*
D11*
X5106714Y-18717576D02*
X5125762Y-18717576D01*
X5125762Y-18717576D02*
X5144810Y-18727100D01*
X5144810Y-18727100D02*
X5154333Y-18736624D01*
X5154333Y-18736624D02*
X5163857Y-18755671D01*
X5163857Y-18755671D02*
X5173381Y-18793767D01*
X5173381Y-18793767D02*
X5173381Y-18841386D01*
X5173381Y-18841386D02*
X5163857Y-18879481D01*
X5163857Y-18879481D02*
X5154333Y-18898529D01*
X5154333Y-18898529D02*
X5144810Y-18908052D01*
X5144810Y-18908052D02*
X5125762Y-18917576D01*
X5125762Y-18917576D02*
X5106714Y-18917576D01*
X5106714Y-18917576D02*
X5087667Y-18908052D01*
X5087667Y-18908052D02*
X5078143Y-18898529D01*
X5078143Y-18898529D02*
X5068619Y-18879481D01*
X5068619Y-18879481D02*
X5059095Y-18841386D01*
X5059095Y-18841386D02*
X5059095Y-18793767D01*
X5059095Y-18793767D02*
X5068619Y-18755671D01*
X5068619Y-18755671D02*
X5078143Y-18736624D01*
X5078143Y-18736624D02*
X5087667Y-18727100D01*
X5087667Y-18727100D02*
X5106714Y-18717576D01*
X5259095Y-18898529D02*
X5268619Y-18908052D01*
X5268619Y-18908052D02*
X5259095Y-18917576D01*
X5259095Y-18917576D02*
X5249571Y-18908052D01*
X5249571Y-18908052D02*
X5259095Y-18898529D01*
X5259095Y-18898529D02*
X5259095Y-18917576D01*
X5344810Y-18736624D02*
X5354333Y-18727100D01*
X5354333Y-18727100D02*
X5373381Y-18717576D01*
X5373381Y-18717576D02*
X5421000Y-18717576D01*
X5421000Y-18717576D02*
X5440048Y-18727100D01*
X5440048Y-18727100D02*
X5449571Y-18736624D01*
X5449571Y-18736624D02*
X5459095Y-18755671D01*
X5459095Y-18755671D02*
X5459095Y-18774719D01*
X5459095Y-18774719D02*
X5449571Y-18803290D01*
X5449571Y-18803290D02*
X5335286Y-18917576D01*
X5335286Y-18917576D02*
X5459095Y-18917576D01*
X5640048Y-18717576D02*
X5544810Y-18717576D01*
X5544810Y-18717576D02*
X5535286Y-18812814D01*
X5535286Y-18812814D02*
X5544810Y-18803290D01*
X5544810Y-18803290D02*
X5563857Y-18793767D01*
X5563857Y-18793767D02*
X5611476Y-18793767D01*
X5611476Y-18793767D02*
X5630524Y-18803290D01*
X5630524Y-18803290D02*
X5640048Y-18812814D01*
X5640048Y-18812814D02*
X5649571Y-18831862D01*
X5649571Y-18831862D02*
X5649571Y-18879481D01*
X5649571Y-18879481D02*
X5640048Y-18898529D01*
X5640048Y-18898529D02*
X5630524Y-18908052D01*
X5630524Y-18908052D02*
X5611476Y-18917576D01*
X5611476Y-18917576D02*
X5563857Y-18917576D01*
X5563857Y-18917576D02*
X5544810Y-18908052D01*
X5544810Y-18908052D02*
X5535286Y-18898529D01*
X5773381Y-18717576D02*
X5792429Y-18717576D01*
X5792429Y-18717576D02*
X5811476Y-18727100D01*
X5811476Y-18727100D02*
X5821000Y-18736624D01*
X5821000Y-18736624D02*
X5830524Y-18755671D01*
X5830524Y-18755671D02*
X5840048Y-18793767D01*
X5840048Y-18793767D02*
X5840048Y-18841386D01*
X5840048Y-18841386D02*
X5830524Y-18879481D01*
X5830524Y-18879481D02*
X5821000Y-18898529D01*
X5821000Y-18898529D02*
X5811476Y-18908052D01*
X5811476Y-18908052D02*
X5792429Y-18917576D01*
X5792429Y-18917576D02*
X5773381Y-18917576D01*
X5773381Y-18917576D02*
X5754333Y-18908052D01*
X5754333Y-18908052D02*
X5744809Y-18898529D01*
X5744809Y-18898529D02*
X5735286Y-18879481D01*
X5735286Y-18879481D02*
X5725762Y-18841386D01*
X5725762Y-18841386D02*
X5725762Y-18793767D01*
X5725762Y-18793767D02*
X5735286Y-18755671D01*
X5735286Y-18755671D02*
X5744809Y-18736624D01*
X5744809Y-18736624D02*
X5754333Y-18727100D01*
X5754333Y-18727100D02*
X5773381Y-18717576D01*
X5925762Y-18917576D02*
X5925762Y-18784243D01*
X5925762Y-18803290D02*
X5935286Y-18793767D01*
X5935286Y-18793767D02*
X5954333Y-18784243D01*
X5954333Y-18784243D02*
X5982905Y-18784243D01*
X5982905Y-18784243D02*
X6001952Y-18793767D01*
X6001952Y-18793767D02*
X6011476Y-18812814D01*
X6011476Y-18812814D02*
X6011476Y-18917576D01*
X6011476Y-18812814D02*
X6021000Y-18793767D01*
X6021000Y-18793767D02*
X6040048Y-18784243D01*
X6040048Y-18784243D02*
X6068619Y-18784243D01*
X6068619Y-18784243D02*
X6087667Y-18793767D01*
X6087667Y-18793767D02*
X6097190Y-18812814D01*
X6097190Y-18812814D02*
X6097190Y-18917576D01*
X6192429Y-18917576D02*
X6192429Y-18784243D01*
X6192429Y-18803290D02*
X6201952Y-18793767D01*
X6201952Y-18793767D02*
X6221000Y-18784243D01*
X6221000Y-18784243D02*
X6249571Y-18784243D01*
X6249571Y-18784243D02*
X6268619Y-18793767D01*
X6268619Y-18793767D02*
X6278143Y-18812814D01*
X6278143Y-18812814D02*
X6278143Y-18917576D01*
X6278143Y-18812814D02*
X6287667Y-18793767D01*
X6287667Y-18793767D02*
X6306714Y-18784243D01*
X6306714Y-18784243D02*
X6335286Y-18784243D01*
X6335286Y-18784243D02*
X6354333Y-18793767D01*
X6354333Y-18793767D02*
X6363857Y-18812814D01*
X6363857Y-18812814D02*
X6363857Y-18917576D01*
X6721952Y-18708052D02*
X6550524Y-18965195D01*
X6946714Y-18717576D02*
X6965762Y-18717576D01*
X6965762Y-18717576D02*
X6984810Y-18727100D01*
X6984810Y-18727100D02*
X6994333Y-18736624D01*
X6994333Y-18736624D02*
X7003857Y-18755671D01*
X7003857Y-18755671D02*
X7013381Y-18793767D01*
X7013381Y-18793767D02*
X7013381Y-18841386D01*
X7013381Y-18841386D02*
X7003857Y-18879481D01*
X7003857Y-18879481D02*
X6994333Y-18898529D01*
X6994333Y-18898529D02*
X6984810Y-18908052D01*
X6984810Y-18908052D02*
X6965762Y-18917576D01*
X6965762Y-18917576D02*
X6946714Y-18917576D01*
X6946714Y-18917576D02*
X6927667Y-18908052D01*
X6927667Y-18908052D02*
X6918143Y-18898529D01*
X6918143Y-18898529D02*
X6908619Y-18879481D01*
X6908619Y-18879481D02*
X6899095Y-18841386D01*
X6899095Y-18841386D02*
X6899095Y-18793767D01*
X6899095Y-18793767D02*
X6908619Y-18755671D01*
X6908619Y-18755671D02*
X6918143Y-18736624D01*
X6918143Y-18736624D02*
X6927667Y-18727100D01*
X6927667Y-18727100D02*
X6946714Y-18717576D01*
X7099095Y-18898529D02*
X7108619Y-18908052D01*
X7108619Y-18908052D02*
X7099095Y-18917576D01*
X7099095Y-18917576D02*
X7089571Y-18908052D01*
X7089571Y-18908052D02*
X7099095Y-18898529D01*
X7099095Y-18898529D02*
X7099095Y-18917576D01*
X7232429Y-18717576D02*
X7251476Y-18717576D01*
X7251476Y-18717576D02*
X7270524Y-18727100D01*
X7270524Y-18727100D02*
X7280048Y-18736624D01*
X7280048Y-18736624D02*
X7289571Y-18755671D01*
X7289571Y-18755671D02*
X7299095Y-18793767D01*
X7299095Y-18793767D02*
X7299095Y-18841386D01*
X7299095Y-18841386D02*
X7289571Y-18879481D01*
X7289571Y-18879481D02*
X7280048Y-18898529D01*
X7280048Y-18898529D02*
X7270524Y-18908052D01*
X7270524Y-18908052D02*
X7251476Y-18917576D01*
X7251476Y-18917576D02*
X7232429Y-18917576D01*
X7232429Y-18917576D02*
X7213381Y-18908052D01*
X7213381Y-18908052D02*
X7203857Y-18898529D01*
X7203857Y-18898529D02*
X7194333Y-18879481D01*
X7194333Y-18879481D02*
X7184810Y-18841386D01*
X7184810Y-18841386D02*
X7184810Y-18793767D01*
X7184810Y-18793767D02*
X7194333Y-18755671D01*
X7194333Y-18755671D02*
X7203857Y-18736624D01*
X7203857Y-18736624D02*
X7213381Y-18727100D01*
X7213381Y-18727100D02*
X7232429Y-18717576D01*
X7422905Y-18717576D02*
X7441952Y-18717576D01*
X7441952Y-18717576D02*
X7461000Y-18727100D01*
X7461000Y-18727100D02*
X7470524Y-18736624D01*
X7470524Y-18736624D02*
X7480048Y-18755671D01*
X7480048Y-18755671D02*
X7489571Y-18793767D01*
X7489571Y-18793767D02*
X7489571Y-18841386D01*
X7489571Y-18841386D02*
X7480048Y-18879481D01*
X7480048Y-18879481D02*
X7470524Y-18898529D01*
X7470524Y-18898529D02*
X7461000Y-18908052D01*
X7461000Y-18908052D02*
X7441952Y-18917576D01*
X7441952Y-18917576D02*
X7422905Y-18917576D01*
X7422905Y-18917576D02*
X7403857Y-18908052D01*
X7403857Y-18908052D02*
X7394333Y-18898529D01*
X7394333Y-18898529D02*
X7384810Y-18879481D01*
X7384810Y-18879481D02*
X7375286Y-18841386D01*
X7375286Y-18841386D02*
X7375286Y-18793767D01*
X7375286Y-18793767D02*
X7384810Y-18755671D01*
X7384810Y-18755671D02*
X7394333Y-18736624D01*
X7394333Y-18736624D02*
X7403857Y-18727100D01*
X7403857Y-18727100D02*
X7422905Y-18717576D01*
X7584810Y-18917576D02*
X7622905Y-18917576D01*
X7622905Y-18917576D02*
X7641952Y-18908052D01*
X7641952Y-18908052D02*
X7651476Y-18898529D01*
X7651476Y-18898529D02*
X7670524Y-18869957D01*
X7670524Y-18869957D02*
X7680048Y-18831862D01*
X7680048Y-18831862D02*
X7680048Y-18755671D01*
X7680048Y-18755671D02*
X7670524Y-18736624D01*
X7670524Y-18736624D02*
X7661000Y-18727100D01*
X7661000Y-18727100D02*
X7641952Y-18717576D01*
X7641952Y-18717576D02*
X7603857Y-18717576D01*
X7603857Y-18717576D02*
X7584810Y-18727100D01*
X7584810Y-18727100D02*
X7575286Y-18736624D01*
X7575286Y-18736624D02*
X7565762Y-18755671D01*
X7565762Y-18755671D02*
X7565762Y-18803290D01*
X7565762Y-18803290D02*
X7575286Y-18822338D01*
X7575286Y-18822338D02*
X7584810Y-18831862D01*
X7584810Y-18831862D02*
X7603857Y-18841386D01*
X7603857Y-18841386D02*
X7641952Y-18841386D01*
X7641952Y-18841386D02*
X7661000Y-18831862D01*
X7661000Y-18831862D02*
X7670524Y-18822338D01*
X7670524Y-18822338D02*
X7680048Y-18803290D01*
X7794333Y-18803290D02*
X7775286Y-18793767D01*
X7775286Y-18793767D02*
X7765762Y-18784243D01*
X7765762Y-18784243D02*
X7756238Y-18765195D01*
X7756238Y-18765195D02*
X7756238Y-18755671D01*
X7756238Y-18755671D02*
X7765762Y-18736624D01*
X7765762Y-18736624D02*
X7775286Y-18727100D01*
X7775286Y-18727100D02*
X7794333Y-18717576D01*
X7794333Y-18717576D02*
X7832429Y-18717576D01*
X7832429Y-18717576D02*
X7851476Y-18727100D01*
X7851476Y-18727100D02*
X7861000Y-18736624D01*
X7861000Y-18736624D02*
X7870524Y-18755671D01*
X7870524Y-18755671D02*
X7870524Y-18765195D01*
X7870524Y-18765195D02*
X7861000Y-18784243D01*
X7861000Y-18784243D02*
X7851476Y-18793767D01*
X7851476Y-18793767D02*
X7832429Y-18803290D01*
X7832429Y-18803290D02*
X7794333Y-18803290D01*
X7794333Y-18803290D02*
X7775286Y-18812814D01*
X7775286Y-18812814D02*
X7765762Y-18822338D01*
X7765762Y-18822338D02*
X7756238Y-18841386D01*
X7756238Y-18841386D02*
X7756238Y-18879481D01*
X7756238Y-18879481D02*
X7765762Y-18898529D01*
X7765762Y-18898529D02*
X7775286Y-18908052D01*
X7775286Y-18908052D02*
X7794333Y-18917576D01*
X7794333Y-18917576D02*
X7832429Y-18917576D01*
X7832429Y-18917576D02*
X7851476Y-18908052D01*
X7851476Y-18908052D02*
X7861000Y-18898529D01*
X7861000Y-18898529D02*
X7870524Y-18879481D01*
X7870524Y-18879481D02*
X7870524Y-18841386D01*
X7870524Y-18841386D02*
X7861000Y-18822338D01*
X7861000Y-18822338D02*
X7851476Y-18812814D01*
X7851476Y-18812814D02*
X7832429Y-18803290D01*
X7946714Y-18717576D02*
X7946714Y-18755671D01*
X8022905Y-18717576D02*
X8022905Y-18755671D01*
X8285762Y-18993767D02*
X8276238Y-18984243D01*
X8276238Y-18984243D02*
X8257191Y-18955671D01*
X8257191Y-18955671D02*
X8247667Y-18936624D01*
X8247667Y-18936624D02*
X8238143Y-18908052D01*
X8238143Y-18908052D02*
X8228619Y-18860433D01*
X8228619Y-18860433D02*
X8228619Y-18822338D01*
X8228619Y-18822338D02*
X8238143Y-18774719D01*
X8238143Y-18774719D02*
X8247667Y-18746148D01*
X8247667Y-18746148D02*
X8257191Y-18727100D01*
X8257191Y-18727100D02*
X8276238Y-18698529D01*
X8276238Y-18698529D02*
X8285762Y-18689005D01*
X8352429Y-18736624D02*
X8361952Y-18727100D01*
X8361952Y-18727100D02*
X8381000Y-18717576D01*
X8381000Y-18717576D02*
X8428619Y-18717576D01*
X8428619Y-18717576D02*
X8447667Y-18727100D01*
X8447667Y-18727100D02*
X8457191Y-18736624D01*
X8457191Y-18736624D02*
X8466714Y-18755671D01*
X8466714Y-18755671D02*
X8466714Y-18774719D01*
X8466714Y-18774719D02*
X8457191Y-18803290D01*
X8457191Y-18803290D02*
X8342905Y-18917576D01*
X8342905Y-18917576D02*
X8466714Y-18917576D01*
X8647667Y-18717576D02*
X8552429Y-18717576D01*
X8552429Y-18717576D02*
X8542905Y-18812814D01*
X8542905Y-18812814D02*
X8552429Y-18803290D01*
X8552429Y-18803290D02*
X8571476Y-18793767D01*
X8571476Y-18793767D02*
X8619095Y-18793767D01*
X8619095Y-18793767D02*
X8638143Y-18803290D01*
X8638143Y-18803290D02*
X8647667Y-18812814D01*
X8647667Y-18812814D02*
X8657191Y-18831862D01*
X8657191Y-18831862D02*
X8657191Y-18879481D01*
X8657191Y-18879481D02*
X8647667Y-18898529D01*
X8647667Y-18898529D02*
X8638143Y-18908052D01*
X8638143Y-18908052D02*
X8619095Y-18917576D01*
X8619095Y-18917576D02*
X8571476Y-18917576D01*
X8571476Y-18917576D02*
X8552429Y-18908052D01*
X8552429Y-18908052D02*
X8542905Y-18898529D01*
X8828619Y-18717576D02*
X8790524Y-18717576D01*
X8790524Y-18717576D02*
X8771476Y-18727100D01*
X8771476Y-18727100D02*
X8761953Y-18736624D01*
X8761953Y-18736624D02*
X8742905Y-18765195D01*
X8742905Y-18765195D02*
X8733381Y-18803290D01*
X8733381Y-18803290D02*
X8733381Y-18879481D01*
X8733381Y-18879481D02*
X8742905Y-18898529D01*
X8742905Y-18898529D02*
X8752429Y-18908052D01*
X8752429Y-18908052D02*
X8771476Y-18917576D01*
X8771476Y-18917576D02*
X8809572Y-18917576D01*
X8809572Y-18917576D02*
X8828619Y-18908052D01*
X8828619Y-18908052D02*
X8838143Y-18898529D01*
X8838143Y-18898529D02*
X8847667Y-18879481D01*
X8847667Y-18879481D02*
X8847667Y-18831862D01*
X8847667Y-18831862D02*
X8838143Y-18812814D01*
X8838143Y-18812814D02*
X8828619Y-18803290D01*
X8828619Y-18803290D02*
X8809572Y-18793767D01*
X8809572Y-18793767D02*
X8771476Y-18793767D01*
X8771476Y-18793767D02*
X8752429Y-18803290D01*
X8752429Y-18803290D02*
X8742905Y-18812814D01*
X8742905Y-18812814D02*
X8733381Y-18831862D01*
X9053381Y-18917576D02*
X9053381Y-18717576D01*
X9139095Y-18917576D02*
X9139095Y-18812814D01*
X9139095Y-18812814D02*
X9129572Y-18793767D01*
X9129572Y-18793767D02*
X9110524Y-18784243D01*
X9110524Y-18784243D02*
X9081953Y-18784243D01*
X9081953Y-18784243D02*
X9062905Y-18793767D01*
X9062905Y-18793767D02*
X9053381Y-18803290D01*
X9262905Y-18917576D02*
X9243857Y-18908052D01*
X9243857Y-18908052D02*
X9234334Y-18898529D01*
X9234334Y-18898529D02*
X9224810Y-18879481D01*
X9224810Y-18879481D02*
X9224810Y-18822338D01*
X9224810Y-18822338D02*
X9234334Y-18803290D01*
X9234334Y-18803290D02*
X9243857Y-18793767D01*
X9243857Y-18793767D02*
X9262905Y-18784243D01*
X9262905Y-18784243D02*
X9291476Y-18784243D01*
X9291476Y-18784243D02*
X9310524Y-18793767D01*
X9310524Y-18793767D02*
X9320048Y-18803290D01*
X9320048Y-18803290D02*
X9329572Y-18822338D01*
X9329572Y-18822338D02*
X9329572Y-18879481D01*
X9329572Y-18879481D02*
X9320048Y-18898529D01*
X9320048Y-18898529D02*
X9310524Y-18908052D01*
X9310524Y-18908052D02*
X9291476Y-18917576D01*
X9291476Y-18917576D02*
X9262905Y-18917576D01*
X9443857Y-18917576D02*
X9424810Y-18908052D01*
X9424810Y-18908052D02*
X9415286Y-18889005D01*
X9415286Y-18889005D02*
X9415286Y-18717576D01*
X9596238Y-18908052D02*
X9577191Y-18917576D01*
X9577191Y-18917576D02*
X9539095Y-18917576D01*
X9539095Y-18917576D02*
X9520048Y-18908052D01*
X9520048Y-18908052D02*
X9510524Y-18889005D01*
X9510524Y-18889005D02*
X9510524Y-18812814D01*
X9510524Y-18812814D02*
X9520048Y-18793767D01*
X9520048Y-18793767D02*
X9539095Y-18784243D01*
X9539095Y-18784243D02*
X9577191Y-18784243D01*
X9577191Y-18784243D02*
X9596238Y-18793767D01*
X9596238Y-18793767D02*
X9605762Y-18812814D01*
X9605762Y-18812814D02*
X9605762Y-18831862D01*
X9605762Y-18831862D02*
X9510524Y-18850910D01*
X9681953Y-18908052D02*
X9701000Y-18917576D01*
X9701000Y-18917576D02*
X9739095Y-18917576D01*
X9739095Y-18917576D02*
X9758143Y-18908052D01*
X9758143Y-18908052D02*
X9767667Y-18889005D01*
X9767667Y-18889005D02*
X9767667Y-18879481D01*
X9767667Y-18879481D02*
X9758143Y-18860433D01*
X9758143Y-18860433D02*
X9739095Y-18850910D01*
X9739095Y-18850910D02*
X9710524Y-18850910D01*
X9710524Y-18850910D02*
X9691476Y-18841386D01*
X9691476Y-18841386D02*
X9681953Y-18822338D01*
X9681953Y-18822338D02*
X9681953Y-18812814D01*
X9681953Y-18812814D02*
X9691476Y-18793767D01*
X9691476Y-18793767D02*
X9710524Y-18784243D01*
X9710524Y-18784243D02*
X9739095Y-18784243D01*
X9739095Y-18784243D02*
X9758143Y-18793767D01*
X9834334Y-18993767D02*
X9843857Y-18984243D01*
X9843857Y-18984243D02*
X9862905Y-18955671D01*
X9862905Y-18955671D02*
X9872429Y-18936624D01*
X9872429Y-18936624D02*
X9881953Y-18908052D01*
X9881953Y-18908052D02*
X9891476Y-18860433D01*
X9891476Y-18860433D02*
X9891476Y-18822338D01*
X9891476Y-18822338D02*
X9881953Y-18774719D01*
X9881953Y-18774719D02*
X9872429Y-18746148D01*
X9872429Y-18746148D02*
X9862905Y-18727100D01*
X9862905Y-18727100D02*
X9843857Y-18698529D01*
X9843857Y-18698529D02*
X9834334Y-18689005D01*
D13*
X4821000Y-19108100D02*
G75*
G03*
X4821000Y-19108100I-20000J0D01*
G01*
D11*
X5106714Y-18981576D02*
X5125762Y-18981576D01*
X5125762Y-18981576D02*
X5144810Y-18991100D01*
X5144810Y-18991100D02*
X5154333Y-19000624D01*
X5154333Y-19000624D02*
X5163857Y-19019671D01*
X5163857Y-19019671D02*
X5173381Y-19057767D01*
X5173381Y-19057767D02*
X5173381Y-19105386D01*
X5173381Y-19105386D02*
X5163857Y-19143481D01*
X5163857Y-19143481D02*
X5154333Y-19162529D01*
X5154333Y-19162529D02*
X5144810Y-19172052D01*
X5144810Y-19172052D02*
X5125762Y-19181576D01*
X5125762Y-19181576D02*
X5106714Y-19181576D01*
X5106714Y-19181576D02*
X5087667Y-19172052D01*
X5087667Y-19172052D02*
X5078143Y-19162529D01*
X5078143Y-19162529D02*
X5068619Y-19143481D01*
X5068619Y-19143481D02*
X5059095Y-19105386D01*
X5059095Y-19105386D02*
X5059095Y-19057767D01*
X5059095Y-19057767D02*
X5068619Y-19019671D01*
X5068619Y-19019671D02*
X5078143Y-19000624D01*
X5078143Y-19000624D02*
X5087667Y-18991100D01*
X5087667Y-18991100D02*
X5106714Y-18981576D01*
X5259095Y-19162529D02*
X5268619Y-19172052D01*
X5268619Y-19172052D02*
X5259095Y-19181576D01*
X5259095Y-19181576D02*
X5249571Y-19172052D01*
X5249571Y-19172052D02*
X5259095Y-19162529D01*
X5259095Y-19162529D02*
X5259095Y-19181576D01*
X5440048Y-19048243D02*
X5440048Y-19181576D01*
X5392429Y-18972052D02*
X5344810Y-19114910D01*
X5344810Y-19114910D02*
X5468619Y-19114910D01*
X5582905Y-18981576D02*
X5601952Y-18981576D01*
X5601952Y-18981576D02*
X5621000Y-18991100D01*
X5621000Y-18991100D02*
X5630524Y-19000624D01*
X5630524Y-19000624D02*
X5640048Y-19019671D01*
X5640048Y-19019671D02*
X5649571Y-19057767D01*
X5649571Y-19057767D02*
X5649571Y-19105386D01*
X5649571Y-19105386D02*
X5640048Y-19143481D01*
X5640048Y-19143481D02*
X5630524Y-19162529D01*
X5630524Y-19162529D02*
X5621000Y-19172052D01*
X5621000Y-19172052D02*
X5601952Y-19181576D01*
X5601952Y-19181576D02*
X5582905Y-19181576D01*
X5582905Y-19181576D02*
X5563857Y-19172052D01*
X5563857Y-19172052D02*
X5554333Y-19162529D01*
X5554333Y-19162529D02*
X5544810Y-19143481D01*
X5544810Y-19143481D02*
X5535286Y-19105386D01*
X5535286Y-19105386D02*
X5535286Y-19057767D01*
X5535286Y-19057767D02*
X5544810Y-19019671D01*
X5544810Y-19019671D02*
X5554333Y-19000624D01*
X5554333Y-19000624D02*
X5563857Y-18991100D01*
X5563857Y-18991100D02*
X5582905Y-18981576D01*
X5773381Y-18981576D02*
X5792429Y-18981576D01*
X5792429Y-18981576D02*
X5811476Y-18991100D01*
X5811476Y-18991100D02*
X5821000Y-19000624D01*
X5821000Y-19000624D02*
X5830524Y-19019671D01*
X5830524Y-19019671D02*
X5840048Y-19057767D01*
X5840048Y-19057767D02*
X5840048Y-19105386D01*
X5840048Y-19105386D02*
X5830524Y-19143481D01*
X5830524Y-19143481D02*
X5821000Y-19162529D01*
X5821000Y-19162529D02*
X5811476Y-19172052D01*
X5811476Y-19172052D02*
X5792429Y-19181576D01*
X5792429Y-19181576D02*
X5773381Y-19181576D01*
X5773381Y-19181576D02*
X5754333Y-19172052D01*
X5754333Y-19172052D02*
X5744809Y-19162529D01*
X5744809Y-19162529D02*
X5735286Y-19143481D01*
X5735286Y-19143481D02*
X5725762Y-19105386D01*
X5725762Y-19105386D02*
X5725762Y-19057767D01*
X5725762Y-19057767D02*
X5735286Y-19019671D01*
X5735286Y-19019671D02*
X5744809Y-19000624D01*
X5744809Y-19000624D02*
X5754333Y-18991100D01*
X5754333Y-18991100D02*
X5773381Y-18981576D01*
X5925762Y-19181576D02*
X5925762Y-19048243D01*
X5925762Y-19067290D02*
X5935286Y-19057767D01*
X5935286Y-19057767D02*
X5954333Y-19048243D01*
X5954333Y-19048243D02*
X5982905Y-19048243D01*
X5982905Y-19048243D02*
X6001952Y-19057767D01*
X6001952Y-19057767D02*
X6011476Y-19076814D01*
X6011476Y-19076814D02*
X6011476Y-19181576D01*
X6011476Y-19076814D02*
X6021000Y-19057767D01*
X6021000Y-19057767D02*
X6040048Y-19048243D01*
X6040048Y-19048243D02*
X6068619Y-19048243D01*
X6068619Y-19048243D02*
X6087667Y-19057767D01*
X6087667Y-19057767D02*
X6097190Y-19076814D01*
X6097190Y-19076814D02*
X6097190Y-19181576D01*
X6192429Y-19181576D02*
X6192429Y-19048243D01*
X6192429Y-19067290D02*
X6201952Y-19057767D01*
X6201952Y-19057767D02*
X6221000Y-19048243D01*
X6221000Y-19048243D02*
X6249571Y-19048243D01*
X6249571Y-19048243D02*
X6268619Y-19057767D01*
X6268619Y-19057767D02*
X6278143Y-19076814D01*
X6278143Y-19076814D02*
X6278143Y-19181576D01*
X6278143Y-19076814D02*
X6287667Y-19057767D01*
X6287667Y-19057767D02*
X6306714Y-19048243D01*
X6306714Y-19048243D02*
X6335286Y-19048243D01*
X6335286Y-19048243D02*
X6354333Y-19057767D01*
X6354333Y-19057767D02*
X6363857Y-19076814D01*
X6363857Y-19076814D02*
X6363857Y-19181576D01*
X6721952Y-18972052D02*
X6550524Y-19229195D01*
X6946714Y-18981576D02*
X6965762Y-18981576D01*
X6965762Y-18981576D02*
X6984810Y-18991100D01*
X6984810Y-18991100D02*
X6994333Y-19000624D01*
X6994333Y-19000624D02*
X7003857Y-19019671D01*
X7003857Y-19019671D02*
X7013381Y-19057767D01*
X7013381Y-19057767D02*
X7013381Y-19105386D01*
X7013381Y-19105386D02*
X7003857Y-19143481D01*
X7003857Y-19143481D02*
X6994333Y-19162529D01*
X6994333Y-19162529D02*
X6984810Y-19172052D01*
X6984810Y-19172052D02*
X6965762Y-19181576D01*
X6965762Y-19181576D02*
X6946714Y-19181576D01*
X6946714Y-19181576D02*
X6927667Y-19172052D01*
X6927667Y-19172052D02*
X6918143Y-19162529D01*
X6918143Y-19162529D02*
X6908619Y-19143481D01*
X6908619Y-19143481D02*
X6899095Y-19105386D01*
X6899095Y-19105386D02*
X6899095Y-19057767D01*
X6899095Y-19057767D02*
X6908619Y-19019671D01*
X6908619Y-19019671D02*
X6918143Y-19000624D01*
X6918143Y-19000624D02*
X6927667Y-18991100D01*
X6927667Y-18991100D02*
X6946714Y-18981576D01*
X7099095Y-19162529D02*
X7108619Y-19172052D01*
X7108619Y-19172052D02*
X7099095Y-19181576D01*
X7099095Y-19181576D02*
X7089571Y-19172052D01*
X7089571Y-19172052D02*
X7099095Y-19162529D01*
X7099095Y-19162529D02*
X7099095Y-19181576D01*
X7232429Y-18981576D02*
X7251476Y-18981576D01*
X7251476Y-18981576D02*
X7270524Y-18991100D01*
X7270524Y-18991100D02*
X7280048Y-19000624D01*
X7280048Y-19000624D02*
X7289571Y-19019671D01*
X7289571Y-19019671D02*
X7299095Y-19057767D01*
X7299095Y-19057767D02*
X7299095Y-19105386D01*
X7299095Y-19105386D02*
X7289571Y-19143481D01*
X7289571Y-19143481D02*
X7280048Y-19162529D01*
X7280048Y-19162529D02*
X7270524Y-19172052D01*
X7270524Y-19172052D02*
X7251476Y-19181576D01*
X7251476Y-19181576D02*
X7232429Y-19181576D01*
X7232429Y-19181576D02*
X7213381Y-19172052D01*
X7213381Y-19172052D02*
X7203857Y-19162529D01*
X7203857Y-19162529D02*
X7194333Y-19143481D01*
X7194333Y-19143481D02*
X7184810Y-19105386D01*
X7184810Y-19105386D02*
X7184810Y-19057767D01*
X7184810Y-19057767D02*
X7194333Y-19019671D01*
X7194333Y-19019671D02*
X7203857Y-19000624D01*
X7203857Y-19000624D02*
X7213381Y-18991100D01*
X7213381Y-18991100D02*
X7232429Y-18981576D01*
X7489571Y-19181576D02*
X7375286Y-19181576D01*
X7432429Y-19181576D02*
X7432429Y-18981576D01*
X7432429Y-18981576D02*
X7413381Y-19010148D01*
X7413381Y-19010148D02*
X7394333Y-19029195D01*
X7394333Y-19029195D02*
X7375286Y-19038719D01*
X7670524Y-18981576D02*
X7575286Y-18981576D01*
X7575286Y-18981576D02*
X7565762Y-19076814D01*
X7565762Y-19076814D02*
X7575286Y-19067290D01*
X7575286Y-19067290D02*
X7594333Y-19057767D01*
X7594333Y-19057767D02*
X7641952Y-19057767D01*
X7641952Y-19057767D02*
X7661000Y-19067290D01*
X7661000Y-19067290D02*
X7670524Y-19076814D01*
X7670524Y-19076814D02*
X7680048Y-19095862D01*
X7680048Y-19095862D02*
X7680048Y-19143481D01*
X7680048Y-19143481D02*
X7670524Y-19162529D01*
X7670524Y-19162529D02*
X7661000Y-19172052D01*
X7661000Y-19172052D02*
X7641952Y-19181576D01*
X7641952Y-19181576D02*
X7594333Y-19181576D01*
X7594333Y-19181576D02*
X7575286Y-19172052D01*
X7575286Y-19172052D02*
X7565762Y-19162529D01*
X7746714Y-18981576D02*
X7880048Y-18981576D01*
X7880048Y-18981576D02*
X7794333Y-19181576D01*
X7946714Y-18981576D02*
X7946714Y-19019671D01*
X8022905Y-18981576D02*
X8022905Y-19019671D01*
X8285762Y-19257767D02*
X8276238Y-19248243D01*
X8276238Y-19248243D02*
X8257191Y-19219671D01*
X8257191Y-19219671D02*
X8247667Y-19200624D01*
X8247667Y-19200624D02*
X8238143Y-19172052D01*
X8238143Y-19172052D02*
X8228619Y-19124433D01*
X8228619Y-19124433D02*
X8228619Y-19086338D01*
X8228619Y-19086338D02*
X8238143Y-19038719D01*
X8238143Y-19038719D02*
X8247667Y-19010148D01*
X8247667Y-19010148D02*
X8257191Y-18991100D01*
X8257191Y-18991100D02*
X8276238Y-18962529D01*
X8276238Y-18962529D02*
X8285762Y-18953005D01*
X8342905Y-18981576D02*
X8466714Y-18981576D01*
X8466714Y-18981576D02*
X8400048Y-19057767D01*
X8400048Y-19057767D02*
X8428619Y-19057767D01*
X8428619Y-19057767D02*
X8447667Y-19067290D01*
X8447667Y-19067290D02*
X8457191Y-19076814D01*
X8457191Y-19076814D02*
X8466714Y-19095862D01*
X8466714Y-19095862D02*
X8466714Y-19143481D01*
X8466714Y-19143481D02*
X8457191Y-19162529D01*
X8457191Y-19162529D02*
X8447667Y-19172052D01*
X8447667Y-19172052D02*
X8428619Y-19181576D01*
X8428619Y-19181576D02*
X8371476Y-19181576D01*
X8371476Y-19181576D02*
X8352429Y-19172052D01*
X8352429Y-19172052D02*
X8342905Y-19162529D01*
X8672429Y-19181576D02*
X8672429Y-18981576D01*
X8758143Y-19181576D02*
X8758143Y-19076814D01*
X8758143Y-19076814D02*
X8748619Y-19057767D01*
X8748619Y-19057767D02*
X8729572Y-19048243D01*
X8729572Y-19048243D02*
X8701000Y-19048243D01*
X8701000Y-19048243D02*
X8681953Y-19057767D01*
X8681953Y-19057767D02*
X8672429Y-19067290D01*
X8881953Y-19181576D02*
X8862905Y-19172052D01*
X8862905Y-19172052D02*
X8853381Y-19162529D01*
X8853381Y-19162529D02*
X8843857Y-19143481D01*
X8843857Y-19143481D02*
X8843857Y-19086338D01*
X8843857Y-19086338D02*
X8853381Y-19067290D01*
X8853381Y-19067290D02*
X8862905Y-19057767D01*
X8862905Y-19057767D02*
X8881953Y-19048243D01*
X8881953Y-19048243D02*
X8910524Y-19048243D01*
X8910524Y-19048243D02*
X8929572Y-19057767D01*
X8929572Y-19057767D02*
X8939095Y-19067290D01*
X8939095Y-19067290D02*
X8948619Y-19086338D01*
X8948619Y-19086338D02*
X8948619Y-19143481D01*
X8948619Y-19143481D02*
X8939095Y-19162529D01*
X8939095Y-19162529D02*
X8929572Y-19172052D01*
X8929572Y-19172052D02*
X8910524Y-19181576D01*
X8910524Y-19181576D02*
X8881953Y-19181576D01*
X9062905Y-19181576D02*
X9043857Y-19172052D01*
X9043857Y-19172052D02*
X9034334Y-19153005D01*
X9034334Y-19153005D02*
X9034334Y-18981576D01*
X9215286Y-19172052D02*
X9196238Y-19181576D01*
X9196238Y-19181576D02*
X9158143Y-19181576D01*
X9158143Y-19181576D02*
X9139095Y-19172052D01*
X9139095Y-19172052D02*
X9129572Y-19153005D01*
X9129572Y-19153005D02*
X9129572Y-19076814D01*
X9129572Y-19076814D02*
X9139095Y-19057767D01*
X9139095Y-19057767D02*
X9158143Y-19048243D01*
X9158143Y-19048243D02*
X9196238Y-19048243D01*
X9196238Y-19048243D02*
X9215286Y-19057767D01*
X9215286Y-19057767D02*
X9224810Y-19076814D01*
X9224810Y-19076814D02*
X9224810Y-19095862D01*
X9224810Y-19095862D02*
X9129572Y-19114910D01*
X9301000Y-19172052D02*
X9320048Y-19181576D01*
X9320048Y-19181576D02*
X9358143Y-19181576D01*
X9358143Y-19181576D02*
X9377191Y-19172052D01*
X9377191Y-19172052D02*
X9386715Y-19153005D01*
X9386715Y-19153005D02*
X9386715Y-19143481D01*
X9386715Y-19143481D02*
X9377191Y-19124433D01*
X9377191Y-19124433D02*
X9358143Y-19114910D01*
X9358143Y-19114910D02*
X9329572Y-19114910D01*
X9329572Y-19114910D02*
X9310524Y-19105386D01*
X9310524Y-19105386D02*
X9301000Y-19086338D01*
X9301000Y-19086338D02*
X9301000Y-19076814D01*
X9301000Y-19076814D02*
X9310524Y-19057767D01*
X9310524Y-19057767D02*
X9329572Y-19048243D01*
X9329572Y-19048243D02*
X9358143Y-19048243D01*
X9358143Y-19048243D02*
X9377191Y-19057767D01*
X9453381Y-19257767D02*
X9462905Y-19248243D01*
X9462905Y-19248243D02*
X9481953Y-19219671D01*
X9481953Y-19219671D02*
X9491476Y-19200624D01*
X9491476Y-19200624D02*
X9501000Y-19172052D01*
X9501000Y-19172052D02*
X9510524Y-19124433D01*
X9510524Y-19124433D02*
X9510524Y-19086338D01*
X9510524Y-19086338D02*
X9501000Y-19038719D01*
X9501000Y-19038719D02*
X9491476Y-19010148D01*
X9491476Y-19010148D02*
X9481953Y-18991100D01*
X9481953Y-18991100D02*
X9462905Y-18962529D01*
X9462905Y-18962529D02*
X9453381Y-18953005D01*
D14*
X4791000Y-19342100D02*
X4791000Y-19402100D01*
X4761000Y-19372100D02*
X4821000Y-19372100D01*
D11*
X5106714Y-19245576D02*
X5125762Y-19245576D01*
X5125762Y-19245576D02*
X5144810Y-19255100D01*
X5144810Y-19255100D02*
X5154333Y-19264624D01*
X5154333Y-19264624D02*
X5163857Y-19283671D01*
X5163857Y-19283671D02*
X5173381Y-19321767D01*
X5173381Y-19321767D02*
X5173381Y-19369386D01*
X5173381Y-19369386D02*
X5163857Y-19407481D01*
X5163857Y-19407481D02*
X5154333Y-19426529D01*
X5154333Y-19426529D02*
X5144810Y-19436052D01*
X5144810Y-19436052D02*
X5125762Y-19445576D01*
X5125762Y-19445576D02*
X5106714Y-19445576D01*
X5106714Y-19445576D02*
X5087667Y-19436052D01*
X5087667Y-19436052D02*
X5078143Y-19426529D01*
X5078143Y-19426529D02*
X5068619Y-19407481D01*
X5068619Y-19407481D02*
X5059095Y-19369386D01*
X5059095Y-19369386D02*
X5059095Y-19321767D01*
X5059095Y-19321767D02*
X5068619Y-19283671D01*
X5068619Y-19283671D02*
X5078143Y-19264624D01*
X5078143Y-19264624D02*
X5087667Y-19255100D01*
X5087667Y-19255100D02*
X5106714Y-19245576D01*
X5259095Y-19426529D02*
X5268619Y-19436052D01*
X5268619Y-19436052D02*
X5259095Y-19445576D01*
X5259095Y-19445576D02*
X5249571Y-19436052D01*
X5249571Y-19436052D02*
X5259095Y-19426529D01*
X5259095Y-19426529D02*
X5259095Y-19445576D01*
X5440048Y-19245576D02*
X5401952Y-19245576D01*
X5401952Y-19245576D02*
X5382905Y-19255100D01*
X5382905Y-19255100D02*
X5373381Y-19264624D01*
X5373381Y-19264624D02*
X5354333Y-19293195D01*
X5354333Y-19293195D02*
X5344810Y-19331290D01*
X5344810Y-19331290D02*
X5344810Y-19407481D01*
X5344810Y-19407481D02*
X5354333Y-19426529D01*
X5354333Y-19426529D02*
X5363857Y-19436052D01*
X5363857Y-19436052D02*
X5382905Y-19445576D01*
X5382905Y-19445576D02*
X5421000Y-19445576D01*
X5421000Y-19445576D02*
X5440048Y-19436052D01*
X5440048Y-19436052D02*
X5449571Y-19426529D01*
X5449571Y-19426529D02*
X5459095Y-19407481D01*
X5459095Y-19407481D02*
X5459095Y-19359862D01*
X5459095Y-19359862D02*
X5449571Y-19340814D01*
X5449571Y-19340814D02*
X5440048Y-19331290D01*
X5440048Y-19331290D02*
X5421000Y-19321767D01*
X5421000Y-19321767D02*
X5382905Y-19321767D01*
X5382905Y-19321767D02*
X5363857Y-19331290D01*
X5363857Y-19331290D02*
X5354333Y-19340814D01*
X5354333Y-19340814D02*
X5344810Y-19359862D01*
X5582905Y-19245576D02*
X5601952Y-19245576D01*
X5601952Y-19245576D02*
X5621000Y-19255100D01*
X5621000Y-19255100D02*
X5630524Y-19264624D01*
X5630524Y-19264624D02*
X5640048Y-19283671D01*
X5640048Y-19283671D02*
X5649571Y-19321767D01*
X5649571Y-19321767D02*
X5649571Y-19369386D01*
X5649571Y-19369386D02*
X5640048Y-19407481D01*
X5640048Y-19407481D02*
X5630524Y-19426529D01*
X5630524Y-19426529D02*
X5621000Y-19436052D01*
X5621000Y-19436052D02*
X5601952Y-19445576D01*
X5601952Y-19445576D02*
X5582905Y-19445576D01*
X5582905Y-19445576D02*
X5563857Y-19436052D01*
X5563857Y-19436052D02*
X5554333Y-19426529D01*
X5554333Y-19426529D02*
X5544810Y-19407481D01*
X5544810Y-19407481D02*
X5535286Y-19369386D01*
X5535286Y-19369386D02*
X5535286Y-19321767D01*
X5535286Y-19321767D02*
X5544810Y-19283671D01*
X5544810Y-19283671D02*
X5554333Y-19264624D01*
X5554333Y-19264624D02*
X5563857Y-19255100D01*
X5563857Y-19255100D02*
X5582905Y-19245576D01*
X5773381Y-19245576D02*
X5792429Y-19245576D01*
X5792429Y-19245576D02*
X5811476Y-19255100D01*
X5811476Y-19255100D02*
X5821000Y-19264624D01*
X5821000Y-19264624D02*
X5830524Y-19283671D01*
X5830524Y-19283671D02*
X5840048Y-19321767D01*
X5840048Y-19321767D02*
X5840048Y-19369386D01*
X5840048Y-19369386D02*
X5830524Y-19407481D01*
X5830524Y-19407481D02*
X5821000Y-19426529D01*
X5821000Y-19426529D02*
X5811476Y-19436052D01*
X5811476Y-19436052D02*
X5792429Y-19445576D01*
X5792429Y-19445576D02*
X5773381Y-19445576D01*
X5773381Y-19445576D02*
X5754333Y-19436052D01*
X5754333Y-19436052D02*
X5744809Y-19426529D01*
X5744809Y-19426529D02*
X5735286Y-19407481D01*
X5735286Y-19407481D02*
X5725762Y-19369386D01*
X5725762Y-19369386D02*
X5725762Y-19321767D01*
X5725762Y-19321767D02*
X5735286Y-19283671D01*
X5735286Y-19283671D02*
X5744809Y-19264624D01*
X5744809Y-19264624D02*
X5754333Y-19255100D01*
X5754333Y-19255100D02*
X5773381Y-19245576D01*
X5925762Y-19445576D02*
X5925762Y-19312243D01*
X5925762Y-19331290D02*
X5935286Y-19321767D01*
X5935286Y-19321767D02*
X5954333Y-19312243D01*
X5954333Y-19312243D02*
X5982905Y-19312243D01*
X5982905Y-19312243D02*
X6001952Y-19321767D01*
X6001952Y-19321767D02*
X6011476Y-19340814D01*
X6011476Y-19340814D02*
X6011476Y-19445576D01*
X6011476Y-19340814D02*
X6021000Y-19321767D01*
X6021000Y-19321767D02*
X6040048Y-19312243D01*
X6040048Y-19312243D02*
X6068619Y-19312243D01*
X6068619Y-19312243D02*
X6087667Y-19321767D01*
X6087667Y-19321767D02*
X6097190Y-19340814D01*
X6097190Y-19340814D02*
X6097190Y-19445576D01*
X6192429Y-19445576D02*
X6192429Y-19312243D01*
X6192429Y-19331290D02*
X6201952Y-19321767D01*
X6201952Y-19321767D02*
X6221000Y-19312243D01*
X6221000Y-19312243D02*
X6249571Y-19312243D01*
X6249571Y-19312243D02*
X6268619Y-19321767D01*
X6268619Y-19321767D02*
X6278143Y-19340814D01*
X6278143Y-19340814D02*
X6278143Y-19445576D01*
X6278143Y-19340814D02*
X6287667Y-19321767D01*
X6287667Y-19321767D02*
X6306714Y-19312243D01*
X6306714Y-19312243D02*
X6335286Y-19312243D01*
X6335286Y-19312243D02*
X6354333Y-19321767D01*
X6354333Y-19321767D02*
X6363857Y-19340814D01*
X6363857Y-19340814D02*
X6363857Y-19445576D01*
X6721952Y-19236052D02*
X6550524Y-19493195D01*
X6946714Y-19245576D02*
X6965762Y-19245576D01*
X6965762Y-19245576D02*
X6984810Y-19255100D01*
X6984810Y-19255100D02*
X6994333Y-19264624D01*
X6994333Y-19264624D02*
X7003857Y-19283671D01*
X7003857Y-19283671D02*
X7013381Y-19321767D01*
X7013381Y-19321767D02*
X7013381Y-19369386D01*
X7013381Y-19369386D02*
X7003857Y-19407481D01*
X7003857Y-19407481D02*
X6994333Y-19426529D01*
X6994333Y-19426529D02*
X6984810Y-19436052D01*
X6984810Y-19436052D02*
X6965762Y-19445576D01*
X6965762Y-19445576D02*
X6946714Y-19445576D01*
X6946714Y-19445576D02*
X6927667Y-19436052D01*
X6927667Y-19436052D02*
X6918143Y-19426529D01*
X6918143Y-19426529D02*
X6908619Y-19407481D01*
X6908619Y-19407481D02*
X6899095Y-19369386D01*
X6899095Y-19369386D02*
X6899095Y-19321767D01*
X6899095Y-19321767D02*
X6908619Y-19283671D01*
X6908619Y-19283671D02*
X6918143Y-19264624D01*
X6918143Y-19264624D02*
X6927667Y-19255100D01*
X6927667Y-19255100D02*
X6946714Y-19245576D01*
X7099095Y-19426529D02*
X7108619Y-19436052D01*
X7108619Y-19436052D02*
X7099095Y-19445576D01*
X7099095Y-19445576D02*
X7089571Y-19436052D01*
X7089571Y-19436052D02*
X7099095Y-19426529D01*
X7099095Y-19426529D02*
X7099095Y-19445576D01*
X7232429Y-19245576D02*
X7251476Y-19245576D01*
X7251476Y-19245576D02*
X7270524Y-19255100D01*
X7270524Y-19255100D02*
X7280048Y-19264624D01*
X7280048Y-19264624D02*
X7289571Y-19283671D01*
X7289571Y-19283671D02*
X7299095Y-19321767D01*
X7299095Y-19321767D02*
X7299095Y-19369386D01*
X7299095Y-19369386D02*
X7289571Y-19407481D01*
X7289571Y-19407481D02*
X7280048Y-19426529D01*
X7280048Y-19426529D02*
X7270524Y-19436052D01*
X7270524Y-19436052D02*
X7251476Y-19445576D01*
X7251476Y-19445576D02*
X7232429Y-19445576D01*
X7232429Y-19445576D02*
X7213381Y-19436052D01*
X7213381Y-19436052D02*
X7203857Y-19426529D01*
X7203857Y-19426529D02*
X7194333Y-19407481D01*
X7194333Y-19407481D02*
X7184810Y-19369386D01*
X7184810Y-19369386D02*
X7184810Y-19321767D01*
X7184810Y-19321767D02*
X7194333Y-19283671D01*
X7194333Y-19283671D02*
X7203857Y-19264624D01*
X7203857Y-19264624D02*
X7213381Y-19255100D01*
X7213381Y-19255100D02*
X7232429Y-19245576D01*
X7375286Y-19264624D02*
X7384810Y-19255100D01*
X7384810Y-19255100D02*
X7403857Y-19245576D01*
X7403857Y-19245576D02*
X7451476Y-19245576D01*
X7451476Y-19245576D02*
X7470524Y-19255100D01*
X7470524Y-19255100D02*
X7480048Y-19264624D01*
X7480048Y-19264624D02*
X7489571Y-19283671D01*
X7489571Y-19283671D02*
X7489571Y-19302719D01*
X7489571Y-19302719D02*
X7480048Y-19331290D01*
X7480048Y-19331290D02*
X7365762Y-19445576D01*
X7365762Y-19445576D02*
X7489571Y-19445576D01*
X7556238Y-19245576D02*
X7680048Y-19245576D01*
X7680048Y-19245576D02*
X7613381Y-19321767D01*
X7613381Y-19321767D02*
X7641952Y-19321767D01*
X7641952Y-19321767D02*
X7661000Y-19331290D01*
X7661000Y-19331290D02*
X7670524Y-19340814D01*
X7670524Y-19340814D02*
X7680048Y-19359862D01*
X7680048Y-19359862D02*
X7680048Y-19407481D01*
X7680048Y-19407481D02*
X7670524Y-19426529D01*
X7670524Y-19426529D02*
X7661000Y-19436052D01*
X7661000Y-19436052D02*
X7641952Y-19445576D01*
X7641952Y-19445576D02*
X7584810Y-19445576D01*
X7584810Y-19445576D02*
X7565762Y-19436052D01*
X7565762Y-19436052D02*
X7556238Y-19426529D01*
X7851476Y-19245576D02*
X7813381Y-19245576D01*
X7813381Y-19245576D02*
X7794333Y-19255100D01*
X7794333Y-19255100D02*
X7784810Y-19264624D01*
X7784810Y-19264624D02*
X7765762Y-19293195D01*
X7765762Y-19293195D02*
X7756238Y-19331290D01*
X7756238Y-19331290D02*
X7756238Y-19407481D01*
X7756238Y-19407481D02*
X7765762Y-19426529D01*
X7765762Y-19426529D02*
X7775286Y-19436052D01*
X7775286Y-19436052D02*
X7794333Y-19445576D01*
X7794333Y-19445576D02*
X7832429Y-19445576D01*
X7832429Y-19445576D02*
X7851476Y-19436052D01*
X7851476Y-19436052D02*
X7861000Y-19426529D01*
X7861000Y-19426529D02*
X7870524Y-19407481D01*
X7870524Y-19407481D02*
X7870524Y-19359862D01*
X7870524Y-19359862D02*
X7861000Y-19340814D01*
X7861000Y-19340814D02*
X7851476Y-19331290D01*
X7851476Y-19331290D02*
X7832429Y-19321767D01*
X7832429Y-19321767D02*
X7794333Y-19321767D01*
X7794333Y-19321767D02*
X7775286Y-19331290D01*
X7775286Y-19331290D02*
X7765762Y-19340814D01*
X7765762Y-19340814D02*
X7756238Y-19359862D01*
X7946714Y-19245576D02*
X7946714Y-19283671D01*
X8022905Y-19245576D02*
X8022905Y-19283671D01*
X8285762Y-19521767D02*
X8276238Y-19512243D01*
X8276238Y-19512243D02*
X8257191Y-19483671D01*
X8257191Y-19483671D02*
X8247667Y-19464624D01*
X8247667Y-19464624D02*
X8238143Y-19436052D01*
X8238143Y-19436052D02*
X8228619Y-19388433D01*
X8228619Y-19388433D02*
X8228619Y-19350338D01*
X8228619Y-19350338D02*
X8238143Y-19302719D01*
X8238143Y-19302719D02*
X8247667Y-19274148D01*
X8247667Y-19274148D02*
X8257191Y-19255100D01*
X8257191Y-19255100D02*
X8276238Y-19226529D01*
X8276238Y-19226529D02*
X8285762Y-19217005D01*
X8447667Y-19312243D02*
X8447667Y-19445576D01*
X8400048Y-19236052D02*
X8352429Y-19378910D01*
X8352429Y-19378910D02*
X8476238Y-19378910D01*
X8672429Y-19445576D02*
X8672429Y-19245576D01*
X8758143Y-19445576D02*
X8758143Y-19340814D01*
X8758143Y-19340814D02*
X8748619Y-19321767D01*
X8748619Y-19321767D02*
X8729572Y-19312243D01*
X8729572Y-19312243D02*
X8701000Y-19312243D01*
X8701000Y-19312243D02*
X8681953Y-19321767D01*
X8681953Y-19321767D02*
X8672429Y-19331290D01*
X8881953Y-19445576D02*
X8862905Y-19436052D01*
X8862905Y-19436052D02*
X8853381Y-19426529D01*
X8853381Y-19426529D02*
X8843857Y-19407481D01*
X8843857Y-19407481D02*
X8843857Y-19350338D01*
X8843857Y-19350338D02*
X8853381Y-19331290D01*
X8853381Y-19331290D02*
X8862905Y-19321767D01*
X8862905Y-19321767D02*
X8881953Y-19312243D01*
X8881953Y-19312243D02*
X8910524Y-19312243D01*
X8910524Y-19312243D02*
X8929572Y-19321767D01*
X8929572Y-19321767D02*
X8939095Y-19331290D01*
X8939095Y-19331290D02*
X8948619Y-19350338D01*
X8948619Y-19350338D02*
X8948619Y-19407481D01*
X8948619Y-19407481D02*
X8939095Y-19426529D01*
X8939095Y-19426529D02*
X8929572Y-19436052D01*
X8929572Y-19436052D02*
X8910524Y-19445576D01*
X8910524Y-19445576D02*
X8881953Y-19445576D01*
X9062905Y-19445576D02*
X9043857Y-19436052D01*
X9043857Y-19436052D02*
X9034334Y-19417005D01*
X9034334Y-19417005D02*
X9034334Y-19245576D01*
X9215286Y-19436052D02*
X9196238Y-19445576D01*
X9196238Y-19445576D02*
X9158143Y-19445576D01*
X9158143Y-19445576D02*
X9139095Y-19436052D01*
X9139095Y-19436052D02*
X9129572Y-19417005D01*
X9129572Y-19417005D02*
X9129572Y-19340814D01*
X9129572Y-19340814D02*
X9139095Y-19321767D01*
X9139095Y-19321767D02*
X9158143Y-19312243D01*
X9158143Y-19312243D02*
X9196238Y-19312243D01*
X9196238Y-19312243D02*
X9215286Y-19321767D01*
X9215286Y-19321767D02*
X9224810Y-19340814D01*
X9224810Y-19340814D02*
X9224810Y-19359862D01*
X9224810Y-19359862D02*
X9129572Y-19378910D01*
X9301000Y-19436052D02*
X9320048Y-19445576D01*
X9320048Y-19445576D02*
X9358143Y-19445576D01*
X9358143Y-19445576D02*
X9377191Y-19436052D01*
X9377191Y-19436052D02*
X9386715Y-19417005D01*
X9386715Y-19417005D02*
X9386715Y-19407481D01*
X9386715Y-19407481D02*
X9377191Y-19388433D01*
X9377191Y-19388433D02*
X9358143Y-19378910D01*
X9358143Y-19378910D02*
X9329572Y-19378910D01*
X9329572Y-19378910D02*
X9310524Y-19369386D01*
X9310524Y-19369386D02*
X9301000Y-19350338D01*
X9301000Y-19350338D02*
X9301000Y-19340814D01*
X9301000Y-19340814D02*
X9310524Y-19321767D01*
X9310524Y-19321767D02*
X9329572Y-19312243D01*
X9329572Y-19312243D02*
X9358143Y-19312243D01*
X9358143Y-19312243D02*
X9377191Y-19321767D01*
X9453381Y-19521767D02*
X9462905Y-19512243D01*
X9462905Y-19512243D02*
X9481953Y-19483671D01*
X9481953Y-19483671D02*
X9491476Y-19464624D01*
X9491476Y-19464624D02*
X9501000Y-19436052D01*
X9501000Y-19436052D02*
X9510524Y-19388433D01*
X9510524Y-19388433D02*
X9510524Y-19350338D01*
X9510524Y-19350338D02*
X9501000Y-19302719D01*
X9501000Y-19302719D02*
X9491476Y-19274148D01*
X9491476Y-19274148D02*
X9481953Y-19255100D01*
X9481953Y-19255100D02*
X9462905Y-19226529D01*
X9462905Y-19226529D02*
X9453381Y-19217005D01*
D14*
X4812213Y-19657313D02*
X4812213Y-19614887D01*
X4769787Y-19614887D01*
X4769787Y-19657313D01*
X4812213Y-19657313D01*
D11*
X5106714Y-19509576D02*
X5125762Y-19509576D01*
X5125762Y-19509576D02*
X5144810Y-19519100D01*
X5144810Y-19519100D02*
X5154333Y-19528624D01*
X5154333Y-19528624D02*
X5163857Y-19547671D01*
X5163857Y-19547671D02*
X5173381Y-19585767D01*
X5173381Y-19585767D02*
X5173381Y-19633386D01*
X5173381Y-19633386D02*
X5163857Y-19671481D01*
X5163857Y-19671481D02*
X5154333Y-19690529D01*
X5154333Y-19690529D02*
X5144810Y-19700052D01*
X5144810Y-19700052D02*
X5125762Y-19709576D01*
X5125762Y-19709576D02*
X5106714Y-19709576D01*
X5106714Y-19709576D02*
X5087667Y-19700052D01*
X5087667Y-19700052D02*
X5078143Y-19690529D01*
X5078143Y-19690529D02*
X5068619Y-19671481D01*
X5068619Y-19671481D02*
X5059095Y-19633386D01*
X5059095Y-19633386D02*
X5059095Y-19585767D01*
X5059095Y-19585767D02*
X5068619Y-19547671D01*
X5068619Y-19547671D02*
X5078143Y-19528624D01*
X5078143Y-19528624D02*
X5087667Y-19519100D01*
X5087667Y-19519100D02*
X5106714Y-19509576D01*
X5259095Y-19690529D02*
X5268619Y-19700052D01*
X5268619Y-19700052D02*
X5259095Y-19709576D01*
X5259095Y-19709576D02*
X5249571Y-19700052D01*
X5249571Y-19700052D02*
X5259095Y-19690529D01*
X5259095Y-19690529D02*
X5259095Y-19709576D01*
X5440048Y-19509576D02*
X5401952Y-19509576D01*
X5401952Y-19509576D02*
X5382905Y-19519100D01*
X5382905Y-19519100D02*
X5373381Y-19528624D01*
X5373381Y-19528624D02*
X5354333Y-19557195D01*
X5354333Y-19557195D02*
X5344810Y-19595290D01*
X5344810Y-19595290D02*
X5344810Y-19671481D01*
X5344810Y-19671481D02*
X5354333Y-19690529D01*
X5354333Y-19690529D02*
X5363857Y-19700052D01*
X5363857Y-19700052D02*
X5382905Y-19709576D01*
X5382905Y-19709576D02*
X5421000Y-19709576D01*
X5421000Y-19709576D02*
X5440048Y-19700052D01*
X5440048Y-19700052D02*
X5449571Y-19690529D01*
X5449571Y-19690529D02*
X5459095Y-19671481D01*
X5459095Y-19671481D02*
X5459095Y-19623862D01*
X5459095Y-19623862D02*
X5449571Y-19604814D01*
X5449571Y-19604814D02*
X5440048Y-19595290D01*
X5440048Y-19595290D02*
X5421000Y-19585767D01*
X5421000Y-19585767D02*
X5382905Y-19585767D01*
X5382905Y-19585767D02*
X5363857Y-19595290D01*
X5363857Y-19595290D02*
X5354333Y-19604814D01*
X5354333Y-19604814D02*
X5344810Y-19623862D01*
X5582905Y-19509576D02*
X5601952Y-19509576D01*
X5601952Y-19509576D02*
X5621000Y-19519100D01*
X5621000Y-19519100D02*
X5630524Y-19528624D01*
X5630524Y-19528624D02*
X5640048Y-19547671D01*
X5640048Y-19547671D02*
X5649571Y-19585767D01*
X5649571Y-19585767D02*
X5649571Y-19633386D01*
X5649571Y-19633386D02*
X5640048Y-19671481D01*
X5640048Y-19671481D02*
X5630524Y-19690529D01*
X5630524Y-19690529D02*
X5621000Y-19700052D01*
X5621000Y-19700052D02*
X5601952Y-19709576D01*
X5601952Y-19709576D02*
X5582905Y-19709576D01*
X5582905Y-19709576D02*
X5563857Y-19700052D01*
X5563857Y-19700052D02*
X5554333Y-19690529D01*
X5554333Y-19690529D02*
X5544810Y-19671481D01*
X5544810Y-19671481D02*
X5535286Y-19633386D01*
X5535286Y-19633386D02*
X5535286Y-19585767D01*
X5535286Y-19585767D02*
X5544810Y-19547671D01*
X5544810Y-19547671D02*
X5554333Y-19528624D01*
X5554333Y-19528624D02*
X5563857Y-19519100D01*
X5563857Y-19519100D02*
X5582905Y-19509576D01*
X5773381Y-19509576D02*
X5792429Y-19509576D01*
X5792429Y-19509576D02*
X5811476Y-19519100D01*
X5811476Y-19519100D02*
X5821000Y-19528624D01*
X5821000Y-19528624D02*
X5830524Y-19547671D01*
X5830524Y-19547671D02*
X5840048Y-19585767D01*
X5840048Y-19585767D02*
X5840048Y-19633386D01*
X5840048Y-19633386D02*
X5830524Y-19671481D01*
X5830524Y-19671481D02*
X5821000Y-19690529D01*
X5821000Y-19690529D02*
X5811476Y-19700052D01*
X5811476Y-19700052D02*
X5792429Y-19709576D01*
X5792429Y-19709576D02*
X5773381Y-19709576D01*
X5773381Y-19709576D02*
X5754333Y-19700052D01*
X5754333Y-19700052D02*
X5744809Y-19690529D01*
X5744809Y-19690529D02*
X5735286Y-19671481D01*
X5735286Y-19671481D02*
X5725762Y-19633386D01*
X5725762Y-19633386D02*
X5725762Y-19585767D01*
X5725762Y-19585767D02*
X5735286Y-19547671D01*
X5735286Y-19547671D02*
X5744809Y-19528624D01*
X5744809Y-19528624D02*
X5754333Y-19519100D01*
X5754333Y-19519100D02*
X5773381Y-19509576D01*
X5925762Y-19709576D02*
X5925762Y-19576243D01*
X5925762Y-19595290D02*
X5935286Y-19585767D01*
X5935286Y-19585767D02*
X5954333Y-19576243D01*
X5954333Y-19576243D02*
X5982905Y-19576243D01*
X5982905Y-19576243D02*
X6001952Y-19585767D01*
X6001952Y-19585767D02*
X6011476Y-19604814D01*
X6011476Y-19604814D02*
X6011476Y-19709576D01*
X6011476Y-19604814D02*
X6021000Y-19585767D01*
X6021000Y-19585767D02*
X6040048Y-19576243D01*
X6040048Y-19576243D02*
X6068619Y-19576243D01*
X6068619Y-19576243D02*
X6087667Y-19585767D01*
X6087667Y-19585767D02*
X6097190Y-19604814D01*
X6097190Y-19604814D02*
X6097190Y-19709576D01*
X6192429Y-19709576D02*
X6192429Y-19576243D01*
X6192429Y-19595290D02*
X6201952Y-19585767D01*
X6201952Y-19585767D02*
X6221000Y-19576243D01*
X6221000Y-19576243D02*
X6249571Y-19576243D01*
X6249571Y-19576243D02*
X6268619Y-19585767D01*
X6268619Y-19585767D02*
X6278143Y-19604814D01*
X6278143Y-19604814D02*
X6278143Y-19709576D01*
X6278143Y-19604814D02*
X6287667Y-19585767D01*
X6287667Y-19585767D02*
X6306714Y-19576243D01*
X6306714Y-19576243D02*
X6335286Y-19576243D01*
X6335286Y-19576243D02*
X6354333Y-19585767D01*
X6354333Y-19585767D02*
X6363857Y-19604814D01*
X6363857Y-19604814D02*
X6363857Y-19709576D01*
X6721952Y-19500052D02*
X6550524Y-19757195D01*
X6946714Y-19509576D02*
X6965762Y-19509576D01*
X6965762Y-19509576D02*
X6984810Y-19519100D01*
X6984810Y-19519100D02*
X6994333Y-19528624D01*
X6994333Y-19528624D02*
X7003857Y-19547671D01*
X7003857Y-19547671D02*
X7013381Y-19585767D01*
X7013381Y-19585767D02*
X7013381Y-19633386D01*
X7013381Y-19633386D02*
X7003857Y-19671481D01*
X7003857Y-19671481D02*
X6994333Y-19690529D01*
X6994333Y-19690529D02*
X6984810Y-19700052D01*
X6984810Y-19700052D02*
X6965762Y-19709576D01*
X6965762Y-19709576D02*
X6946714Y-19709576D01*
X6946714Y-19709576D02*
X6927667Y-19700052D01*
X6927667Y-19700052D02*
X6918143Y-19690529D01*
X6918143Y-19690529D02*
X6908619Y-19671481D01*
X6908619Y-19671481D02*
X6899095Y-19633386D01*
X6899095Y-19633386D02*
X6899095Y-19585767D01*
X6899095Y-19585767D02*
X6908619Y-19547671D01*
X6908619Y-19547671D02*
X6918143Y-19528624D01*
X6918143Y-19528624D02*
X6927667Y-19519100D01*
X6927667Y-19519100D02*
X6946714Y-19509576D01*
X7099095Y-19690529D02*
X7108619Y-19700052D01*
X7108619Y-19700052D02*
X7099095Y-19709576D01*
X7099095Y-19709576D02*
X7089571Y-19700052D01*
X7089571Y-19700052D02*
X7099095Y-19690529D01*
X7099095Y-19690529D02*
X7099095Y-19709576D01*
X7232429Y-19509576D02*
X7251476Y-19509576D01*
X7251476Y-19509576D02*
X7270524Y-19519100D01*
X7270524Y-19519100D02*
X7280048Y-19528624D01*
X7280048Y-19528624D02*
X7289571Y-19547671D01*
X7289571Y-19547671D02*
X7299095Y-19585767D01*
X7299095Y-19585767D02*
X7299095Y-19633386D01*
X7299095Y-19633386D02*
X7289571Y-19671481D01*
X7289571Y-19671481D02*
X7280048Y-19690529D01*
X7280048Y-19690529D02*
X7270524Y-19700052D01*
X7270524Y-19700052D02*
X7251476Y-19709576D01*
X7251476Y-19709576D02*
X7232429Y-19709576D01*
X7232429Y-19709576D02*
X7213381Y-19700052D01*
X7213381Y-19700052D02*
X7203857Y-19690529D01*
X7203857Y-19690529D02*
X7194333Y-19671481D01*
X7194333Y-19671481D02*
X7184810Y-19633386D01*
X7184810Y-19633386D02*
X7184810Y-19585767D01*
X7184810Y-19585767D02*
X7194333Y-19547671D01*
X7194333Y-19547671D02*
X7203857Y-19528624D01*
X7203857Y-19528624D02*
X7213381Y-19519100D01*
X7213381Y-19519100D02*
X7232429Y-19509576D01*
X7375286Y-19528624D02*
X7384810Y-19519100D01*
X7384810Y-19519100D02*
X7403857Y-19509576D01*
X7403857Y-19509576D02*
X7451476Y-19509576D01*
X7451476Y-19509576D02*
X7470524Y-19519100D01*
X7470524Y-19519100D02*
X7480048Y-19528624D01*
X7480048Y-19528624D02*
X7489571Y-19547671D01*
X7489571Y-19547671D02*
X7489571Y-19566719D01*
X7489571Y-19566719D02*
X7480048Y-19595290D01*
X7480048Y-19595290D02*
X7365762Y-19709576D01*
X7365762Y-19709576D02*
X7489571Y-19709576D01*
X7556238Y-19509576D02*
X7680048Y-19509576D01*
X7680048Y-19509576D02*
X7613381Y-19585767D01*
X7613381Y-19585767D02*
X7641952Y-19585767D01*
X7641952Y-19585767D02*
X7661000Y-19595290D01*
X7661000Y-19595290D02*
X7670524Y-19604814D01*
X7670524Y-19604814D02*
X7680048Y-19623862D01*
X7680048Y-19623862D02*
X7680048Y-19671481D01*
X7680048Y-19671481D02*
X7670524Y-19690529D01*
X7670524Y-19690529D02*
X7661000Y-19700052D01*
X7661000Y-19700052D02*
X7641952Y-19709576D01*
X7641952Y-19709576D02*
X7584810Y-19709576D01*
X7584810Y-19709576D02*
X7565762Y-19700052D01*
X7565762Y-19700052D02*
X7556238Y-19690529D01*
X7851476Y-19509576D02*
X7813381Y-19509576D01*
X7813381Y-19509576D02*
X7794333Y-19519100D01*
X7794333Y-19519100D02*
X7784810Y-19528624D01*
X7784810Y-19528624D02*
X7765762Y-19557195D01*
X7765762Y-19557195D02*
X7756238Y-19595290D01*
X7756238Y-19595290D02*
X7756238Y-19671481D01*
X7756238Y-19671481D02*
X7765762Y-19690529D01*
X7765762Y-19690529D02*
X7775286Y-19700052D01*
X7775286Y-19700052D02*
X7794333Y-19709576D01*
X7794333Y-19709576D02*
X7832429Y-19709576D01*
X7832429Y-19709576D02*
X7851476Y-19700052D01*
X7851476Y-19700052D02*
X7861000Y-19690529D01*
X7861000Y-19690529D02*
X7870524Y-19671481D01*
X7870524Y-19671481D02*
X7870524Y-19623862D01*
X7870524Y-19623862D02*
X7861000Y-19604814D01*
X7861000Y-19604814D02*
X7851476Y-19595290D01*
X7851476Y-19595290D02*
X7832429Y-19585767D01*
X7832429Y-19585767D02*
X7794333Y-19585767D01*
X7794333Y-19585767D02*
X7775286Y-19595290D01*
X7775286Y-19595290D02*
X7765762Y-19604814D01*
X7765762Y-19604814D02*
X7756238Y-19623862D01*
X7946714Y-19509576D02*
X7946714Y-19547671D01*
X8022905Y-19509576D02*
X8022905Y-19547671D01*
X8285762Y-19785767D02*
X8276238Y-19776243D01*
X8276238Y-19776243D02*
X8257191Y-19747671D01*
X8257191Y-19747671D02*
X8247667Y-19728624D01*
X8247667Y-19728624D02*
X8238143Y-19700052D01*
X8238143Y-19700052D02*
X8228619Y-19652433D01*
X8228619Y-19652433D02*
X8228619Y-19614338D01*
X8228619Y-19614338D02*
X8238143Y-19566719D01*
X8238143Y-19566719D02*
X8247667Y-19538148D01*
X8247667Y-19538148D02*
X8257191Y-19519100D01*
X8257191Y-19519100D02*
X8276238Y-19490529D01*
X8276238Y-19490529D02*
X8285762Y-19481005D01*
X8400048Y-19509576D02*
X8419095Y-19509576D01*
X8419095Y-19509576D02*
X8438143Y-19519100D01*
X8438143Y-19519100D02*
X8447667Y-19528624D01*
X8447667Y-19528624D02*
X8457191Y-19547671D01*
X8457191Y-19547671D02*
X8466714Y-19585767D01*
X8466714Y-19585767D02*
X8466714Y-19633386D01*
X8466714Y-19633386D02*
X8457191Y-19671481D01*
X8457191Y-19671481D02*
X8447667Y-19690529D01*
X8447667Y-19690529D02*
X8438143Y-19700052D01*
X8438143Y-19700052D02*
X8419095Y-19709576D01*
X8419095Y-19709576D02*
X8400048Y-19709576D01*
X8400048Y-19709576D02*
X8381000Y-19700052D01*
X8381000Y-19700052D02*
X8371476Y-19690529D01*
X8371476Y-19690529D02*
X8361952Y-19671481D01*
X8361952Y-19671481D02*
X8352429Y-19633386D01*
X8352429Y-19633386D02*
X8352429Y-19585767D01*
X8352429Y-19585767D02*
X8361952Y-19547671D01*
X8361952Y-19547671D02*
X8371476Y-19528624D01*
X8371476Y-19528624D02*
X8381000Y-19519100D01*
X8381000Y-19519100D02*
X8400048Y-19509576D01*
X8672429Y-19709576D02*
X8672429Y-19509576D01*
X8758143Y-19709576D02*
X8758143Y-19604814D01*
X8758143Y-19604814D02*
X8748619Y-19585767D01*
X8748619Y-19585767D02*
X8729572Y-19576243D01*
X8729572Y-19576243D02*
X8701000Y-19576243D01*
X8701000Y-19576243D02*
X8681953Y-19585767D01*
X8681953Y-19585767D02*
X8672429Y-19595290D01*
X8881953Y-19709576D02*
X8862905Y-19700052D01*
X8862905Y-19700052D02*
X8853381Y-19690529D01*
X8853381Y-19690529D02*
X8843857Y-19671481D01*
X8843857Y-19671481D02*
X8843857Y-19614338D01*
X8843857Y-19614338D02*
X8853381Y-19595290D01*
X8853381Y-19595290D02*
X8862905Y-19585767D01*
X8862905Y-19585767D02*
X8881953Y-19576243D01*
X8881953Y-19576243D02*
X8910524Y-19576243D01*
X8910524Y-19576243D02*
X8929572Y-19585767D01*
X8929572Y-19585767D02*
X8939095Y-19595290D01*
X8939095Y-19595290D02*
X8948619Y-19614338D01*
X8948619Y-19614338D02*
X8948619Y-19671481D01*
X8948619Y-19671481D02*
X8939095Y-19690529D01*
X8939095Y-19690529D02*
X8929572Y-19700052D01*
X8929572Y-19700052D02*
X8910524Y-19709576D01*
X8910524Y-19709576D02*
X8881953Y-19709576D01*
X9062905Y-19709576D02*
X9043857Y-19700052D01*
X9043857Y-19700052D02*
X9034334Y-19681005D01*
X9034334Y-19681005D02*
X9034334Y-19509576D01*
X9215286Y-19700052D02*
X9196238Y-19709576D01*
X9196238Y-19709576D02*
X9158143Y-19709576D01*
X9158143Y-19709576D02*
X9139095Y-19700052D01*
X9139095Y-19700052D02*
X9129572Y-19681005D01*
X9129572Y-19681005D02*
X9129572Y-19604814D01*
X9129572Y-19604814D02*
X9139095Y-19585767D01*
X9139095Y-19585767D02*
X9158143Y-19576243D01*
X9158143Y-19576243D02*
X9196238Y-19576243D01*
X9196238Y-19576243D02*
X9215286Y-19585767D01*
X9215286Y-19585767D02*
X9224810Y-19604814D01*
X9224810Y-19604814D02*
X9224810Y-19623862D01*
X9224810Y-19623862D02*
X9129572Y-19642910D01*
X9301000Y-19700052D02*
X9320048Y-19709576D01*
X9320048Y-19709576D02*
X9358143Y-19709576D01*
X9358143Y-19709576D02*
X9377191Y-19700052D01*
X9377191Y-19700052D02*
X9386715Y-19681005D01*
X9386715Y-19681005D02*
X9386715Y-19671481D01*
X9386715Y-19671481D02*
X9377191Y-19652433D01*
X9377191Y-19652433D02*
X9358143Y-19642910D01*
X9358143Y-19642910D02*
X9329572Y-19642910D01*
X9329572Y-19642910D02*
X9310524Y-19633386D01*
X9310524Y-19633386D02*
X9301000Y-19614338D01*
X9301000Y-19614338D02*
X9301000Y-19604814D01*
X9301000Y-19604814D02*
X9310524Y-19585767D01*
X9310524Y-19585767D02*
X9329572Y-19576243D01*
X9329572Y-19576243D02*
X9358143Y-19576243D01*
X9358143Y-19576243D02*
X9377191Y-19585767D01*
X9592429Y-19633386D02*
X9744810Y-19633386D01*
X9668619Y-19709576D02*
X9668619Y-19557195D01*
X10045762Y-19576243D02*
X10045762Y-19709576D01*
X9998143Y-19500052D02*
X9950524Y-19642910D01*
X9950524Y-19642910D02*
X10074334Y-19642910D01*
X10261000Y-19700052D02*
X10280048Y-19709576D01*
X10280048Y-19709576D02*
X10318143Y-19709576D01*
X10318143Y-19709576D02*
X10337191Y-19700052D01*
X10337191Y-19700052D02*
X10346715Y-19681005D01*
X10346715Y-19681005D02*
X10346715Y-19671481D01*
X10346715Y-19671481D02*
X10337191Y-19652433D01*
X10337191Y-19652433D02*
X10318143Y-19642910D01*
X10318143Y-19642910D02*
X10289572Y-19642910D01*
X10289572Y-19642910D02*
X10270524Y-19633386D01*
X10270524Y-19633386D02*
X10261000Y-19614338D01*
X10261000Y-19614338D02*
X10261000Y-19604814D01*
X10261000Y-19604814D02*
X10270524Y-19585767D01*
X10270524Y-19585767D02*
X10289572Y-19576243D01*
X10289572Y-19576243D02*
X10318143Y-19576243D01*
X10318143Y-19576243D02*
X10337191Y-19585767D01*
X10461000Y-19709576D02*
X10441953Y-19700052D01*
X10441953Y-19700052D02*
X10432429Y-19681005D01*
X10432429Y-19681005D02*
X10432429Y-19509576D01*
X10565762Y-19709576D02*
X10546715Y-19700052D01*
X10546715Y-19700052D02*
X10537191Y-19690529D01*
X10537191Y-19690529D02*
X10527667Y-19671481D01*
X10527667Y-19671481D02*
X10527667Y-19614338D01*
X10527667Y-19614338D02*
X10537191Y-19595290D01*
X10537191Y-19595290D02*
X10546715Y-19585767D01*
X10546715Y-19585767D02*
X10565762Y-19576243D01*
X10565762Y-19576243D02*
X10594334Y-19576243D01*
X10594334Y-19576243D02*
X10613381Y-19585767D01*
X10613381Y-19585767D02*
X10622905Y-19595290D01*
X10622905Y-19595290D02*
X10632429Y-19614338D01*
X10632429Y-19614338D02*
X10632429Y-19671481D01*
X10632429Y-19671481D02*
X10622905Y-19690529D01*
X10622905Y-19690529D02*
X10613381Y-19700052D01*
X10613381Y-19700052D02*
X10594334Y-19709576D01*
X10594334Y-19709576D02*
X10565762Y-19709576D01*
X10689572Y-19576243D02*
X10765762Y-19576243D01*
X10718143Y-19509576D02*
X10718143Y-19681005D01*
X10718143Y-19681005D02*
X10727667Y-19700052D01*
X10727667Y-19700052D02*
X10746715Y-19709576D01*
X10746715Y-19709576D02*
X10765762Y-19709576D01*
X10822905Y-19700052D02*
X10841953Y-19709576D01*
X10841953Y-19709576D02*
X10880048Y-19709576D01*
X10880048Y-19709576D02*
X10899096Y-19700052D01*
X10899096Y-19700052D02*
X10908619Y-19681005D01*
X10908619Y-19681005D02*
X10908619Y-19671481D01*
X10908619Y-19671481D02*
X10899096Y-19652433D01*
X10899096Y-19652433D02*
X10880048Y-19642910D01*
X10880048Y-19642910D02*
X10851476Y-19642910D01*
X10851476Y-19642910D02*
X10832429Y-19633386D01*
X10832429Y-19633386D02*
X10822905Y-19614338D01*
X10822905Y-19614338D02*
X10822905Y-19604814D01*
X10822905Y-19604814D02*
X10832429Y-19585767D01*
X10832429Y-19585767D02*
X10851476Y-19576243D01*
X10851476Y-19576243D02*
X10880048Y-19576243D01*
X10880048Y-19576243D02*
X10899096Y-19585767D01*
X10975286Y-19785767D02*
X10984810Y-19776243D01*
X10984810Y-19776243D02*
X11003857Y-19747671D01*
X11003857Y-19747671D02*
X11013381Y-19728624D01*
X11013381Y-19728624D02*
X11022905Y-19700052D01*
X11022905Y-19700052D02*
X11032429Y-19652433D01*
X11032429Y-19652433D02*
X11032429Y-19614338D01*
X11032429Y-19614338D02*
X11022905Y-19566719D01*
X11022905Y-19566719D02*
X11013381Y-19538148D01*
X11013381Y-19538148D02*
X11003857Y-19519100D01*
X11003857Y-19519100D02*
X10984810Y-19490529D01*
X10984810Y-19490529D02*
X10975286Y-19481005D01*
M02*
